<?xml version="1.0" standalone="no"?>
<!DOCTYPE svg PUBLIC "-//W3C//DTD SVG 1.1//EN" "http://www.w3.org/Graphics/SVG/1.1/DTD/svg11.dtd" >
<svg xmlns="http://www.w3.org/2000/svg">
<metadata>Generated by IcoMoon</metadata>
<defs>
<font id="icomoon" horiz-adv-x="1024">
<font-face units-per-em="1024" ascent="960" descent="-64" />
<missing-glyph horiz-adv-x="1024" />
<glyph unicode="&#x20;" horiz-adv-x="512" d="" />
<glyph unicode="&#xe900;" glyph-name="instagram" d="M512.192 710.544c-0.014 0-0.031 0-0.048 0-144.999 0-262.544-117.545-262.544-262.544s117.545-262.544 262.544-262.544c144.999 0 262.544 117.545 262.544 262.544v0c0 0.129 0 0.281 0 0.433 0 144.76-117.351 262.111-262.111 262.111-0.136 0-0.271 0-0.407 0h0.021zM512.192 277.462c-94.265 0-170.683 76.417-170.683 170.683s76.417 170.683 170.683 170.683c94.265 0 170.683-76.417 170.683-170.683v0c-0.191-94.188-76.494-170.491-170.664-170.683h-0.019zM846.869 721.275c0-33.831-27.426-61.257-61.257-61.257s-61.257 27.426-61.257 61.257c0 33.831 27.426 61.257 61.257 61.257v0c0.043 0 0.094 0 0.145 0 33.752 0 61.113-27.361 61.113-61.113 0-0.051 0-0.102 0-0.152v0.008zM1020.728 659.152c0.222 4.2 0.349 9.117 0.349 14.063 0 156.613-126.96 283.573-283.573 283.573-4.947 0-9.864-0.127-14.748-0.377l0.685 0.028c-84.547 4.812-337.949 4.812-422.496 0-4.317 0.235-9.37 0.369-14.454 0.369-156.427 0-283.236-126.809-283.236-283.236 0-4.988 0.129-9.945 0.384-14.869l-0.028 0.69c-4.812-84.547-4.812-337.949 0-422.496-0.222-4.2-0.349-9.117-0.349-14.063 0-156.613 126.96-283.573 283.573-283.573 4.947 0 9.864 0.127 14.748 0.377l-0.685-0.028c84.547-4.812 337.949-4.812 422.496 0 4.171-0.219 9.054-0.344 13.967-0.344 156.613 0 283.573 126.96 283.573 283.573 0 4.945-0.127 9.86-0.377 14.743l0.028-0.685c4.812 84.547 4.812 337.708 0 422.256zM911.495 146.189c-17.949-44.668-52.679-79.398-96.186-96.934l-1.161-0.413c-67.368-26.755-227.368-20.547-301.859-20.547s-234.683-5.919-301.859 20.547c-44.668 17.949-79.398 52.679-96.934 96.186l-0.413 1.161c-26.707 67.368-20.547 227.368-20.547 301.859s-5.919 234.683 20.547 301.859c17.981 44.582 52.683 79.238 96.138 96.742l1.161 0.413c67.368 26.755 227.368 20.547 301.859 20.547s234.683 5.919 301.859-20.547c44.668-17.949 79.398-52.679 96.934-96.186l0.413-1.161c26.755-67.368 20.547-227.368 20.547-301.859s6.304-234.49-20.595-301.666z" />
<glyph unicode="&#xe901;" glyph-name="youtube" horiz-adv-x="1397" d="M1383.139 739.031c-7.386 54.749-27.283 103.77-56.718 145.595l0.694-1.040c-35.239 36.997-84.368 60.487-138.989 62.076l-0.289 0.007c-195.432 14.397-488.581 14.397-488.581 14.397h-1.563s-292.171 0-487.538-14.397c-55.195-1.287-104.647-24.843-139.913-61.995l-0.082-0.087c-28.731-40.788-48.627-89.807-55.835-142.859l-0.189-1.696c-8.463-69.627-13.674-151.034-14.39-233.514l-0.007-1.005v-111.266c0.646-83.384 5.859-164.795 15.402-244.876l-1.005 10.358c7.484-54.983 27.366-104.225 56.74-146.356l-0.716 1.085c40.298-37.967 94.574-61.489 154.339-62.081l0.118-0.001c111.266-11.335 474.64-15.179 474.64-15.179s293.148 1.498 488.581 15.179c54.991 1.179 104.25 24.773 139.181 61.978l0.097 0.105c28.67 41.042 48.554 90.287 55.831 143.545l0.193 1.727c8.069 69.68 12.999 151.139 13.61 233.625l0.005 0.893v111.266c0 116.543-13.615 234.519-13.615 234.519zM931.951 463.537l-377.836-203.575v408.975l171.134-93.091z" />
<glyph unicode="&#xe902;" glyph-name="twitter" horiz-adv-x="1281" d="M1280.478 838.514c-43.811-19.35-94.651-33.725-147.835-40.635l-2.813-0.299c54.466 32.072 95.5 82 115.458 141.59l0.531 1.827c-48.197-28.673-104.252-50.587-163.894-62.588l-3.426-0.575c-48.16 50.505-115.964 81.91-191.104 81.91-143.76 0-260.671-114.956-263.823-257.96l-0.005-0.294c0.402-21.141 3.168-41.441 8.044-60.903l-0.395 1.863c-218.314 10.060-410.85 112.513-540.711 268.879l-0.988 1.224c-22.664-37.355-36.078-82.505-36.078-130.788 0-89.426 46.013-168.104 115.656-213.652l0.975-0.598c-43.716 0.86-84.507 12.608-120.011 32.63l1.273-0.66v-3.466c-0.002-0.34-0.003-0.743-0.003-1.145 0-33.124 6.588-64.71 18.525-93.518l-0.595 1.621c33.413-81.794 104.669-142.008 191.402-159.391l1.674-0.28c-20.795-6.088-44.692-9.619-69.404-9.681h-0.034c-17.547 0.108-34.566 2.127-50.932 5.859l1.573-0.302c35.651-103.934 131.356-177.815 244.687-180.521l0.318-0.006c-88.709-68.85-201.622-110.374-324.234-110.374-0.528 0-1.056 0.001-1.584 0.002h0.081c-21.513 0-41.83 1.374-63.163 3.466 114.252-72.701 253.46-115.884 402.752-115.929h0.012c4.431-0.097 9.653-0.152 14.887-0.152 349.924 0 642.408 245.927 714.045 574.371l0.883 4.828c11.051 46.937 17.388 100.831 17.389 156.204v33.346c51.187 37.232 94.461 81.59 129.383 132.159l1.186 1.817z" />
<glyph unicode="&#xe903;" glyph-name="facebook" horiz-adv-x="479" d="M316.121 653.297v82.234c-0.263 1.787-0.413 3.851-0.413 5.949 0 23.764 19.265 43.029 43.029 43.029 0.852 0 1.698-0.025 2.537-0.074l-0.116 0.005h114.984v175.559h-158.348c-5.138 0.471-11.112 0.74-17.149 0.74-109.95 0-199.082-89.132-199.082-199.082 0-5.679 0.238-11.303 0.704-16.862l-0.049 0.727v-92.226h-102.266v-205.010h103.318v-512.287h205.010v512.287h151.654l6.693 80.56 12.239 124.307z" />
<glyph unicode="&#xe904;" glyph-name="store" d="M938.667 405.333h-64c-47.128 0-85.333 38.205-85.333 85.333v0 42.667c0 11.782 9.551 21.333 21.333 21.333v0h192c11.782 0 21.333-9.551 21.333-21.333v0-42.667c0-47.128-38.205-85.333-85.333-85.333v0zM832 512v-21.333c0-23.564 19.103-42.667 42.667-42.667v0h64c23.564 0 42.667 19.103 42.667 42.667v0 21.333zM554.667 405.333h-85.333c-47.128 0-85.333 38.205-85.333 85.333v0 42.667c0 11.782 9.551 21.333 21.333 21.333v0h213.333c11.782 0 21.333-9.551 21.333-21.333v0-42.667c0-47.128-38.205-85.333-85.333-85.333v0zM426.667 512v-21.333c0-23.564 19.103-42.667 42.667-42.667v0h85.333c23.564 0 42.667 19.103 42.667 42.667v0 21.333zM746.667 405.333h-64c-47.128 0-85.333 38.205-85.333 85.333v0 42.667c0 11.782 9.551 21.333 21.333 21.333v0h192c11.782 0 21.333-9.551 21.333-21.333v0-42.667c0-47.128-38.205-85.333-85.333-85.333v0zM640 512v-21.333c0-23.564 19.103-42.667 42.667-42.667v0h64c23.564 0 42.667 19.103 42.667 42.667v0 21.333zM341.333 405.333h-64c-47.128 0-85.333 38.205-85.333 85.333v0 42.667c0 11.782 9.551 21.333 21.333 21.333v0h192c11.782 0 21.333-9.551 21.333-21.333v0-42.667c0-47.128-38.205-85.333-85.333-85.333v0zM234.667 512v-21.333c0-23.564 19.103-42.667 42.667-42.667v0h64c23.564 0 42.667 19.103 42.667 42.667v0 21.333zM149.333 405.333h-64c-47.128 0-85.333 38.205-85.333 85.333v0 42.667c0 11.782 9.551 21.333 21.333 21.333v0h192c11.782 0 21.333-9.551 21.333-21.333v0-42.667c0-47.128-38.205-85.333-85.333-85.333v0zM42.667 512v-21.333c0-23.564 19.103-42.667 42.667-42.667v0h64c23.564 0 42.667 19.103 42.667 42.667v0 21.333zM1002.667 512h-981.333c-11.74 0.056-21.235 9.585-21.235 21.333 0 5.016 1.731 9.628 4.629 13.27l-0.033-0.044 170.667 213.333c3.922 4.932 9.911 8.075 16.635 8.107h640.005c6.729-0.032 12.718-3.175 16.607-8.063l0.033-0.044 170.667-213.333c2.864-3.599 4.595-8.211 4.595-13.227 0-11.748-9.495-21.277-21.23-21.333h-0.005zM65.707 554.667h892.587l-136.533 170.667h-618.667zM684.907 737.173l38.161 19.084 106.682-213.318-38.161-19.084-106.682 213.318zM555.029 742.549l41.838 8.368 42.675-213.374-41.838-8.368-42.675 213.374zM384.469 537.429l42.712 213.367 41.837-8.375-42.712-213.367-41.837 8.375zM194.176 542.891l106.682 213.318 38.161-19.084-106.682-213.318-38.161 19.084zM896 426.667h42.667v-469.333h-42.667v469.333zM277.333 213.333h42.667v-64h-42.667v64zM85.333 426.667h42.667v-469.333h-42.667v469.333zM362.667 448h42.667v-490.667h-42.667v490.667zM0-21.333h1024v-42.667h-1024v42.667zM832 725.333h-640c-11.782 0-21.333 9.551-21.333 21.333v0 192c0 11.782 9.551 21.333 21.333 21.333v0h640c11.782 0 21.333-9.551 21.333-21.333v0-192c0-11.782-9.551-21.333-21.333-21.333v0zM213.333 768h597.333v149.333h-597.333zM475.669 100.395l234.722 234.722 30.17-30.17-234.722-234.722-30.17 30.17zM646.293 100.395l149.341 149.341 30.17-30.17-149.341-149.341-30.17 30.17z" />
<glyph unicode="&#xe905;" glyph-name="register" d="M149.333-64c-82.475 0-149.333 66.859-149.333 149.333v0 853.333c0 11.782 9.551 21.333 21.333 21.333v0h853.333c11.782 0 21.333-9.551 21.333-21.333v0-853.333h-42.667v832h-810.667v-832c0-58.91 47.756-106.667 106.667-106.667v0zM874.667-64h-725.333c-11.782 0-21.333 9.551-21.333 21.333s9.551 21.333 21.333 21.333v0c58.91 0 106.667 47.756 106.667 106.667v0c0 11.782 9.551 21.333 21.333 21.333v0h725.333c11.782 0 21.333-9.551 21.333-21.333v0c0-82.475-66.859-149.333-149.333-149.333v0zM253.653-21.333h621.013c0.006 0 0.014 0 0.022 0 51.359 0 94.24 36.297 104.39 84.639l0.122 0.695h-682.667c-4.74-33.692-20.241-63.114-42.857-85.311l-0.023-0.022zM981.333 597.333h42.667v-341.333h-42.667v341.333zM981.333 746.667h42.667v-85.333h-42.667v85.333zM234.667 661.333c-0.037 0-0.080 0-0.123 0-5.86 0-11.169 2.363-15.025 6.188l-85.332 85.332 30.293 30.293 70.187-70.4 134.187 134.4 30.293-30.293-149.333-149.333c-3.854-3.824-9.163-6.187-15.023-6.187-0.043 0-0.087 0-0.13 0h0.007zM234.667 405.333c-0.037 0-0.080 0-0.123 0-5.86 0-11.169 2.363-15.025 6.188l-85.332 85.332 30.293 30.293 70.187-70.4 134.187 134.4 30.293-30.293-149.333-149.333c-3.854-3.824-9.163-6.187-15.023-6.187-0.043 0-0.087 0-0.13 0h0.007zM234.667 149.333c-0.037 0-0.080 0-0.123 0-5.86 0-11.169 2.363-15.025 6.188l-85.332 85.332 30.293 30.293 70.187-70.4 134.187 134.4 30.293-30.293-149.333-149.333c-3.854-3.824-9.163-6.187-15.023-6.187-0.043 0-0.087 0-0.13 0h0.007zM469.333 746.667h192v-42.667h-192v42.667zM618.667 853.333h149.333v-42.667h-149.333v42.667zM469.333 853.333h106.667v-42.667h-106.667v42.667zM597.333 490.667h170.667v-42.667h-170.667v42.667zM469.333 490.667h85.333v-42.667h-85.333v42.667zM469.333 597.333h298.667v-42.667h-298.667v42.667zM469.333 234.667h128v-42.667h-128v42.667zM469.333 341.333h298.667v-42.667h-298.667v42.667z" />
<glyph unicode="&#xe906;" glyph-name="shop" d="M874.667-64h-725.333c-0.128-0.003-0.279-0.004-0.43-0.004-10.273 0-18.851 7.262-20.879 16.932l-0.024 0.139-85.333 426.667c-0.248 1.225-0.389 2.634-0.389 4.076 0 11.888 9.637 21.525 21.525 21.525 0.069 0 0.139 0 0.208-0.001h895.989c11.789-0.13 21.296-9.717 21.296-21.524 0-1.442-0.142-2.85-0.412-4.213l0.023 0.137-85.333-426.667c-2.054-9.807-10.631-17.067-20.902-17.067-0.002 0-0.003 0-0.005 0v0zM166.827-21.333h690.347l76.8 384h-843.947zM682.667-64h-341.333c-0.072-0.001-0.156-0.001-0.241-0.001-10.653 0-19.483 7.809-21.077 18.015l-0.015 0.12-64 426.667c-0.154 0.962-0.242 2.072-0.242 3.201 0 11.782 9.551 21.333 21.333 21.333 0.085 0 0.17 0 0.254-0.001h469.32c0.072 0.001 0.157 0.001 0.242 0.001 11.782 0 21.333-9.551 21.333-21.333 0-1.13-0.088-2.239-0.257-3.322l0.015 0.12-64-426.667c-1.61-10.326-10.439-18.135-21.092-18.135-0.085 0-0.169 0-0.254 0.001h0.013zM359.68-21.333h304.64l57.6 384h-419.84zM981.333 362.667h-938.667c-23.564 0-42.667 19.103-42.667 42.667v0 85.333c0 23.564 19.103 42.667 42.667 42.667v0h938.667c23.564 0 42.667-19.103 42.667-42.667v0-85.333c0-23.564-19.103-42.667-42.667-42.667v0zM42.667 490.667v-85.333h938.667v85.333zM682.667 789.333c-47.128 0-85.333 38.205-85.333 85.333s38.205 85.333 85.333 85.333c47.128 0 85.333-38.205 85.333-85.333v0c0-47.128-38.205-85.333-85.333-85.333v0zM682.667 917.333c-23.564 0-42.667-19.103-42.667-42.667s19.103-42.667 42.667-42.667c23.564 0 42.667 19.103 42.667 42.667v0c0 23.564-19.103 42.667-42.667 42.667v0zM341.333 789.333c-47.128 0-85.333 38.205-85.333 85.333s38.205 85.333 85.333 85.333c47.128 0 85.333-38.205 85.333-85.333v0c0-47.128-38.205-85.333-85.333-85.333v0zM341.333 917.333c-23.564 0-42.667-19.103-42.667-42.667s19.103-42.667 42.667-42.667c23.564 0 42.667 19.103 42.667 42.667v0c0 23.564-19.103 42.667-42.667 42.667v0zM108.928 457.536l184.833 369.585 38.161-19.084-184.833-369.585-38.161 19.084zM692.245 807.893l38.161 19.084 184.833-369.585-38.161-19.084-184.833 369.585zM490.667 384h42.667v-426.667h-42.667v426.667zM106.667 192h810.667v-42.667h-810.667v42.667z" />
<glyph unicode="&#xe907;" glyph-name="cart" horiz-adv-x="931" d="M884.364-64h-837.818c-0.031 0-0.068 0-0.105 0-25.706 0-46.545 20.839-46.545 46.545 0 1.097 0.038 2.186 0.113 3.264l-0.008-0.145 46.545 698.182c1.683 24.329 21.832 43.427 46.441 43.427 0.037 0 0.074 0 0.11 0h744.721c0.031 0 0.068 0 0.105 0 24.609 0 44.758-19.098 46.433-43.282l0.008-0.145 46.545-698.182c0.067-0.933 0.105-2.021 0.105-3.119 0-25.706-20.839-46.545-46.545-46.545-0.037 0-0.074 0-0.11 0h0.006zM96.303 29.091h738.304l-40.355 605.091h-657.594zM605.091 517.818c-25.706 0-46.545 20.839-46.545 46.545v0 209.455c0 51.413-41.678 93.091-93.091 93.091s-93.091-41.678-93.091-93.091v0-209.455c0-25.706-20.839-46.545-46.545-46.545s-46.545 20.839-46.545 46.545v0 209.455c0 102.825 83.356 186.182 186.182 186.182s186.182-83.356 186.182-186.182v0-209.455c0-25.706-20.839-46.545-46.545-46.545v0z" />
<glyph unicode="&#xe908;" glyph-name="trash" d="M959.978 703.983h-191.996v64.022c-0.119 105.988-86.007 191.876-191.984 191.996h-127.985c-105.988-0.119-191.876-86.007-191.996-191.984v-64.033h-191.996c-34.437-1.173-61.908-29.372-61.908-63.987s27.471-62.814 61.801-63.984l0.107-0.003h64.022v-575.987c0-0.021 0-0.045 0-0.070 0-35.32 28.632-63.952 63.952-63.952 0.025 0 0.049 0 0.074 0h640.005c0.021 0 0.045 0 0.070 0 35.32 0 63.952 28.632 63.952 63.952 0 0.025 0 0.049 0 0.074v-0.004 575.987h64.022c34.437 1.173 61.908 29.372 61.908 63.987s-27.471 62.814-61.801 63.984l-0.107 0.003zM383.991 768.004c0.040 35.342 28.68 63.982 64.018 64.022h127.978c35.342-0.040 63.982-28.68 64.022-64.018v-64.026h-256.017zM767.983 64.044h-511.965v511.965h511.965z" />
<glyph unicode="&#xe909;" glyph-name="requisition" horiz-adv-x="1142" d="M832.466 6.706v100.451h-99.152c-39.050 0-70.706 31.656-70.706 70.706s31.656 70.706 70.706 70.706h99.152v100.246c-0.022 0.652-0.034 1.419-0.034 2.188 0 38.672 31.35 70.022 70.022 70.022s70.022-31.35 70.022-70.022c0-0.769-0.012-1.536-0.037-2.299l0.003 0.111v-100.246h99.22c39.050 0 70.706-31.656 70.706-70.706s-31.656-70.706-70.706-70.706h-99.22v-100.451c0-38.653-31.335-69.988-69.988-69.988s-69.988 31.335-69.988 69.988v0zM69.953 107.157c-39.050 0-70.706 31.656-70.706 70.706s31.656 70.706 70.706 70.706h381.496c39.050 0 70.706-31.656 70.706-70.706s-31.656-70.706-70.706-70.706v0zM69.953 462.736c-38.129 1.223-68.574 32.426-68.574 70.74s30.445 69.517 68.462 70.737l0.112 0.003h888.948c38.129-1.223 68.574-32.426 68.574-70.74s-30.445-69.517-68.462-70.737l-0.112-0.003zM69.953 818.315c-38.092 1.222-68.507 32.395-68.507 70.671s30.415 69.449 68.395 70.669l0.112 0.003h888.948c39.031 0 70.671-31.641 70.671-70.671s-31.641-70.671-70.671-70.671v0z" />
<glyph unicode="&#xe90a;" glyph-name="wishlisted" horiz-adv-x="1145" d="M345.447 960c86.97-0.089 166.481-31.954 227.564-84.608l-0.453 0.382c60.585 52.319 140.101 84.188 227.062 84.188 95.474 0 181.976-38.415 244.892-100.631l-0.032 0.032 2.238-2.306c60.26-64.819 97.521-151.736 98.398-247.347l0.001-0.176c-0.017-95.463-38.444-181.947-100.667-244.842l0.031 0.031-403.904-398.885c-16.961-18.4-41.182-29.886-68.086-29.886s-51.125 11.486-68.028 29.822l-0.058 0.064-403.768 404.175c-62.676 62.541-101.452 149.012-101.452 244.54 0 190.785 154.662 345.447 345.447 345.447 0.286 0 0.573 0 0.859-0.001h-0.044z" />
<glyph unicode="&#xe90b;" glyph-name="wishlist" horiz-adv-x="1145" d="M345.447 960c86.97-0.089 166.481-31.954 227.564-84.608l-0.453 0.382c60.585 52.319 140.101 84.188 227.062 84.188 95.474 0 181.976-38.415 244.892-100.631l-0.032 0.032 2.238-2.306c60.26-64.819 97.521-151.736 98.398-247.347l0.001-0.176c-0.017-95.463-38.444-181.947-100.667-244.842l0.031 0.031-403.904-398.885c-16.961-18.4-41.182-29.886-68.086-29.886s-51.125 11.486-68.028 29.822l-0.058 0.064-403.768 404.175c-62.676 62.541-101.452 149.012-101.452 244.54 0 190.785 154.662 345.447 345.447 345.447 0.286 0 0.573 0 0.859-0.001h-0.044zM572.558 713.291c-18.725 0.004-35.675 7.597-47.945 19.869l-30.313 30.313c-37.828 36.576-89.427 59.117-146.29 59.117-116.291 0-210.564-94.273-210.564-210.564 0-56.914 22.58-108.554 59.271-146.45l-0.055 0.057 376.235-376.235 375.964 371.285c37.729 38.213 61.033 90.746 61.033 148.723 0 0.022 0 0.044 0 0.066v-0.003c-0.893 60.031-24.325 114.423-62.187 155.241l0.137-0.149c-38.196 36.993-90.329 59.794-147.787 59.794-58.073 0-110.705-23.291-149.066-61.042l-30.285-30.285c-12.259-12.196-29.161-19.735-47.824-19.735-0.114 0-0.228 0-0.342 0.001h0.018z" />
<glyph unicode="&#xe90c;" glyph-name="print" horiz-adv-x="1055" d="M837.824 770.688c0.006 0.572 0.010 1.247 0.010 1.924 0 103.070-83.212 186.704-186.121 187.388h-248.513c-102.69-0.326-185.85-83.485-186.176-186.145v-3.103c-122.191-16.877-215.498-119.905-217.022-245.026l-0.002-0.158v-248.256c0.326-102.69 83.485-185.85 186.145-186.176h31.071v-31.040c0.218-68.449 55.647-123.878 124.075-124.096h372.373c68.449 0.218 123.878 55.647 124.096 124.075v31.061h31.040c102.69 0.326 185.85 83.485 186.176 186.145v248.287c-0.617 125.649-94.481 229.186-215.903 244.987l-1.249 0.133zM403.2 835.904h248.256c34.286 0 62.080-27.794 62.080-62.080v0h-372.224c0 0 0 0 0 0 0 34.218 27.685 61.971 61.878 62.080h0.010zM713.472 60.16h-372.16v248.192h372.352zM930.688 277.376c0-34.286-27.794-62.080-62.080-62.080v0h-31.040v93.056c-0.218 68.449-55.647 123.878-124.075 124.096h-372.181c-68.449-0.218-123.878-55.647-124.096-124.075v-93.141h-31.040c-34.286 0-62.080 27.794-62.080 62.080v0 248.256c0.218 68.449 55.647 123.878 124.075 124.096h558.549c68.449-0.218 123.878-55.647 124.096-124.075v-0.021z" />
<glyph unicode="&#xe90d;" glyph-name="web" d="M512 960c-282.713 0-512-229.287-512-512s229.287-512 512-512 512 229.287 512 512-229.287 512-512 512zM553.183 27.27c-2.226 0-4.452 0-7.791-1.113v241.53c57.878 1.113 110.191 2.226 158.052 5.565-42.296-130.226-121.322-217.043-150.261-245.983zM470.817 27.27c-30.052 30.052-107.965 116.87-150.261 245.983 46.748-3.339 100.174-5.565 158.052-5.565v-241.53c-2.226 0-4.452 1.113-7.791 1.113zM89.043 448c0 27.826 3.339 55.652 7.791 82.365 24.487 4.452 71.235 11.13 136.904 17.809-5.565-32.278-8.904-65.67-8.904-101.287s3.339-69.009 7.791-100.174c-64.557 6.678-112.417 13.357-136.904 17.809-3.339 27.826-6.678 55.652-6.678 83.478zM292.73 448c0 37.843 4.452 73.461 11.13 106.852 51.2 3.339 109.078 6.678 174.748 6.678v-227.061c-64.557 1.113-123.548 3.339-175.861 7.791-5.565 32.278-10.017 67.896-10.017 105.739zM552.070 868.73c30.052-30.052 106.852-119.096 150.261-245.983-46.748 3.339-99.061 5.565-156.939 5.565v241.53c2.226 0 4.452-1.113 6.678-1.113zM478.609 869.843v-241.53c-57.878-1.113-110.191-2.226-156.939-5.565 42.296 126.887 120.209 215.93 149.148 245.983 3.339 0 5.565 1.113 7.791 1.113zM545.391 334.47v227.061c64.557-1.113 123.548-3.339 174.748-6.678 6.678-33.391 11.13-69.009 11.13-106.852s-3.339-73.461-10.017-106.852c-51.2-3.339-110.191-5.565-175.861-6.678zM789.148 548.174c65.67-6.678 112.417-13.357 136.904-17.809 5.565-26.713 8.904-54.539 8.904-82.365s-3.339-55.652-7.791-82.365c-24.487-4.452-71.235-11.13-136.904-17.809 5.565 32.278 7.791 65.67 7.791 101.287 0 33.391-3.339 67.896-8.904 99.061zM906.017 601.6c-31.165 4.452-75.687 10.017-132.452 15.583-26.713 95.722-73.461 172.522-112.417 227.061 112.417-42.296 201.461-131.339 244.87-242.643zM362.852 844.243c-40.070-53.426-85.704-130.226-112.417-225.948-55.652-4.452-100.174-11.13-132.452-15.583 43.409 110.191 133.565 199.235 244.87 241.53zM117.983 294.4c31.165-4.452 75.687-10.017 131.339-15.583 26.713-95.722 71.235-172.522 111.304-225.948-111.304 43.409-199.235 131.339-242.643 241.53zM663.374 52.87c40.070 53.426 84.591 129.113 111.304 224.835 55.652 4.452 100.174 11.13 131.339 15.583-43.409-109.078-131.339-197.009-242.643-240.417z" />
<glyph unicode="&#xe90e;" glyph-name="share" horiz-adv-x="951" d="M804.553 228.553c-49.058-0.085-92.443-24.297-118.933-61.399l-0.302-0.445-402.308 234.208c5.466 13.935 8.893 30.056 9.474 46.9l0.007 0.247c-0.089 11.32-1.405 22.286-3.823 32.831l0.196-1.018 405.999 237.008c26.946-30.447 66.12-49.545 109.755-49.545 80.821 0 146.34 65.519 146.34 146.34s-65.519 146.34-146.34 146.34c-80.739 0-146.206-65.385-146.34-146.093v-0.013c0.089-11.32 1.405-22.286 3.823-32.831l-0.196 1.018-405.999-237.071c-26.938 30.343-66.047 49.368-109.599 49.368-80.821 0-146.34-65.519-146.34-146.34s65.519-146.34 146.34-146.34c37.223 0 71.201 13.898 97.026 36.787l-0.153-0.133 414.779-241.398v-14.634c0-80.821 65.519-146.34 146.34-146.34s146.34 65.519 146.34 146.34c0 80.821-65.519 146.34-146.34 146.34v0zM804.553 886.894c0.038 0 0.082 0 0.127 0 40.411 0 73.17-32.759 73.17-73.17s-32.759-73.17-73.17-73.17c-40.411 0-73.17 32.759-73.17 73.17 0 0.067 0 0.134 0 0.201v-0.010c0.036 40.339 32.709 73.034 73.036 73.106h0.007zM146.149 374.894c-40.411 0-73.17 32.759-73.17 73.17s32.759 73.17 73.17 73.17c40.411 0 73.17-32.759 73.17-73.17v0c0-40.411-32.759-73.17-73.17-73.17v0zM804.49 9.106c-40.329 0.109-72.979 32.826-72.979 73.17 0 40.411 32.759 73.17 73.17 73.17s73.17-32.759 73.17-73.17c0-0.022 0-0.045 0-0.067v0.003c-0.072-40.356-32.804-73.043-73.17-73.043-0.045 0-0.090 0-0.134 0h0.007z" />
<glyph unicode="&#xe90f;" glyph-name="hotline" d="M752.958 313.982c-15.307 8.712-31.279 13.325-46.227 13.325-22.225 0-40.419-10.182-51.437-28.7-17.425-20.841-39.035-45.202-44.28-48.977-40.59-27.538-72.364-24.412-107.522 10.745l-196.217 196.234c-34.935 34.935-38.147 67.103-10.797 107.47 3.827 5.279 28.187 26.906 49.029 44.348 13.291 7.91 22.413 19.663 26.411 34.081 5.313 19.184 1.401 41.751-11.138 63.737-2.955 5.057-73.304 124.195-138.118 158.481-12.095 6.406-25.727 9.789-39.394 9.789-22.516 0-43.699-8.781-59.62-24.685l-43.357-43.34c-68.572-68.555-93.394-146.266-73.816-230.965 16.332-70.588 63.925-145.702 141.483-223.243l251.208-251.208c98.16-98.16 191.742-147.94 278.148-147.94 0 0 0 0 0 0 63.567 0 122.794 27.009 176.059 80.257l43.34 43.34c26.325 26.325 32.304 66.112 14.897 99.014-34.286 64.848-153.407 135.162-158.651 138.237zM1006.917 310.788c-63.037 0-114.338 51.301-114.338 114.338 0 9.447-7.636 17.083-17.083 17.083s-17.083-7.636-17.083-17.083c0-81.897 66.607-148.504 148.504-148.504 9.447 0 17.083 7.636 17.083 17.083s-7.636 17.083-17.083 17.083zM994.173 350.78c9.447 0 17.083 7.636 17.083 17.083s-7.636 17.083-17.083 17.083c-15.136 0-27.419 12.3-27.419 27.419 0 9.447-7.636 17.083-17.083 17.083s-17.083-7.636-17.083-17.083c0-33.944 27.624-61.585 61.585-61.585zM340.673 908.699c63.054 0 114.338-51.301 114.338-114.338 0-9.447 7.653-17.083 17.083-17.083s17.083 7.636 17.083 17.083c0 81.897-66.624 148.504-148.504 148.504-9.43 0-17.083-7.636-17.083-17.083s7.653-17.083 17.083-17.083zM336.351 851.607c0-9.447 7.653-17.083 17.083-17.083 15.119 0 27.401-12.3 27.401-27.419 0-9.447 7.653-17.083 17.083-17.083s17.083 7.636 17.083 17.083c0 33.961-27.624 61.585-61.568 61.585-9.43 0-17.083-7.636-17.083-17.083z" />
<glyph unicode="&#xe910;" glyph-name="email" d="M874.039 810.039c-96.703 96.703-225.28 149.961-362.039 149.961s-265.336-53.258-362.039-149.961c-96.705-96.705-149.961-225.278-149.961-362.039s53.256-265.334 149.961-362.039c96.703-96.703 225.28-149.961 362.039-149.961 69.102 0 136.159 13.542 199.308 40.253l-32.234 76.21c-52.894-22.373-109.107-33.715-167.073-33.715-236.691 0-429.253 192.562-429.253 429.253s192.562 429.253 429.253 429.253 429.253-192.562 429.253-429.253c0-99.601-58.010-144.185-115.501-144.185-57.493 0-115.503 44.582-115.503 144.185 0 109.316-88.933 198.248-198.248 198.248s-198.248-88.935-198.248-198.248 88.933-198.248 198.248-198.248c59.061 0 112.162 25.97 148.513 67.079 37.441-63.211 101.587-95.762 165.238-95.762 98.517-0.002 198.248 77.948 198.248 226.931 0 136.761-53.256 265.334-149.961 362.039zM512 332.499c-63.687 0-115.501 51.814-115.501 115.501s51.814 115.501 115.501 115.501 115.501-51.814 115.501-115.501-51.814-115.501-115.501-115.501z" />
<glyph unicode="&#xe911;" horiz-adv-x="1023" d="M-219.961 1375.206h1720.945v-1720.955h-1720.945v1720.955z" />
<glyph unicode="&#xe912;" horiz-adv-x="1023" d="M463.807 960h-448.159c-0.003 0-0.006 0-0.010 0-8.637 0-15.638-7.001-15.638-15.638 0-0.003 0-0.007 0-0.010v0.001-47.777c0-0.027 0-0.060 0-0.092 0-11.955 6.577-22.374 16.311-27.836l0.161-0.083 31.305-739.79c0.022-17.735 14.394-32.107 32.127-32.129h319.645c0.048 0 0.105 0 0.162 0 17.424 0 31.592 13.937 31.966 31.271l0.001 0.035 31.305 740.614c9.894 5.544 16.472 15.963 16.472 27.919 0 0.032 0 0.065 0 0.097v-0.005 47.777c-0.295 8.521-7.127 15.353-15.62 15.647l-0.027 0.001zM32.129 927.871h416.030v-32.129h-416.030zM399.549 127.95l-319.643 0.824-31.305 734.839h382.254z" />
<glyph unicode="&#xe913;" horiz-adv-x="1023" d="M351.762-64h-224.079c-26.378 0.022-47.755 21.399-47.777 47.775v64.27c0 0.003 0 0.006 0 0.010 0 8.637 7.001 15.638 15.638 15.638 0.003 0 0.007 0 0.010 0h224.079c0.003 0 0.006 0 0.010 0 8.637 0 15.638-7.001 15.638-15.638 0-0.003 0-0.007 0-0.010v0.001c-0.295-8.521-7.127-15.353-15.62-15.647l-0.027-0.001h-207.598v-47.777c0-0.003 0-0.006 0-0.010 0-8.637 7.001-15.638 15.638-15.638 0.003 0 0.007 0 0.010 0h224.079c0.003 0 0.006 0 0.010 0 8.637 0 15.638 7.001 15.638 15.638 0 0.003 0 0.007 0 0.010v-0.001 64.258c0 8.645 7.008 15.653 15.653 15.653s15.653-7.008 15.653-15.653v0-64.258c0.022-0.541 0.035-1.175 0.035-1.812 0-25.851-20.957-46.808-46.808-46.808-0.063 0-0.127 0-0.19 0h0.010z" />
<glyph unicode="&#xe914;" horiz-adv-x="1023" d="M991.047 157.599v34.6c8.645 0 15.653 7.008 15.653 15.653s-7.008 15.653-15.653 15.653v0 47.777c0 0.006 0 0.013 0 0.019 0 8.637-7.001 15.638-15.638 15.638-0.007 0-0.014 0-0.020 0h-463.806c-0.003 0-0.006 0-0.010 0-8.637 0-15.638-7.001-15.638-15.638 0-0.003 0-0.007 0-0.010v0.001-47.777c-8.645 0-15.653-7.008-15.653-15.653s7.008-15.653 15.653-15.653v0-34.6c-18.842-6.515-32.132-24.104-32.132-44.796 0-0.179 0.001-0.358 0.003-0.537v0.027-127.663c0.022-26.378 21.399-47.755 47.775-47.777h463.809c26.378 0.022 47.755 21.399 47.777 47.775v127.656c-0.017 20.816-13.263 38.533-31.784 45.201l-0.335 0.105zM991.047-15.4c0-0.003 0-0.006 0-0.010 0-8.637-7.001-15.638-15.638-15.638-0.003 0-0.007 0-0.010 0h-463.816c-0.003 0-0.006 0-0.010 0-8.637 0-15.638 7.001-15.638 15.638 0 0.003 0 0.007 0 0.010v-0.001 127.692c0 0.003 0 0.006 0 0.010 0 8.637 7.001 15.638 15.638 15.638 0.003 0 0.007 0 0.010 0h367.419c8.645 0 15.653 7.008 15.653 15.653s-7.008 15.653-15.653 15.653v0h-351.762v32.129h319.643c8.645 0 15.653 7.008 15.653 15.653s-7.008 15.653-15.653 15.653v0h-319.643v32.129h431.678v-32.129h-47.777c-8.645 0-15.653-7.008-15.653-15.653s7.008-15.653 15.653-15.653v0h47.777v-32.129h-15.648c-8.645 0-15.653-7.008-15.653-15.653s7.008-15.653 15.653-15.653v0h32.119c0.003 0 0.006 0 0.010 0 8.637 0 15.638-7.001 15.638-15.638 0-0.003 0-0.007 0-0.010v0.001z" />
<glyph unicode="&#xe915;" horiz-adv-x="1023" d="M943.271 319.901c-0.003 0-0.006 0-0.010 0-8.637 0-15.638 7.001-15.638 15.638 0 0.003 0 0.007 0 0.010v-0.001c0 20.599-14.001 25.54-60.964 31.305-11.53 1.647-23.893 2.471-35.423 4.941-32.129 8.236-76.612 18.952-86.504 59.317-51.081-1.647-184.538-14.001-184.538-95.563 0-8.645-7.008-15.653-15.653-15.653s-15.653 7.008-15.653 15.653v0c0 79.906 86.504 127.692 230.668 127.692 0.003 0 0.006 0 0.010 0 8.637 0 15.638-7.001 15.638-15.638 0-0.003 0-0.007 0-0.010v0.001c0-23.893 20.599-32.943 63.434-44.483 9.883-1.647 21.423-3.294 32.129-4.941 39.541-4.941 89.798-10.706 89.798-63.434-1.705-8.251-8.723-14.429-17.253-14.832l-0.042-0.002z" />
<glyph unicode="&#xe916;" horiz-adv-x="1023" d="M607.147 319.891v0c-0.003 0-0.006 0-0.010 0-8.637 0-15.638 7.001-15.638 15.638 0 0.003 0 0.007 0 0.010v-0.001c-0.006 0.271-0.009 0.59-0.009 0.91 0 25.889 20.987 46.876 46.876 46.876 0.32 0 0.639-0.003 0.958-0.010l-0.048 0.001c8.645 0 15.653-7.008 15.653-15.653s-7.008-15.653-15.653-15.653v0c-0.43 0.046-0.928 0.072-1.433 0.072-7.941 0-14.379-6.438-14.379-14.379 0-0.764 0.060-1.514 0.174-2.246l-0.010 0.081c-0.399-8.725-7.57-15.648-16.358-15.648-0.043 0-0.086 0-0.129 0h0.007z" />
<glyph unicode="&#xe917;" horiz-adv-x="1009" d="M-202.744 1297.644h1645.648v-1645.658h-1645.648v1645.658z" />
<glyph unicode="&#xe918;" horiz-adv-x="1009" d="M137.266 391.991v33.133h46.541v-33.133h34.729v-46.541h-34.72v-31.547h-46.55v31.547h-34.711v46.541z" />
<glyph unicode="&#xe919;" horiz-adv-x="1009" d="M865.431 705.204c-4.334 0.041-8.239 1.845-11.038 4.728l-32.349 32.349c-2.731 2.731-4.42 6.503-4.42 10.67 0 8.334 6.756 15.090 15.090 15.090 4.167 0 7.939-1.689 10.67-4.42v0l32.345-32.345c2.926-2.637 4.757-6.44 4.757-10.67s-1.831-8.033-4.745-10.659l-0.013-0.011c-2.351-2.9-5.913-4.738-9.904-4.738-0.139 0-0.277 0.002-0.415 0.007l0.020-0.001z" />
<glyph unicode="&#xe91a;" horiz-adv-x="1009" d="M448.865 159.268h-63.882c-0.003 0-0.006 0-0.009 0-8.271 0-14.975-6.705-14.975-14.975 0-0.003 0-0.007 0-0.010v0.001c0.282-8.16 6.825-14.702 14.958-14.984l0.026-0.001h63.882c26.098 0.089 47.231 21.222 47.32 47.312v384.221c-0.089 26.098-21.222 47.231-47.312 47.32h-63.891c-0.003 0-0.006 0-0.009 0-8.271 0-14.975-6.705-14.975-14.975 0-0.003 0-0.007 0-0.010v0.001c0.282-8.16 6.825-14.702 14.958-14.984l0.026-0.001h63.882c9.123-0.073 16.498-7.449 16.571-16.564v-384.201c0.046-0.464 0.072-1.004 0.072-1.55 0-9.167-7.432-16.599-16.599-16.599-0.016 0-0.031 0-0.047 0h0.002z" />
<glyph unicode="&#xe91b;" horiz-adv-x="1009" d="M1009.006 720.959c-0.046 79.265-64.313 143.504-143.584 143.504-79.299 0-143.584-64.285-143.584-143.584 0-73.742 55.591-134.501 127.151-142.654l0.66-0.061v-250.073c0-0.032 0-0.070 0-0.109 0-31.897-16.889-59.85-42.213-75.403l-0.384-0.22c5.443 22.729 8.601 48.842 8.675 75.681v0.050c0 48.364-39.207 87.57-87.57 87.57s-87.57-39.207-87.57-87.57v0c-0.020-0.81-0.032-1.764-0.032-2.721 0-49.109 30.395-91.118 73.399-108.242l0.787-0.276c1.375-0.52 2.965-0.822 4.625-0.822 0.332 0 0.66 0.012 0.986 0.036l-0.044-0.003c6.341 0.058 11.773 3.894 14.157 9.364l0.039 0.101c0.676 1.654 1.068 3.574 1.068 5.585 0 6.42-3.998 11.907-9.641 14.106l-0.103 0.035c-32.191 13.103-54.471 44.149-54.471 80.398 0 0.858 0.012 1.713 0.037 2.565l-0.003-0.125c0 31.371 25.431 56.803 56.803 56.803s56.803-25.431 56.803-56.803v0c0-0.045 0-0.099 0-0.152 0-110.47-60.416-206.83-150.009-257.839l-1.462-0.766c-12.117-6.869-26.422-13.514-41.273-19.037l-2.113-0.689c0.523 3.557 0.821 7.663 0.821 11.838 0 0.829-0.012 1.655-0.035 2.479l0.003-0.121v513.582h16.571c0.003 0 0.006 0 0.009 0 8.271 0 14.975 6.705 14.975 14.975 0 0.003 0 0.007 0 0.010v-0.001 63.901c0 8.278-6.711 14.989-14.989 14.989s-14.989-6.711-14.989-14.989v0-48.916h-33.171v48.916c0 0.003 0 0.006 0 0.009 0 8.271-6.705 14.975-14.975 14.975-0.003 0-0.007 0-0.010 0h0.001c-8.16-0.282-14.702-6.825-14.984-14.958l-0.001-0.026v-63.901c0-0.003 0-0.006 0-0.009 0-8.271 6.705-14.975 14.975-14.975 0.003 0 0.007 0 0.010 0h16.599v-513.573c0-0.019 0-0.042 0-0.065 0-53.555-43.415-96.969-96.969-96.969-0.023 0-0.046 0-0.069 0h-319.566c-26.956 0.147-48.77 21.96-48.916 48.902v32.359c0 8.278-6.711 14.989-14.989 14.989s-14.989-6.711-14.989-14.989v0-32.345c0.158-43.944 35.739-79.526 79.668-79.683h320.308c52.313 0.195 97.252 31.564 117.223 76.488l0.325 0.82c25.987 7.817 48.47 17.469 69.573 29.291l-1.729-0.89c66.849 38.446 118.006 97.764 145.192 168.929l0.758 2.259c49.655 14.898 85.215 60.19 85.215 113.788 0 0.22-0.001 0.439-0.002 0.658v-0.034 250.853c71.851 8.585 127.022 69.163 127.022 142.626 0 0.056 0 0.113 0 0.169v-0.009zM865.422 608.151c-62.307 0-112.817 50.51-112.817 112.817s50.51 112.817 112.817 112.817c62.307 0 112.817-50.51 112.817-112.817v0c0-0.008 0-0.018 0-0.028 0-62.292-50.497-112.789-112.789-112.789-0.010 0-0.020 0-0.029 0h0.002z" />
<glyph unicode="&#xe91c;" horiz-adv-x="1009" d="M176.709 0.69h321.082c8.303 0.098 14.997 6.852 14.997 15.169 0 0.212-0.004 0.424-0.013 0.634l0.001-0.030c0 0.003 0 0.006 0 0.009 0 8.271-6.705 14.975-14.975 14.975-0.003 0-0.007 0-0.010 0h-321.081c-9.123 0.073-16.498 7.449-16.571 16.564v0.007c0 8.278-6.711 14.989-14.989 14.989s-14.989-6.711-14.989-14.989v0c-0.007-0.304-0.011-0.662-0.011-1.021 0-25.576 20.733-46.309 46.309-46.309 0.089 0 0.177 0 0.266 0.001h-0.014z" />
<glyph unicode="&#xe91d;" horiz-adv-x="1009" d="M577.483 641.284c-61.535 0-111.24 64.69-111.24 143.584s49.705 143.575 111.24 143.575 111.24-64.69 111.24-143.584-49.714-143.575-111.24-143.575zM577.483 897.677c-44.175 0-80.472-50.493-80.472-112.817s35.499-112.817 80.472-112.817 80.472 50.493 80.472 112.817-36.297 112.817-80.472 112.817z" />
<glyph unicode="&#xe91e;" horiz-adv-x="1009" d="M577.474 897.677c-0.003 0-0.006 0-0.009 0-8.271 0-14.975 6.705-14.975 14.975 0 0.010 0 0.020 0 0.029v-0.002 32.335c0 0.003 0 0.006 0 0.009 0 8.271 6.705 14.975 14.975 14.975 0.003 0 0.007 0 0.010 0h-0.001c8.16-0.282 14.702-6.825 14.984-14.958l0.001-0.026v-32.335c-0.272-8.168-6.819-14.72-14.958-15.003l-0.026-0.001z" />
<glyph unicode="&#xe91f;" horiz-adv-x="1025" d="M56.983 619.771h173.417v-505.391h-173.417v505.391z" />
<glyph unicode="&#xe920;" horiz-adv-x="1025" d="M403.817 639.584v0c-0.892 0.521-1.964 0.829-3.108 0.829-0.068 0-0.136-0.001-0.204-0.003h0.010c-0.826 0-2.477 0.826-3.302 0.826h-0.826c-0.826 0-1.651 0-1.651-0.826-0.826 0-2.477-0.826-3.302-0.826s-1.651-0.826-2.477-1.651-1.651-0.826-2.477-1.651-1.651-1.651-1.651-2.477-0.826-0.826-1.651-1.651c-4.953-11.558-126.35-289.86-19.823-497.135 52.030-101.573 150.301-168.464 292.347-197.368h3.302c0.051-0.001 0.112-0.001 0.172-0.001 7.537 0 13.849 5.241 15.493 12.277l0.021 0.108v3.302c0.008 0.193 0.013 0.418 0.013 0.645 0 5.028-2.258 9.529-5.816 12.544l-0.024 0.020c-193.279 151.952-241.958 528.516-252.7 632.566 71.873-36.335 279.118-156.080 312.986-344.367 1.602-7.705 8.335-13.412 16.401-13.412 0.917 0 1.816 0.074 2.692 0.215l-0.096-0.013c7.709 1.297 13.509 7.922 13.509 15.901 0 1.095-0.109 2.165-0.318 3.2l0.017-0.103c-45.387 243.619-344.328 373.271-357.537 379.050zM391.434 148.228c-69.367 136.257-32.207 310.499-3.302 403.817 15.686-131.303 66.045-411.257 213.889-569.804-99.106 32.207-170.124 87.539-210.587 165.987z" />
<glyph unicode="&#xe921;" horiz-adv-x="1025" d="M479.798-31.793h-416.21v832.411h432.722v-160.159c0-8.666 7.025-15.691 15.691-15.691s15.691 7.025 15.691 15.691v0 160.159h15.686c0.003 0 0.006 0 0.010 0 8.658 0 15.676 7.018 15.676 15.676 0 0.003 0 0.007 0 0.010v-0.001 64.423c0 0.003 0 0.006 0 0.010 0 8.658-7.018 15.676-15.676 15.676-0.003 0-0.007 0-0.010 0h-15.685v47.902c0 0.003 0 0.006 0 0.010 0 8.658-7.018 15.676-15.676 15.676-0.003 0-0.007 0-0.010 0h-464.937c-0.003 0-0.006 0-0.010 0-8.658 0-15.676-7.018-15.676-15.676 0-0.003 0-0.007 0-0.010v0.001-47.892h-15.695c-0.003 0-0.006 0-0.010 0-8.658 0-15.676-7.018-15.676-15.676 0-0.007 0-0.014 0-0.021v0.001-64.413c0-0.003 0-0.006 0-0.010 0-8.658 7.018-15.676 15.676-15.676 0.003 0 0.007 0 0.010 0h15.685v-848.932c0-0.003 0-0.006 0-0.010 0-8.658 7.018-15.676 15.676-15.676 0.003 0 0.007 0 0.010 0h432.741c0.003 0 0.006 0 0.010 0 8.658 0 15.676 7.018 15.676 15.676 0 0.003 0 0.007 0 0.010v-0.001c0.008 0.189 0.013 0.41 0.013 0.632 0 8.706-7.007 15.776-15.689 15.879h-0.010zM31.381 865.031h95.795c0.003 0 0.006 0 0.010 0 8.658 0 15.676 7.018 15.676 15.676 0 0.003 0 0.007 0 0.010v-0.001c-0.296 8.542-7.144 15.39-15.658 15.685l-0.028 0.001h-64.413v32.216h432.722v-47.892c0-0.003 0-0.006 0-0.010 0-8.658 7.018-15.676 15.676-15.676 0.003 0 0.007 0 0.010 0h15.685v-32.207h-495.474z" />
<glyph unicode="&#xe922;" horiz-adv-x="1025" d="M1024.787 390.196v1.651c0 1.651-0.826 3.302-0.826 4.953-0.063 0.885-0.766 1.588-1.645 1.651h-0.006c-0.826 0.826-1.651 2.477-2.477 3.302 0 0.006 0 0.013 0 0.020 0 0.445-0.361 0.806-0.806 0.806-0.007 0-0.014 0-0.021 0h0.001c-0.826 0-0.826 0.826-1.651 0.826-0.826 0.826-1.651 0.826-1.651 1.651h-1.651c-0.826 0-1.651 0.826-2.477 0.826h-5.828c-9.081-1.651-220.474-45.416-321.241-198.194-48.718-73.495-62.762-160.208-41.288-257.654 0-0.826 0.826-1.651 0.826-2.477s0-0.826 0.826-1.651c0-0.006 0-0.013 0-0.020 0-0.445 0.361-0.806 0.806-0.806 0.007 0 0.014 0 0.021 0h-0.001c0-0.826 0.826-0.826 0.826-1.651l2.477-2.477c0.826 0 0.826-0.826 1.651-0.826 0.826-0.826 1.651-0.826 2.477-1.651 0.826 0 0.826-0.826 1.651-0.826 1.107-0.526 2.405-0.833 3.775-0.833 0.124 0 0.248 0.003 0.371 0.008l-0.018-0.001h3.302c95.795 0 175.068 30.556 235.354 91.667 128.924 131.294 127.224 352.613 127.224 361.704zM711.073 189.516c71.018 108.178 206.449 158.557 268.386 176.768-38.85-80.099-156.080-298.116-308.858-388.131-13.258 79.235 0.787 150.262 40.472 211.364zM873.757 51.598c-39.25-39.97-90.946-67.598-148.804-76.605l-1.497-0.192c120.571 88.384 213.879 240.307 261.781 331.974-9.984-74.31-38.034-181.673-111.529-255.167z" />
<glyph unicode="&#xe923;" horiz-adv-x="1111" d="M20.418 515.776h325v-419.725h-325v419.725z" />
<glyph unicode="&#xe924;" horiz-adv-x="1111" d="M15.51 430.857h63.694v-80.021h80.021v-95.541h-80.021v-79.204h-63.694z" />
<glyph unicode="&#xe925;" horiz-adv-x="1111" d="M537.316 681.541c-27.765 27.794-99.632 77.581-122.49 93.101v23.674h16.327c9.017 0 16.327 7.31 16.327 16.327s-7.31 16.327-16.327 16.327h-16.327v31.857h16.327c9.017 0 16.327 7.31 16.327 16.327s-7.31 16.327-16.327 16.327h-16.327v48.193c-0.033 9.004-7.323 16.294-16.324 16.327h-222.941c-9.004-0.033-16.294-7.323-16.327-16.324v-48.177h-16.327c-9.017 0-16.327-7.31-16.327-16.327s7.31-16.327 16.327-16.327h16.327v-31.847h-16.327c-9.017 0-16.327-7.31-16.327-16.327s7.31-16.327 16.327-16.327h16.327v-24.5c-22.867-15.51-94.724-65.307-122.49-93.092-24.5-24.519-36.745-49.019-36.745-75.142v-605.918c0.044-35.16 28.534-63.65 63.69-63.694h398.494c9.017 0 16.327 7.31 16.327 16.327s-7.31 16.327-16.327 16.327h-398.49c-17.58 0.022-31.825 14.267-31.847 31.845v605.92c0 17.153 8.98 34.296 26.949 52.265 30.214 30.214 124.122 93.092 124.939 93.908 4.12 3.021 6.888 7.678 7.342 12.995l0.005 0.067v31.847h31.847c9.017 0 16.327 7.31 16.327 16.327s-7.31 16.327-16.327 16.327h-31.809v31.885h63.694c9.017 0 16.327 7.31 16.327 16.327s-7.31 16.327-16.327 16.327h-63.694v31.828h191.12v-31.828h-63.771c-9.017 0-16.327-7.31-16.327-16.327s7.31-16.327 16.327-16.327h63.694v-31.847h-95.541c-9.017 0-16.327-7.31-16.327-16.327s7.31-16.327 16.327-16.327h95.541v-31.847c-0.016-0.245-0.024-0.532-0.024-0.821 0-5.279 2.953-9.867 7.298-12.204l0.074-0.036c0.816-0.816 94.724-62.878 124.939-93.908 17.969-17.969 26.949-35.112 26.949-52.265v-95.541c0-9.017 7.31-16.327 16.327-16.327s16.327 7.31 16.327 16.327v95.502c0.010 25.316-12.216 50.632-36.735 75.123z" />
<glyph unicode="&#xe926;" horiz-adv-x="1111" d="M220.48 726.459c-2.873 4.205-7.645 6.929-13.054 6.929-3.383 0-6.517-1.066-9.085-2.881l0.049 0.033c-43.477-30.905-81.561-61.991-117.482-95.374l0.707 0.649c-12.245-12.245-17.969-22.089-17.969-30.214v-31.847c0-9.017 7.31-16.327 16.327-16.327s16.327 7.31 16.327 16.327v0 29.398c2.535 3.989 5.226 7.458 8.204 10.656l-0.040-0.044c33.735 31.487 70.248 61.246 108.685 88.468l3.25 2.185c4.040 3.047 6.625 7.838 6.625 13.233 0 3.266-0.947 6.311-2.583 8.875l0.040-0.067z" />
<glyph unicode="&#xe927;" horiz-adv-x="1111" d="M79.204 48.694c-9.006-0.027-16.3-7.321-16.327-16.324v-0.003c0.022-17.58 14.267-31.825 31.845-31.847h64.512c9.017 0 16.327 7.31 16.327 16.327s-7.31 16.327-16.327 16.327h-63.703c-0.391 8.653-7.501 15.52-16.215 15.52-0.039 0-0.078 0-0.118 0h0.006z" />
<glyph unicode="&#xe928;" horiz-adv-x="1111" d="M632.031 452.082c-79.323-0.12-143.595-64.392-143.715-143.703v-222.94c-0.002-0.256-0.003-0.558-0.003-0.86 0-67.321 45.108-124.107 106.748-141.783l1.041-0.255c1.633 0 2.449-0.816 4.082-0.816 0.051-0.001 0.11-0.001 0.17-0.001 7.453 0 13.695 5.182 15.32 12.14l0.021 0.106c0.277 1.131 0.436 2.43 0.436 3.767 0 7.461-4.952 13.765-11.748 15.805l-0.117 0.030c-48.723 14.881-83.637 59.234-84.112 111.812v95.596h80.021c9.017 0 16.327 7.31 16.327 16.327s-7.31 16.327-16.327 16.327h-80.011v95.541c0 61.793 50.093 111.887 111.887 111.887s111.887-50.093 111.887-111.887v0-31.885c0-9.017 7.31-16.327 16.327-16.327s16.327 7.31 16.327 16.327v31.847c-0.858 79.13-65.204 142.946-144.456 142.946-0.037 0-0.073 0-0.11 0h0.006z" />
<glyph unicode="&#xe929;" horiz-adv-x="1111" d="M632.031 388.388c-44.163-0.076-79.944-35.857-80.021-80.013v-0.007c0-9.017 7.31-16.327 16.327-16.327s16.327 7.31 16.327 16.327v0c0.055 26.584 21.59 48.119 48.169 48.174h0.005c9.004 0.033 16.294 7.323 16.327 16.324v0.003c-0.765 8.727-8.039 15.522-16.9 15.522-0.082 0-0.164-0.001-0.246-0.002h0.012z" />
<glyph unicode="&#xe92a;" horiz-adv-x="1111" d="M966.827 229.153h-222.929c-79.374 0-143.719-64.345-143.719-143.719s64.345-143.719 143.719-143.719h222.929c79.374 0 143.719 64.345 143.719 143.719s-64.345 143.719-143.719 143.719v0zM632.031 85.439c0.098 61.743 50.124 111.769 111.858 111.868h95.551v-222.929h-95.541c-61.498 0.004-111.405 49.627-111.867 111.017v0.044zM966.827-25.613h-95.541v222.919h95.541c61.56 0 111.464-49.904 111.464-111.464s-49.904-111.464-111.464-111.464v0z" />
<glyph unicode="&#xe92b;" horiz-adv-x="1111" d="M743.899 165.459c-44.163-0.076-79.944-35.857-80.021-80.013v-0.007c0-9.017 7.31-16.327 16.327-16.327s16.327 7.31 16.327 16.327v0c0.055 26.584 21.59 48.119 48.169 48.174h0.005c0.137-0.004 0.297-0.007 0.459-0.007 8.81 0 15.952 7.142 15.952 15.952s-7.142 15.952-15.952 15.952c-0.449 0-0.893-0.019-1.333-0.055l0.058 0.004z" />
<glyph unicode="&#xe92c;" d="M933.786 347.359c40.992-40.992 66.346-97.622 66.346-160.173 0-125.103-101.416-226.519-226.519-226.519-62.552 0-119.181 25.354-160.173 66.346v0z" />
<glyph unicode="&#xe92d;" d="M543.931-31.251h-496.020c-26.424 0.090-47.821 21.487-47.911 47.902v895.438c0.090 26.424 21.487 47.821 47.902 47.911h575.881c26.424-0.090 47.821-21.487 47.911-47.902v-431.349c0-8.82-7.15-15.97-15.97-15.97s-15.97 7.15-15.97 15.97v0 431.34c-0.032 8.807-7.163 15.938-15.967 15.97h-575.875c-8.807-0.032-15.938-7.163-15.97-15.967v-895.404c0.032-8.807 7.163-15.938 15.967-15.97h496.023c8.82 0 15.97-7.15 15.97-15.97s-7.15-15.97-15.97-15.97v0z" />
<glyph unicode="&#xe92e;" d="M948.921 373.682c-46.315 46.269-110.274 74.883-180.916 74.883s-134.601-28.615-180.918-74.885l0.002 0.002c-46.389-46.407-75.079-110.508-75.079-181.31s28.691-134.903 75.080-181.311l-0.001 0.001c46.423-46.79 110.753-75.756 181.848-75.756 141.46 0 256.136 114.676 256.136 256.136 0 71.291-29.126 135.78-76.127 182.215l-0.026 0.025zM609.447 350.515c40.199 40.457 95.871 65.499 157.393 65.499 0.267 0 0.535 0 0.802-0.001h-0.041c0.223 0.001 0.487 0.001 0.751 0.001 55.894 0 106.907-20.901 145.649-55.314l-0.225 0.196-315.508-315.461c-34.104 38.85-54.962 90.062-55.116 146.143v0.032c0.304 62.103 25.581 118.243 66.295 158.942l0.001 0.001zM926.553 34.208c-40.463-40.473-96.367-65.506-158.118-65.506-56.404 0-107.931 20.886-147.267 55.347l0.257-0.221 315.508 315.508c33.889-39.185 54.534-90.64 54.534-146.916 0-61.661-24.786-117.534-64.938-158.197l0.023 0.023z" />
<glyph unicode="&#xe92f;" d="M607.841 192.399c0.261 88.128 71.632 159.499 159.735 159.76h0.025c8.82 0 15.97 7.15 15.97 15.97s-7.15 15.97-15.97 15.97v0c-105.862-0.027-191.674-85.838-191.701-191.698v-0.003c0-8.82 7.15-15.97 15.97-15.97s15.97 7.15 15.97 15.97v0z" />
<glyph unicode="&#xe930;" d="M336.27 16.669c-8.807 0.032-15.938 7.163-15.97 15.967v831.513c0 8.82 7.15 15.97 15.97 15.97s15.97-7.15 15.97-15.97v-831.501c-0.027-8.811-7.16-15.948-15.967-15.98h-0.003z" />
<glyph unicode="&#xe931;" d="M175.711 720.407c-35.281 0-63.881 28.601-63.881 63.881s28.601 63.881 63.881 63.881c35.281 0 63.881-28.601 63.881-63.881v0c-0.117-35.234-28.648-63.764-63.87-63.881h-0.011zM175.711 816.229c-17.64 0-31.941-14.3-31.941-31.941s14.3-31.941 31.941-31.941c17.64 0 31.941 14.3 31.941 31.941v0c-0.059 17.617-14.324 31.882-31.935 31.941h-0.006z" />
<glyph unicode="&#xe932;" d="M175.711 400.108c-35.281 0-63.881 28.601-63.881 63.881s28.601 63.881 63.881 63.881c35.281 0 63.881-28.601 63.881-63.881v0c0.003-0.239 0.005-0.521 0.005-0.804 0-34.84-28.243-63.083-63.083-63.083-0.283 0-0.565 0.002-0.846 0.006h0.043zM175.711 496.757c-17.64 0-31.941-14.3-31.941-31.941s14.3-31.941 31.941-31.941c17.64 0 31.941 14.3 31.941 31.941v0c-0.080 17.601-14.337 31.845-31.935 31.903h-0.006z" />
<glyph unicode="&#xe933;" d="M175.711 80.607c-35.281 0-63.881 28.601-63.881 63.881s28.601 63.881 63.881 63.881c35.281 0 63.881-28.601 63.881-63.881v0c0.003-0.239 0.005-0.521 0.005-0.804 0-34.84-28.243-63.083-63.083-63.083-0.283 0-0.565 0.002-0.846 0.006h0.043zM175.711 176.429c-17.64 0-31.941-14.3-31.941-31.941s14.3-31.941 31.941-31.941c17.64 0 31.941 14.3 31.941 31.941v0c-0.059 17.617-14.324 31.882-31.935 31.941h-0.006z" />
<glyph unicode="&#xe934;" d="M95.841 608.558h-15.97c-8.82 0-15.97 7.15-15.97 15.97s7.15 15.97 15.97 15.97h15.97c8.82 0 15.97-7.15 15.97-15.97s-7.15-15.97-15.97-15.97v0z" />
<glyph unicode="&#xe935;" d="M175.721 608.558h-15.97c-8.82 0-15.97 7.15-15.97 15.97s7.15 15.97 15.97 15.97h15.97c8.82 0 15.97-7.15 15.97-15.97s-7.15-15.97-15.97-15.97v0z" />
<glyph unicode="&#xe936;" d="M256.39 608.558h-15.97c-8.82 0-15.97 7.15-15.97 15.97s7.15 15.97 15.97 15.97h15.97c8.82 0 15.97-7.15 15.97-15.97s-7.15-15.97-15.97-15.97v0z" />
<glyph unicode="&#xe937;" d="M95.841 288.259h-15.97c-8.82 0-15.97 7.15-15.97 15.97s7.15 15.97 15.97 15.97h15.97c8.82 0 15.97-7.15 15.97-15.97s-7.15-15.97-15.97-15.97v0z" />
<glyph unicode="&#xe938;" d="M175.721 288.259h-15.97c-8.82 0-15.97 7.15-15.97 15.97s7.15 15.97 15.97 15.97h15.97c8.82 0 15.97-7.15 15.97-15.97s-7.15-15.97-15.97-15.97v0z" />
<glyph unicode="&#xe939;" d="M256.39 288.259h-15.97c-8.82 0-15.97 7.15-15.97 15.97s7.15 15.97 15.97 15.97h15.97c8.82 0 15.97-7.15 15.97-15.97s-7.15-15.97-15.97-15.97v0z" />
<glyph unicode="&#xe93a;" d="M480.031 720.407c-35.281 0-63.881 28.601-63.881 63.881s28.601 63.881 63.881 63.881c35.281 0 63.881-28.601 63.881-63.881v0c-0.117-35.234-28.648-63.764-63.87-63.881h-0.011zM480.031 816.229c-17.64 0-31.941-14.3-31.941-31.941s14.3-31.941 31.941-31.941c17.64 0 31.941 14.3 31.941 31.941v0c-0.059 17.617-14.324 31.882-31.935 31.941h-0.006z" />
<glyph unicode="&#xe93b;" d="M480.031 400.108c-35.281 0-63.881 28.601-63.881 63.881s28.601 63.881 63.881 63.881c35.281 0 63.881-28.601 63.881-63.881v0c-0.117-35.234-28.648-63.764-63.87-63.881h-0.011zM480.031 496.757c-17.64 0-31.941-14.3-31.941-31.941s14.3-31.941 31.941-31.941c17.64 0 31.941 14.3 31.941 31.941v0c-0.080 17.601-14.337 31.845-31.935 31.903h-0.006z" />
<glyph unicode="&#xe93c;" d="M480.031 80.579c-35.234 0.117-63.764 28.648-63.881 63.87v0.011c0.349 27.813 18.004 51.415 42.677 60.559l0.453 0.147c1.567 0.557 3.375 0.878 5.258 0.878 8.934 0 16.177-7.243 16.177-16.177 0-6.803-4.199-12.625-10.147-15.016l-0.109-0.039c-12.58-4.633-21.424-16.437-21.607-30.331v-0.022c0.059-17.617 14.324-31.882 31.935-31.941h0.006c8.807-0.032 15.938-7.163 15.97-15.967v-0.003c-0.413-8.906-7.734-15.97-16.705-15.97-0.009 0-0.018 0-0.028 0h0.001z" />
<glyph unicode="&#xe93d;" d="M575.891 608.558h-15.97c-8.82 0-15.97 7.15-15.97 15.97s7.15 15.97 15.97 15.97h15.97c8.82 0 15.97-7.15 15.97-15.97s-7.15-15.97-15.97-15.97v0z" />
<glyph unicode="&#xe93e;" d="M496.020 608.558h-15.97c-8.82 0-15.97 7.15-15.97 15.97s7.15 15.97 15.97 15.97h15.97c8.82 0 15.97-7.15 15.97-15.97s-7.15-15.97-15.97-15.97v0z" />
<glyph unicode="&#xe93f;" d="M416.14 608.558h-15.97c-8.82 0-15.97 7.15-15.97 15.97s7.15 15.97 15.97 15.97h15.97c8.82 0 15.97-7.15 15.97-15.97s-7.15-15.97-15.97-15.97v0z" />
<glyph unicode="&#xe940;" d="M496.020 288.259h-15.97c-8.82 0-15.97 7.15-15.97 15.97s7.15 15.97 15.97 15.97h15.97c8.82 0 15.97-7.15 15.97-15.97s-7.15-15.97-15.97-15.97v0z" />
<glyph unicode="&#xe941;" d="M416.14 288.259h-15.97c-8.82 0-15.97 7.15-15.97 15.97s7.15 15.97 15.97 15.97h15.97c8.82 0 15.97-7.15 15.97-15.97s-7.15-15.97-15.97-15.97v0z" />
<glyph unicode="&#xe942;" horiz-adv-x="1177" d="M743.614 311.49h327.123v-255.798h-327.123v255.798z" />
<glyph unicode="&#xe943;" horiz-adv-x="1177" d="M661.623 640.253c-4.504 0.042-8.562 1.917-11.471 4.914l-0.004 0.004c-3.034 2.893-4.92 6.966-4.92 11.479s1.886 8.586 4.914 11.473l286.959 286.959c2.938 2.938 6.996 4.755 11.479 4.755 8.966 0 16.234-7.268 16.234-16.234 0-4.483-1.817-8.542-4.755-11.479v0l-286.953-286.953c-2.915-3.003-6.977-4.878-11.477-4.918h-0.007z" />
<glyph unicode="&#xe944;" horiz-adv-x="1177" d="M189.389 103.24c-2.893 3.034-6.966 4.92-11.479 4.92s-8.586-1.886-11.473-4.914l-45.095-45.095-57.392 57.392 45.089 45.089c2.938 2.938 4.755 6.996 4.755 11.479 0 8.966-7.268 16.234-16.234 16.234-4.483 0-8.542-1.817-11.479-4.755l-45.089-45.089-13.114 13.114c-2.938 2.938-6.996 4.755-11.479 4.755-8.966 0-16.234-7.268-16.234-16.234 0-4.483 1.817-8.542 4.755-11.479v0l129.538-127.899c2.893-3.034 6.966-4.92 11.479-4.92s8.586 1.886 11.473 4.914l0.006 0.006c3.034 2.893 4.92 6.966 4.92 11.479s-1.886 8.586-4.914 11.473l-13.12 13.12 45.089 45.089c3.021 2.584 4.924 6.4 4.924 10.66s-1.903 8.076-4.905 10.644l-0.019 0.016z" />
<glyph unicode="&#xe945;" horiz-adv-x="1177" d="M691.959 537.772c-0.028 13.383-5.335 25.521-13.948 34.448l0.014-0.015-4.918 4.918c11.769 11.588 19.061 27.694 19.061 45.503s-7.292 33.915-19.053 45.495l-0.008 0.008c-11.673 11.584-27.752 18.744-45.503 18.744s-33.83-7.159-45.507-18.748l0.004 0.004-4.918 4.098c-8.695 8.736-20.728 14.141-34.024 14.141s-25.329-5.406-34.022-14.14l-389.445-389.436-11.475 11.475c-2.938 2.938-6.996 4.755-11.479 4.755-8.966 0-16.234-7.268-16.234-16.234 0-4.483 1.817-8.542 4.755-11.479l191.029-191.029c2.893-3.034 6.966-4.92 11.479-4.92s8.586 1.886 11.473 4.914l0.006 0.006c3.034 2.893 4.92 6.966 4.92 11.479s-1.886 8.586-4.914 11.473l-11.481 11.481 389.443 389.443c9.069 8.121 14.749 19.866 14.749 32.937 0 0.238-0.002 0.475-0.006 0.712v-0.036zM650.139 644.351c5.582-5.783 9.021-13.667 9.021-22.354 0-0.213-0.002-0.425-0.006-0.637v0.032c-0.152-8.855-3.546-16.888-9.044-22.991l0.028 0.032-45.089 45.908c5.633 6.062 13.649 9.843 22.549 9.843 8.895 0 16.908-3.777 22.522-9.814l0.017-0.019zM655.038 526.288l-389.405-389.434-122.981 122.981 60.671 60.671 34.434-34.434c2.893-3.034 6.966-4.92 11.479-4.92s8.586 1.886 11.473 4.914l0.006 0.006c3.034 2.893 4.92 6.966 4.92 11.479s-1.886 8.586-4.914 11.473l-34.44 34.44 34.434 34.434 11.475-11.475c2.893-3.034 6.966-4.92 11.479-4.92s8.586 1.886 11.473 4.914l0.006 0.006c3.034 2.893 4.92 6.966 4.92 11.479s-1.886 8.586-4.914 11.473l-0.006 0.006-13.114 9.835 34.434 34.434 34.434-34.434c2.893-3.034 6.966-4.92 11.479-4.92s8.586 1.886 11.473 4.914l0.006 0.006c3.034 2.893 4.92 6.966 4.92 11.479s-1.886 8.586-4.914 11.473l-34.44 34.44 34.434 34.434 11.475-11.475c2.893-3.034 6.966-4.92 11.479-4.92s8.586 1.886 11.473 4.914l0.006 0.006c3.034 2.893 4.92 6.966 4.92 11.479s-1.886 8.586-4.914 11.473l-0.006 0.006-12.294 10.655 34.434 34.434 34.434-34.434c2.893-3.034 6.966-4.92 11.479-4.92s8.586 1.886 11.473 4.914l0.006 0.006c3.034 2.893 4.92 6.966 4.92 11.479s-1.886 8.586-4.914 11.473l-34.44 34.44 34.414 34.462 11.475-11.475c2.893-3.034 6.966-4.92 11.479-4.92s8.586 1.886 11.473 4.914l0.006 0.006c3.034 2.893 4.92 6.966 4.92 11.479s-1.886 8.586-4.914 11.473l-11.481 11.481 22.959 22.959c2.893 3.034 6.966 4.92 11.479 4.92s8.586-1.886 11.473-4.914l100.838-100.886c3.001-2.913 4.875-6.971 4.918-11.467v-0.008c-1.907-4.724-4.399-8.795-7.448-12.376l0.052 0.063z" />
<glyph unicode="&#xe946;" horiz-adv-x="1177" d="M823.956 529.576c-9.040 0.033-16.36 7.352-16.392 16.389v95.937c0 9.053 7.339 16.392 16.392 16.392s16.392-7.339 16.392-16.392v-96.744c-0.392-8.688-7.531-15.583-16.28-15.583-0.039 0-0.079 0-0.118 0h0.006z" />
<glyph unicode="&#xe947;" horiz-adv-x="1177" d="M1081.392 529.576c-9.040 0.033-16.36 7.352-16.392 16.389v95.937c0 9.053 7.339 16.392 16.392 16.392s16.392-7.339 16.392-16.392v0-96.744c-0.682-8.598-7.713-15.348-16.37-15.582h-0.023z" />
<glyph unicode="&#xe948;" horiz-adv-x="1177" d="M1081.392 625.51h-256.617c-9.053 0-16.392 7.339-16.392 16.392s7.339 16.392 16.392 16.392h256.617c9.053 0 16.392-7.339 16.392-16.392s-7.339-16.392-16.392-16.392v0z" />
<glyph unicode="&#xe949;" horiz-adv-x="1177" d="M1152.718 402.497c-12.54 11.034-26.492 21.070-41.379 29.669l-1.251 0.667h2.459c9.042 0.027 16.365 7.35 16.392 16.39v80.354c-0.022 17.65-14.324 31.953-31.973 31.975h-289.414c-17.65-0.022-31.953-14.324-31.975-31.973v-80.344c0.033-9.040 7.352-16.36 16.389-16.392h2.462c-16.089-9.797-30.020-20.077-42.97-31.448l0.341 0.293c-14.22-12.285-23.486-29.969-24.59-49.832l-0.008-0.184v-370.602c0-0.037 0-0.081 0-0.126 0-24.832 20.131-44.963 44.963-44.963 0.044 0 0.088 0 0.132 0h359.091c0.037 0 0.081 0 0.126 0 24.832 0 44.963 20.131 44.963 44.963 0 0.044 0 0.088 0 0.132v-0.007 370.602c0.839 17.212-7.357 33.614-23.759 50.826zM1145.342-18.883c0.001-0.049 0.001-0.107 0.001-0.165 0-7.152-5.798-12.95-12.95-12.95-0.058 0-0.116 0-0.174 0.001h-359.099c-0.049-0.001-0.107-0.001-0.165-0.001-7.152 0-12.95 5.798-12.95 12.95 0 0.058 0 0.116 0.001 0.174v-0.009 370.553c0.91 11.063 6.454 20.674 14.664 26.991l0.089 0.066c22.959 21.32 72.965 47.547 86.089 54.114h76.244c9.053 0 16.392 7.339 16.392 16.392s-7.339 16.392-16.392 16.392h-128.718v63.949h289.411v-63.949h-96.724c-9.053 0-16.392-7.339-16.392-16.392s7.339-16.392 16.392-16.392h44.269c13.114-6.557 62.31-32.785 85.269-54.114 8.209-6.782 13.7-16.601 14.741-27.714l0.012-0.163v-369.782z" />
<glyph unicode="&#xe94a;" horiz-adv-x="906" d="M352.933 556.725v39.903c-12.434 2.076-26.907 3.375-41.641 3.594l-0.224 0.003c-0.194 0-0.424 0.001-0.654 0.001-171.424 0-310.39-138.967-310.39-310.39 0-105.081 52.217-197.966 132.119-254.122l0.989-0.659c-51.736 55.259-83.51 129.763-83.51 211.688 0 168.864 134.992 306.199 302.949 309.977l0.352 0.006z" />
<glyph unicode="&#xe94b;" horiz-adv-x="906" d="M360.482 104.716c76.128 0.106 138.203 60.124 141.608 135.426l0.011 0.307v676.703h123.627c-2.307 12.284-3.627 26.416-3.627 40.856 0 0.701 0.003 1.401 0.009 2.1l-0.001-0.107h-169.094v-676.047c-2.882-76.039-65.156-136.604-141.606-136.733h-0.013c-23.944 0.21-46.434 6.236-66.188 16.73l0.779-0.377c25.979-35.675 67.532-58.652 114.462-58.856h0.032zM856.613 687.556v37.613c-0.026 0-0.057 0-0.088 0-47.614 0-91.862 14.413-128.619 39.115l0.828-0.524c32.537-37.672 76.424-64.741 126.315-75.91l1.564-0.294z" />
<glyph unicode="&#xe94c;" horiz-adv-x="906" d="M728.734 763.76c-35.948 40.777-57.889 94.649-57.889 153.645 0 0.028 0 0.056 0 0.084v-0.004h-45.139c12.384-64.813 50.056-119.088 102.135-153.176l0.893-0.549zM311.069 431.131c-78.083-0.411-141.222-63.805-141.222-141.945 0-54.205 30.382-101.313 75.046-125.224l0.761-0.372c-16.824 23.006-26.92 51.858-26.92 83.068 0 78.217 63.408 141.625 141.625 141.625 0.036 0 0.071 0 0.107 0h-0.005c15.004-0.204 29.377-2.589 42.917-6.851l-1.058 0.287v172.067c-12.504 1.976-26.997 3.16-41.747 3.268l-0.112 0.001h-7.526v-130.825c-11.298 3.152-24.271 4.963-37.667 4.963-1.476 0-2.947-0.022-4.413-0.066l0.215 0.005z" />
<glyph unicode="&#xe94d;" horiz-adv-x="906" d="M856.613 687.556v-130.831c-88.121 0.177-169.539 28.73-235.642 77.002l1.138-0.793v-343.746c-0.373-171.502-139.487-310.388-311.040-310.39v0c-0.166 0-0.363-0.001-0.56-0.001-66.466 0-128.011 21.070-178.321 56.894l0.944-0.638c56.836-61.005 137.635-99.039 227.317-99.039 171.397 0 310.347 138.923 310.39 310.31v342.782c64.974-47.030 146.263-75.226 234.138-75.226 0.244 0 0.487 0 0.731 0.001h-0.038v168.454c-17.403 0.053-34.332 1.951-50.642 5.509l1.585-0.29z" />
<glyph unicode="&#xe94e;" horiz-adv-x="906" d="M622.104 289.189v343.746c64.895-47.028 146.108-75.227 233.907-75.227 0.325 0 0.65 0 0.976 0.001h-0.051v130.825c-51.479 11.126-95.479 37.875-127.976 74.957l-0.231 0.269c-52.972 34.637-90.644 88.912-102.794 152.258l-0.234 1.467h-123.621v-677.053c-3.197-75.861-65.472-136.15-141.829-136.15-47.092 0-88.829 22.933-114.651 58.239l-0.279 0.401c-45.431 24.282-75.818 71.393-75.818 125.602 0 78.144 63.145 141.54 141.194 141.945h0.039c14.988-0.138 29.371-2.52 42.895-6.825l-1.030 0.283v130.842c-168.975-2.945-304.825-140.617-304.825-310.018 0-82.707 32.383-157.851 85.161-213.445l-0.127 0.135c48.301-33.014 107.976-52.718 172.252-52.718 2.11 0 4.215 0.021 6.315 0.064l-0.314-0.005c171.553 0.003 310.668 138.888 311.041 310.355v0.036z" />
<glyph unicode="&#xe94f;" glyph-name="star" d="M1020.173 575.299c-8.318 25.367-29.841 44.175-56.235 48.451l-0.409 0.055-267.264 39.774-120.347 255.407c-11.248 24.559-35.614 41.312-63.892 41.312s-52.644-16.753-63.713-40.876l-0.179-0.436-118.568-254.491-269.043-40.96c-26.797-4.342-48.314-23.145-56.5-48.003l-0.143-0.503c-2.461-7.020-3.882-15.113-3.882-23.538 0-19.963 7.981-38.062 20.925-51.28l-0.012 0.013 194.722-198.925-45.972-280.738c-0.675-3.717-1.062-7.996-1.062-12.365 0-24.385 12.031-45.959 30.482-59.111l0.222-0.15c11.162-8.072 25.124-12.911 40.217-12.911 12.366 0 23.974 3.249 34.016 8.94l-0.343-0.179 237.137 132.527 240.694-132.527c9.663-5.442 21.212-8.647 33.511-8.647 15.041 0 28.962 4.795 40.317 12.939l-0.208-0.142c18.674 13.291 30.709 34.858 30.709 59.237 0 4.377-0.388 8.664-1.132 12.828l0.065-0.439-45.811 281.061 194.668 198.818c12.941 13.207 20.927 31.312 20.927 51.281 0 8.44-1.427 16.547-4.052 24.093l0.156-0.514z" />
<glyph unicode="&#xe950;" d="M483.436 954.072c-15.629-7.006-28.025-19.402-35.032-35.032l-118.568-254.383-268.935-40.96c-26.408-4.312-48.505-23.175-56.589-48.505-8.623-26.408-2.156-54.973 17.246-74.914l194.56-198.872-45.811-280.792c-4.851-27.486 7.006-55.512 29.642-71.68 21.558-15.629 50.661-17.246 73.836-4.312l237.137 132.581 1.617-1.078v883.874c-9.701 0-19.402-1.617-28.564-5.928z" />
<glyph unicode="&#xe951;" d="M1020.227 575.192c-8.084 25.331-30.181 44.194-56.589 48.505l-267.318 39.882-120.185 255.461c-11.857 25.869-37.187 40.96-64.135 40.96v-883.874l238.754-131.503c23.175-12.935 51.739-11.318 73.836 4.312 22.636 16.168 34.493 44.194 29.642 71.68l-45.811 280.792 194.56 198.872c19.402 19.941 25.869 48.505 17.246 74.914z" />
<glyph unicode="&#xe952;" glyph-name="whatsapp" d="M757.707 371.596c-1.995 0.958-76.647 37.718-89.913 42.493-5.416 1.945-11.217 3.843-17.388 3.843-10.080 0-18.548-5.024-25.145-14.891-7.457-11.084-30.032-37.472-37.007-45.355-0.911-1.041-2.154-2.284-2.899-2.284-0.668 0-12.222 4.758-15.719 6.277-80.081 34.786-140.866 118.438-149.201 132.545-1.19 2.028-1.24 2.949-1.25 2.949 0.293 1.074 2.986 3.774 4.375 5.167 4.066 4.023 8.471 9.326 12.734 14.456 2.018 2.43 4.039 4.864 6.024 7.158 6.184 7.195 8.937 12.78 12.128 19.25l1.672 3.361c7.793 15.483 1.137 28.549-1.014 32.768-1.765 3.531-33.287 79.606-36.638 87.599-8.059 19.286-18.708 28.266-33.506 28.266-1.373 0 0 0-5.758-0.243-7.012-0.296-45.196-5.323-62.078-15.965-17.903-11.287-48.191-47.267-48.191-110.542 0-56.948 36.139-110.718 51.655-131.168 0.386-0.515 1.094-1.563 2.121-3.065 59.422-86.781 133.499-151.093 208.593-181.092 72.295-28.878 106.529-32.216 125.992-32.216 0.003 0 0.003 0 0.003 0 8.179 0 14.725 0.642 20.5 1.21l3.664 0.349c24.975 2.214 79.859 30.654 92.343 65.346 9.834 27.326 12.428 57.181 5.885 68.016-4.482 7.367-12.205 11.074-21.983 15.769zM521.090 960c-277.331 0-502.957-223.93-502.957-499.177 0-89.025 23.825-176.168 68.957-252.436l-86.385-254.82c-1.609-4.751-0.412-10.004 3.102-13.581 2.537-2.59 5.978-3.986 9.492-3.986 1.346 0 2.703 0.203 4.026 0.625l265.708 84.433c72.711-38.849 154.89-59.355 238.060-59.355 277.305-0.003 502.907 223.904 502.907 499.12 0 275.247-225.602 499.177-502.91 499.177zM521.090 65.682c-78.26 0-154.059 22.598-219.216 65.353-2.191 1.44-4.734 2.178-7.294 2.178-1.353 0-2.71-0.206-4.030-0.625l-133.103-42.31 42.968 126.767c1.39 4.103 0.695 8.628-1.865 12.125-49.617 67.797-75.846 147.898-75.846 231.653 0 217.909 178.715 395.194 398.383 395.194 219.641 0 398.336-177.285 398.336-395.194 0.003-217.883-178.688-395.141-398.333-395.141z" />
<glyph unicode="&#xe953;" horiz-adv-x="853" d="M816.916 71.2l-105.63 203.083c-2.902 5.503-8.584 9.19-15.128 9.19-4.512 0-8.614-1.753-11.663-4.615l0.009 0.008c-12.616-11.905-22.285-26.797-27.888-43.551l-0.217-0.749c-7.898-23.286-26.333-41.104-49.475-47.993l-0.528-0.135c-6.122-2.068-13.172-3.261-20.501-3.261-5.5 0-10.843 0.672-15.951 1.938l0.454-0.095c-6.634 1.453-14.253 2.286-22.068 2.286-27.298 0-52.223-10.158-71.202-26.9l0.117 0.101c-3.599-3.145-5.859-7.743-5.859-12.869 0-2.886 0.716-5.604 1.981-7.987l-0.045 0.092 101.203-194.56c2.624-4.995 7.524-8.484 13.285-9.099l0.075-0.006c0.599 0 1.182-0.095 1.764-0.095 5.314 0.015 10.056 2.455 13.178 6.271l0.024 0.030 77.745 94.838 122.423 9.184c8.856 0.677 15.785 8.029 15.785 16.999 0 2.885-0.717 5.603-1.982 7.984l0.045-0.092z" />
<glyph unicode="&#xe954;" horiz-adv-x="853" d="M570.4 185.021c-6.634 1.453-14.253 2.286-22.068 2.286-27.298 0-52.223-10.158-71.202-26.9l0.117 0.101c-3.599-3.145-5.859-7.743-5.859-12.869 0-2.886 0.716-5.604 1.981-7.987l-0.045 0.092 101.203-194.56c2.626-4.993 7.525-8.481 13.284-9.099l0.075-0.007c0.599 0 1.182-0.095 1.764-0.095 5.314 0.015 10.056 2.455 13.178 6.271l0.024 0.030 77.745 94.822-77.194 148.559c-5.324-1.537-11.438-2.421-17.76-2.421-5.408 0-10.665 0.647-15.698 1.868l0.454-0.093z" />
<glyph unicode="&#xe955;" horiz-adv-x="853" d="M36.407 71.2l105.63 203.099c2.902 5.503 8.584 9.19 15.128 9.19 4.512 0 8.614-1.753 11.663-4.615l-0.009 0.008c12.616-11.905 22.285-26.797 27.888-43.551l0.217-0.749c7.897-23.296 26.339-41.121 49.491-48.009l0.528-0.135c6.122-2.068 13.172-3.261 20.501-3.261 5.5 0 10.843 0.672 15.951 1.938l-0.454-0.095c6.619 1.447 14.222 2.275 22.019 2.275 27.284 0 52.198-10.148 71.173-26.874l-0.118 0.102c3.599-3.145 5.859-7.743 5.859-12.869 0-2.886-0.716-5.604-1.981-7.987l0.045 0.092-101.124-194.56c-2.624-4.995-7.524-8.484-13.285-9.099l-0.075-0.006c-0.599 0-1.182-0.095-1.764-0.095-5.314 0.015-10.056 2.455-13.178 6.271l-0.024 0.030-77.792 94.87-122.423 9.184c-8.856 0.677-15.785 8.029-15.785 16.999 0 2.885 0.717 5.603 1.982 7.984l-0.045-0.092z" />
<glyph unicode="&#xe956;" horiz-adv-x="853" d="M282.923 185.021c6.634 1.453 14.253 2.286 22.068 2.286 27.298 0 52.223-10.158 71.202-26.9l-0.117 0.101c3.599-3.145 5.859-7.743 5.859-12.869 0-2.886-0.716-5.604-1.981-7.987l0.045 0.092-101.203-194.56c-2.624-4.995-7.524-8.484-13.285-9.099l-0.075-0.006c-0.599 0-1.182-0.095-1.764-0.095-5.314 0.015-10.056 2.455-13.178 6.271l-0.024 0.030-77.792 94.87 77.194 148.559c5.334-1.543 11.461-2.431 17.796-2.431 5.424 0 10.695 0.651 15.741 1.878l-0.454-0.093z" />
<glyph unicode="&#xe957;" horiz-adv-x="853" d="M853.339 533.339c0 0.087 0 0.191 0 0.294 0 27.685-10.452 52.93-27.624 72.003l0.086-0.097c-11.731 13.11-18.903 30.514-18.905 49.593v0c0.039 5.447 0.611 10.737 1.665 15.851l-0.090-0.523c1.427 6.54 2.289 14.084 2.378 21.814l0.001 0.068c-0.044 47.832-31.002 88.422-73.97 102.87l-0.766 0.223c-22.492 7.397-39.865 24.769-47.114 46.744l-0.148 0.517c-4.224 12.74-10.286 23.78-17.986 33.46l0.168-0.219c-20.115 25.267-50.815 41.365-85.28 41.527h-0.027c-7.861-0.093-15.465-0.96-22.809-2.529l0.753 0.135c-4.476-0.949-9.619-1.492-14.889-1.492-19.1 0-36.534 7.137-49.78 18.889l0.078-0.068c-19.13 17.13-44.532 27.602-72.381 27.602-27.413 0-52.456-10.147-71.578-26.891l0.126 0.108c-0.699-0.475-1.305-0.946-1.88-1.452l0.021 0.018c-12.751-11.411-29.679-18.387-48.237-18.387-5.561 0-10.976 0.626-16.178 1.813l0.486-0.093c-6.525 1.416-14.053 2.272-21.765 2.362l-0.069 0.001c-34.455-0.164-65.123-16.236-85.058-41.243l-0.17-0.221c-7.549-9.467-13.622-20.519-17.63-32.516l-0.219-0.756c-7.423-22.512-24.837-39.89-46.854-47.114l-0.518-0.147c-43.697-14.699-74.617-55.282-74.642-103.090v-0.003c0.086-7.773 0.936-15.296 2.48-22.564l-0.132 0.745c0.97-4.608 1.542-9.915 1.575-15.35v-0.026c-0.001-19.038-7.148-36.407-18.905-49.571l0.064 0.073c-17.135-19.118-27.611-44.513-27.611-72.354 0-27.8 10.445-53.16 27.624-72.371l-0.092 0.105c11.731-13.11 18.903-30.514 18.905-49.593v0c-0.039-5.447-0.611-10.737-1.665-15.851l0.090 0.523c-1.413-6.547-2.259-14.094-2.331-21.827v-0.055c0.042-47.846 31.016-88.446 74.002-102.886l0.766-0.223c11.071-3.648 20.542-9.557 28.267-17.223l-0.005 0.005c8.536-8.098 15.074-18.218 18.853-29.597l0.146-0.509c11.378-33.754 37.977-59.627 71.416-69.778l0.768-0.2c9.154-3.057 19.694-4.821 30.645-4.821 7.829 0 15.448 0.901 22.757 2.606l-0.675-0.133c4.603 0.969 9.904 1.541 15.334 1.575h0.026c18.738-0.048 35.844-6.992 48.924-18.428l-0.087 0.075c0.268-0.236 0.536-0.473 0.819-0.677l0.11-0.079c19.081-16.946 44.35-27.296 72.036-27.296 27.803 0 53.168 10.438 72.391 27.61l-0.106-0.093c13.102 11.732 30.501 18.905 49.574 18.905 0.001 0 0.002 0 0.003 0v0c5.457-0.036 10.758-0.608 15.882-1.665l-0.522 0.090c6.53-1.417 14.064-2.273 21.782-2.362l0.069-0.001c47.826 0.051 88.408 31.007 102.854 73.97l0.223 0.766c7.423 22.512 24.837 39.89 46.854 47.114l0.518 0.147c43.699 14.692 74.623 55.269 74.657 103.073v0.004c-0.085 7.773-0.936 15.297-2.48 22.564l0.133-0.745c-0.97 4.608-1.542 9.915-1.575 15.35v0.026c0.009 19.073 7.179 36.47 18.968 49.649l-0.063-0.072c17.087 18.991 27.538 44.249 27.538 71.948 0 0.133 0 0.266-0.001 0.399v-0.021z" />
<glyph unicode="&#xe958;" horiz-adv-x="853" d="M625.113 590.935c-3.641 10.961-12.759 19.163-24.025 21.438l-0.205 0.035-97.863 19.141-48.443 87.15c-5.558 9.863-15.964 16.416-27.9 16.416s-22.342-6.552-27.817-16.256l-0.083-0.16-48.459-87.15-97.863-19.141c-14.8-2.977-25.791-15.874-25.791-31.337 0-8.407 3.249-16.055 8.559-21.757l-0.018 0.019 67.915-73.003-12.036-99.013c-0.148-1.154-0.232-2.489-0.232-3.844 0-17.636 14.297-31.933 31.933-31.933 4.887 0 9.518 1.098 13.659 3.061l-0.194-0.083 90.411 42.031 90.427-42.031c3.943-1.875 8.568-2.97 13.449-2.97 17.636 0 31.933 14.297 31.933 31.933 0 1.352-0.084 2.685-0.247 3.993l0.016-0.156-12.036 98.997 67.931 73.003c5.293 5.686 8.543 13.336 8.543 21.746 0 3.529-0.572 6.924-1.629 10.098l0.065-0.226z" />
<glyph unicode="&#xe959;" horiz-adv-x="853" d="M426.74 235.166c-0.019 0-0.041 0-0.063 0-169.105 0-306.192 137.087-306.192 306.192s137.087 306.192 306.192 306.192c169.099 0 306.183-137.078 306.192-306.175v-0.001c0-0.005 0-0.010 0-0.016 0-169.083-137.051-306.156-306.126-306.192h-0.003zM426.74 813.426c-150.26 0-272.069-121.809-272.069-272.069s121.809-272.069 272.069-272.069c150.26 0 272.069 121.809 272.069 272.069v0c0 150.26-121.809 272.069-272.069 272.069v0z" />
<glyph unicode="&#xe95a;" horiz-adv-x="864" d="M819.789 69.4l-104.246 200.614c-2.861 5.436-8.472 9.080-14.934 9.080-4.459 0-8.512-1.735-11.522-4.566l0.009 0.008c-12.455-11.747-22.001-26.441-27.534-42.974l-0.214-0.739c-7.803-22.978-26.002-40.557-48.845-47.348l-0.521-0.133c-6.042-2.045-13.001-3.226-20.236-3.226-5.426 0-10.697 0.664-15.737 1.915l0.448-0.094c-6.558 1.44-14.091 2.265-21.816 2.265-26.934 0-51.526-10.026-70.247-26.55l0.115 0.099c-3.567-3.101-5.809-7.647-5.809-12.716 0-2.867 0.717-5.567 1.982-7.929l-0.044 0.090 99.896-191.844c2.592-4.927 7.431-8.367 13.116-8.969l0.073-0.006h1.747c5.233 0.005 9.907 2.393 12.995 6.138l0.023 0.029 76.772 93.627 120.827 9.078c8.756 0.649 15.613 7.912 15.613 16.777 0 2.846-0.707 5.527-1.954 7.877l0.044-0.091z" />
<glyph unicode="&#xe95b;" horiz-adv-x="864" d="M576.525 181.765c-6.558 1.44-14.091 2.265-21.816 2.265-26.934 0-51.526-10.026-70.247-26.55l0.115 0.099c-3.567-3.101-5.809-7.647-5.809-12.716 0-2.867 0.717-5.567 1.982-7.929l-0.044 0.090 99.896-191.844c2.592-4.927 7.431-8.367 13.116-8.969l0.073-0.006h1.747c5.233 0.005 9.907 2.393 12.995 6.138l0.023 0.029 76.772 93.49-76.224 146.623c-5.302-1.546-11.392-2.435-17.689-2.435-5.281 0-10.417 0.625-15.336 1.806l0.446-0.090z" />
<glyph unicode="&#xe95c;" horiz-adv-x="864" d="M49.503 69.4l104.246 200.614c2.861 5.436 8.472 9.080 14.934 9.080 4.459 0 8.512-1.735 11.522-4.566l-0.009 0.008c12.455-11.747 22.001-26.441 27.534-42.974l0.214-0.739c7.803-22.978 26.002-40.557 48.845-47.348l0.521-0.133c6.042-2.045 13.001-3.226 20.236-3.226 5.426 0 10.697 0.664 15.737 1.915l-0.448-0.094c6.558 1.44 14.091 2.265 21.816 2.265 26.934 0 51.526-10.026 70.247-26.55l-0.115 0.099c3.567-3.101 5.809-7.647 5.809-12.716 0-2.867-0.717-5.567-1.982-7.929l0.044 0.090-99.896-191.844c-2.592-4.927-7.431-8.367-13.116-8.969l-0.073-0.006h-1.747c-5.233 0.005-9.907 2.393-12.995 6.138l-0.023 0.029-76.875 93.25-120.827 9.078c-8.756 0.649-15.613 7.912-15.613 16.777 0 2.846 0.707 5.527 1.954 7.877l-0.044-0.091z" />
<glyph unicode="&#xe95d;" horiz-adv-x="864" d="M292.801 181.765c6.558 1.44 14.091 2.265 21.816 2.265 26.934 0 51.526-10.026 70.247-26.55l-0.115 0.099c3.567-3.101 5.809-7.647 5.809-12.716 0-2.867-0.717-5.567-1.982-7.929l0.044 0.090-99.896-191.844c-2.592-4.927-7.431-8.367-13.116-8.969l-0.073-0.006h-1.747c-5.233 0.005-9.907 2.393-12.995 6.138l-0.023 0.029-76.772 93.49 76.189 146.623c5.248-1.513 11.275-2.383 17.506-2.383 5.36 0 10.57 0.644 15.556 1.858l-0.448-0.092z" />
<glyph unicode="&#xe95e;" horiz-adv-x="864" d="M855.726 525.508c0 0.115 0.001 0.251 0.001 0.387 0 27.313-10.311 52.217-27.252 71.034l0.085-0.096c-11.566 12.938-18.636 30.108-18.636 48.93 0 0.009 0 0.017 0 0.026v-0.001c0.033 5.377 0.593 10.604 1.63 15.657l-0.088-0.515c1.402 6.453 2.246 13.895 2.329 21.519l0.001 0.063c-0.045 47.206-30.597 87.264-73.001 101.525l-0.756 0.221c-22.209 7.297-39.363 24.45-46.513 46.149l-0.146 0.511c-4.168 12.565-10.147 23.454-17.74 33.001l0.166-0.216c-19.827 24.979-50.118 40.91-84.138 41.109h-0.033c-7.754-0.092-15.254-0.949-22.497-2.497l0.743 0.133c-4.428-0.941-9.515-1.479-14.729-1.479-18.87 0-36.091 7.056-49.169 18.674l0.076-0.066c-18.875 16.899-43.938 27.23-71.414 27.23-27.039 0-51.741-10.005-70.606-26.514l0.124 0.107c-0.697-0.467-1.301-0.928-1.873-1.424l0.023 0.020c-12.589-11.258-29.299-18.14-47.616-18.14-5.489 0-10.833 0.618-15.967 1.788l0.48-0.092c-6.44 1.396-13.869 2.24-21.481 2.329l-0.068 0.001c-33.997-0.163-64.259-16.017-83.935-40.686l-0.168-0.218c-7.448-9.349-13.439-20.261-17.392-32.107l-0.216-0.747c-7.257-22.325-24.465-39.578-46.251-46.753l-0.511-0.146c-43.127-14.492-73.65-54.532-73.689-101.707v-0.005c0.088-7.678 0.932-15.108 2.461-22.284l-0.131 0.736c0.954-4.55 1.514-9.789 1.542-15.154v-0.022c0-0.065 0-0.141 0-0.218 0-18.687-6.975-35.744-18.464-48.711l0.067 0.077c-16.883-18.862-27.204-43.905-27.204-71.359s10.321-52.497 27.294-71.461l-0.090 0.102c11.422-12.899 18.397-29.965 18.397-48.66 0-0.079 0-0.159 0-0.238v0.012c-0.033-5.378-0.593-10.604-1.63-15.657l0.088 0.515c-1.402-6.453-2.246-13.895-2.329-21.52l-0.001-0.063c0.050-47.214 30.617-87.275 73.035-101.525l0.756-0.22c10.932-3.64 20.277-9.517 27.886-17.129v0c8.419-7.99 14.868-17.974 18.595-29.199l0.145-0.502c11.23-33.317 37.489-58.854 70.499-68.866l0.758-0.198c9.041-3.021 19.451-4.765 30.268-4.765 7.718 0 15.228 0.887 22.435 2.566l-0.666-0.131c4.539 0.951 9.766 1.511 15.118 1.541h0.024c18.507-0.039 35.405-6.898 48.321-18.196l-0.086 0.073 0.822-0.685c18.832-16.734 43.775-26.956 71.106-26.956 27.44 0 52.473 10.304 71.442 27.253l-0.104-0.091c12.928 11.566 30.090 18.636 48.904 18.636 0.006 0 0.012 0 0.017 0h-0.001c5.388-0.030 10.627-0.589 15.69-1.63l-0.514 0.088c6.44-1.396 13.869-2.24 21.48-2.329l0.068-0.001c47.206 0.045 87.264 30.597 101.525 73.001l0.221 0.756c7.313 22.241 24.507 39.413 46.251 46.548l0.511 0.145c43.127 14.492 73.65 54.532 73.689 101.707v0.005c-0.088 7.678-0.932 15.108-2.461 22.284l0.131-0.736c-0.954 4.55-1.514 9.789-1.542 15.154v0.022c0.006 18.818 7.075 35.984 18.699 48.992l-0.063-0.071c16.918 18.736 27.27 43.685 27.27 71.052 0 0.108 0 0.216 0 0.324v-0.017z" />
<glyph unicode="&#xe95f;" horiz-adv-x="864" d="M630.515 582.376c-3.614 10.823-12.638 18.914-23.779 21.138l-0.201 0.034-96.573 18.876-47.961 86.021c-5.476 9.752-15.753 16.234-27.543 16.234s-22.067-6.481-27.462-16.075l-0.082-0.158-47.961-86.021-96.573-18.876c-14.649-2.905-25.54-15.653-25.54-30.945 0-8.288 3.199-15.828 8.429-21.454l-0.018 0.020 67.043-71.941-11.442-97.943c-0.144-1.133-0.227-2.444-0.227-3.775 0-17.406 14.111-31.517 31.517-31.517 4.806 0 9.361 1.076 13.437 3l-0.192-0.081 89.070 41.486 89.242-41.486c3.884-1.842 8.439-2.918 13.245-2.918 17.406 0 31.517 14.111 31.517 31.517 0 1.33-0.082 2.641-0.242 3.928l0.016-0.154-11.716 97.84 67.043 71.941c5.27 5.62 8.508 13.201 8.508 21.538 0 3.494-0.568 6.855-1.618 9.996l0.064-0.222z" />
<glyph unicode="&#xe960;" horiz-adv-x="864" d="M434.663 231.268c-0.010 0-0.022 0-0.034 0-166.894 0-302.188 135.294-302.188 302.188s135.294 302.188 302.188 302.188c166.894 0 302.188-135.294 302.188-302.188v0c0-166.882-135.275-302.169-302.152-302.188h-0.002zM434.663 801.969c-148.295 0-268.513-120.217-268.513-268.513s120.217-268.513 268.513-268.513c148.295 0 268.513 120.217 268.513 268.513v0c-0.019 148.281-120.229 268.478-268.513 268.478v0z" />
<glyph unicode="&#xe961;" d="M725.326 789.33c-35.344-35.344-35.344-92.647 0-127.991s92.647-35.344 127.991 0v0l85.335-85.335c23.558-23.558 23.558-61.753 0-85.312v0l-469.357-469.357c-23.55-23.55-61.726-23.558-85.287-0.025l-85.336 85.336c35.344 35.344 35.344 92.647 0 127.991s-92.647 35.344-127.991 0v0l-85.335 85.335c-0.007 0.007-0.015 0.015-0.024 0.024-23.558 23.558-23.558 61.753 0 85.312l469.405 469.405c23.558 23.558 61.753 23.558 85.312 0v0z" />
<glyph unicode="&#xe962;" d="M746.642 767.775v0c-23.565-23.565-23.565-61.771 0-85.335s61.771-23.565 85.335 0c15.886 11.122 30.104 12.337 42.87 0l85.335-85.335c35.344-35.344 35.344-92.647 0-127.991l-469.333-469.333c-35.344-35.344-92.647-35.344-127.991 0l-85.335 85.335c-11.838 11.838-11.838 31.032 0 42.87v0c23.565 23.565 23.565 61.771 0 85.335s-61.771 23.565-85.335 0v0c-11.838-11.838-31.032-11.838-42.87 0l-85.335 85.335c-35.344 35.344-35.344 92.647 0 127.991l469.326 469.326c0.042 0.042 0.084 0.084 0.126 0.126 35.31 35.31 92.539 35.344 127.896 0.095l85.335-85.335c11.838-11.838 11.838-31.032 0-42.87zM469.344 746.65l42.656-42.656c9.757-12.005 9.051-29.538-2.034-40.622s-28.617-11.79-40.523-2.118l-0.1 0.084-42.656 42.656-320.026-320.026c-11.838-11.838-11.838-31.032 0-42.87v0l66.687-66.687c46.922 27.278 107.093 20.91 146.646-18.643s45.921-99.724 19.104-145.916l-0.461-0.73 66.687-66.687c11.838-11.838 31.032-11.838 42.87 0v0l320.002 320.002-42.656 42.656c-9.757 12.005-9.051 29.538 2.034 40.622s28.617 11.79 40.523 2.118l0.1-0.084 42.656-42.656 106.675 106.675c11.838 11.838 11.838 31.032 0 42.87v0l-66.687 66.687c-46.922-27.278-107.093-20.91-146.646 18.643s-45.921 99.724-19.104 145.916l0.461 0.73-66.687 66.687c-11.838 11.838-31.032 11.838-42.87 0v0zM554.679 576.003l0.1-0.084c-0.81 0.658-1.594 1.364-2.348 2.118-11.838 11.838-11.838 31.032 0 42.87s31.032 11.838 42.87 0c0.754-0.754 1.46-1.538 2.034-2.248l85.235-85.251c0.81-0.658 1.594-1.364 2.348-2.118 11.838-11.838 11.838-31.032 0-42.87s-31.032-11.838-42.87 0c-0.754 0.754-1.46 1.538-2.034 2.248l-85.335 85.335z" />
<glyph unicode="&#xe963;" glyph-name="pencil" d="M959.382 895.221c-40 40.018-95.27 64.772-156.321 64.772s-116.32-24.753-156.32-64.771l-625.122-625.122c-13.349-13.32-21.61-31.735-21.62-52.078v-208.403c0-0.024 0-0.052 0-0.080 0-40.659 32.961-73.619 73.619-73.619 0.028 0 0.057 0 0.085 0h208.396c20.346 0.010 38.76 8.271 52.079 21.618l625.283 624.962c39.879 40.049 64.532 95.286 64.532 156.28s-24.654 116.231-64.54 156.288l0.008-0.008zM854.901 790.74c13.374-13.367 21.647-31.838 21.647-52.241s-8.273-38.873-21.647-52.241l-52.080-52.080-104.080 104.803 52.080 52.080c13.341 13.433 31.82 21.747 52.241 21.747s38.9-8.315 52.237-21.743l0.004-0.004zM251.64 83.319h-104.24v104.482l446.86 447.020 104.482-104.482z" />
<glyph unicode="&#xe964;" d="M512 960c-282.77 0-512-229.23-512-512s229.23-512 512-512c282.77 0 512 229.23 512 512v0c-0.225 282.68-229.321 511.776-511.979 512h-0.021zM512 82.122c-201.893 0.102-365.52 163.792-365.52 365.699 0 201.97 163.729 365.699 365.699 365.699 201.907 0 365.597-163.627 365.699-365.51v-0.010c-0.143-202.011-163.866-365.735-365.864-365.878h-0.014z" />
<glyph unicode="&#xe965;" d="M512 813.699c-201.954-0.020-365.663-163.742-365.663-365.699 0-201.97 163.729-365.699 365.699-365.699s365.699 163.729 365.699 365.699v0c-0.245 201.884-163.848 365.475-365.714 365.699h-0.021zM667.223 401.634l-42.066-22.896c-18.512-10.224-33.377-25.055-43.358-42.978l-0.285-0.558-23.076-41.923c-9.198-16.491-26.537-27.461-46.438-27.461s-37.24 10.97-46.3 27.192l-0.138 0.269-23.040 41.959c-10.281 18.502-25.171 33.346-43.151 43.286l-0.564 0.286-41.959 22.825c-16.68 9.128-27.802 26.556-27.802 46.581s11.122 37.453 27.527 46.443l0.275 0.138 42.066 22.896c18.512 10.224 33.377 25.055 43.358 42.978l0.285 0.558 23.076 41.923c9.198 16.491 26.537 27.461 46.438 27.461s37.24-10.97 46.3-27.192l0.138-0.269 23.040-41.959c10.29-18.474 25.163-33.301 43.116-43.249l0.563-0.286 42.031-22.861c16.659-9.143 27.763-26.565 27.763-46.581s-11.104-37.438-27.488-46.443l-0.275-0.138z" />
<glyph unicode="&#xe966;" d="M667.187 494.689l-42.031 22.861c-18.516 10.234-33.389 25.062-43.393 42.978l-0.286 0.557-23.004 41.78c-9.198 16.491-26.537 27.461-46.438 27.461s-37.24-10.97-46.3-27.192l-0.138-0.269-23.040-41.923c-10.245-18.496-25.116-33.333-43.081-43.251l-0.562-0.285-42.066-22.896c-16.637-9.158-27.723-26.575-27.723-46.581s11.086-37.423 27.45-46.443l0.274-0.138 41.995-22.861c18.543-10.225 33.434-25.070 43.43-43.014l0.285-0.558 23.040-41.959c9.198-16.491 26.537-27.461 46.438-27.461s37.24 10.97 46.3 27.192l0.138 0.269 23.076 41.923c10.245 18.496 25.116 33.333 43.081 43.251l0.562 0.285 42.066 22.896c16.616 9.173 27.684 26.585 27.684 46.581s-11.068 37.408-27.411 46.443l-0.273 0.138z" />
<glyph unicode="&#xe967;" glyph-name="arrow" horiz-adv-x="1695" d="M-0.998 835.274c0.22 34.601 14.496 65.826 37.398 88.286l0.020 0.020c22.57 22.563 53.746 36.518 88.181 36.518s65.612-13.955 88.182-36.518v0l634.356-634.855 635.105 634.855c22.57 22.563 53.746 36.518 88.181 36.518s65.612-13.955 88.182-36.518v0c22.563-22.57 36.518-53.746 36.518-88.181s-13.955-65.612-36.518-88.182l-811.467-811.217-810.719 810.968c-22.922 22.48-37.198 53.705-37.418 88.265v0.041z" />
<glyph unicode="&#xe968;" glyph-name="chat" d="M2.771-9.874c-1.749 5.965-2.755 12.817-2.755 19.905s1.006 13.94 2.883 20.422l-0.128-0.518 52.278 186.992c-34.713 67.214-55.065 146.704-55.065 230.947 0 282.681 229.158 511.838 511.838 511.838s511.838-229.158 511.838-511.838c0-282.681-229.158-511.838-511.838-511.838-84.059 0-163.385 20.263-233.361 56.172l2.88-1.343-187.131-52.278c-6.025-1.77-12.947-2.788-20.107-2.788-33.831 0-62.351 22.735-71.116 53.761l-0.126 0.521zM310.807 86.185c57.89-32.761 127.133-52.067 200.885-52.067 228.404 0 413.562 185.158 413.562 413.562s-185.158 413.562-413.562 413.562c-228.404 0-413.562-185.158-413.562-413.562 0-73.878 19.371-143.231 53.312-203.257l-1.071 2.060 9.975-17.595-51.493-184.221 184.36 51.355zM349.277 311.139c-26.952 0.244-48.708 22.149-48.708 49.136 0 24.656 18.16 45.071 41.834 48.599l0.269 0.033h0.785l5.496 0.277h225.416c27.064-0.064 48.979-22.019 48.979-49.092 0-24.744-18.306-45.212-42.113-48.6l-0.261-0.031h-0.785l-5.819-0.508zM349.277 486.308c-26.952 0.244-48.708 22.149-48.708 49.136 0 24.656 18.16 45.071 41.834 48.599l0.269 0.033h0.785l5.496 0.277h325.816c27.009-0.169 48.839-22.104 48.839-49.137 0-24.654-18.156-45.067-41.827-48.598l-0.269-0.033h-0.924l-5.819-0.462z" />
<glyph unicode="&#xe969;" horiz-adv-x="1489" d="M837.822 913.446h279.287v-238.767c0-22.358-18.124-40.482-40.482-40.482v0h-198.323c-22.358 0-40.482 18.124-40.482 40.482v0z" />
<glyph unicode="&#xe96a;" horiz-adv-x="1489" d="M1349.803-64h-744.713c-77.112 0-139.624 62.512-139.624 139.624 0 0.013 0 0.027 0 0.040v-0.002 744.713c0 77.112 62.512 139.624 139.624 139.624v0h744.713c77.112 0 139.624-62.512 139.624-139.624v0-744.713c0-0.011 0-0.025 0-0.038 0-77.112-62.512-139.624-139.624-139.624v0zM605.089 866.892c-25.711 0-46.554-20.843-46.554-46.554v0-744.713c0-25.711 20.843-46.554 46.554-46.554h744.713c25.711 0 46.554 20.843 46.554 46.554v0 744.752c0 25.711-20.843 46.554-46.554 46.554v0z" />
<glyph unicode="&#xe96b;" horiz-adv-x="1489" d="M791.268 122.178h-93.070c-25.131 0.743-45.221 21.293-45.221 46.535s20.090 45.792 45.153 46.533l0.068 0.002h93.108c25.711 0 46.554-20.843 46.554-46.554s-20.843-46.554-46.554-46.554v0z" />
<glyph unicode="&#xe96c;" horiz-adv-x="1489" d="M325.803 401.427h-93.070c-25.131 0.743-45.221 21.293-45.221 46.535s20.090 45.792 45.153 46.533l0.068 0.002h93.070c25.711 0 46.554-20.843 46.554-46.554s-20.843-46.554-46.554-46.554v0z" />
<glyph unicode="&#xe96d;" horiz-adv-x="1489" d="M325.841 587.605h-186.178c-25.131 0.743-45.221 21.293-45.221 46.535s20.090 45.792 45.153 46.533l0.068 0.002h186.178c25.711 0 46.554-20.843 46.554-46.554s-20.843-46.554-46.554-46.554v0z" />
<glyph unicode="&#xe96e;" horiz-adv-x="1489" d="M325.803 773.783h-279.248c-25.711 0-46.554 20.843-46.554 46.554s20.843 46.554 46.554 46.554h279.248c25.711 0 46.554-20.843 46.554-46.554s-20.843-46.554-46.554-46.554v0z" />
<glyph unicode="&#xe96f;" glyph-name="ar" horiz-adv-x="951" d="M548.578 740.578c0.632-0.041 1.369-0.065 2.113-0.065 19.071 0 34.53 15.46 34.53 34.53 0 0.743-0.023 1.481-0.070 2.213l0.005-0.1v73.299c0.010 0.543 0.015 1.184 0.015 1.825 0 59.5-48.234 107.734-107.734 107.734-0.642 0-1.282-0.006-1.921-0.017l0.096 0.001h-366.068c-0.543 0.010-1.184 0.015-1.825 0.015-59.5 0-107.734-48.234-107.734-107.734 0-0.642 0.006-1.282 0.017-1.921l-0.001 0.096v-804.912c-0.010-0.543-0.015-1.184-0.015-1.825 0-59.5 48.234-107.734 107.734-107.734 0.642 0 1.282 0.006 1.921 0.017l-0.096-0.001h365.735c0.543-0.010 1.184-0.015 1.825-0.015 59.5 0 107.734 48.234 107.734 107.734 0 0.642-0.006 1.282-0.017 1.921l0.001-0.096v146.456c0.041 0.632 0.065 1.369 0.065 2.113 0 19.071-15.46 34.53-34.53 34.53-0.743 0-1.481-0.023-2.213-0.070l0.1 0.005h-475.088v512zM256 118.844h73.156c20.202 0 36.578-16.377 36.578-36.578s-16.377-36.578-36.578-36.578v0h-73.156c-20.202 0-36.578 16.377-36.578 36.578s16.377 36.578 36.578 36.578v0zM709.465 736.911c-4.906 1.739-10.563 2.743-16.455 2.743s-11.55-1.005-16.811-2.852l0.355 0.109-215.754-109.544 234.044-102.4 234.044 102.4zM438.844 338.313c-0.001-0.098-0.002-0.214-0.002-0.331 0-14.658 8.972-27.22 21.725-32.495l0.233-0.085 197.465-98.733v255.809l-219.422 95.256zM731.422 462.479v-256l197.465 98.828c12.102 6.584 20.511 18.627 21.942 32.734l0.015 0.177v219.517z" />
<glyph unicode="&#xe970;" glyph-name="distributor" horiz-adv-x="1078" d="M1077.895 798.316c-0.1 89.255-72.429 161.584-161.675 161.684h-754.536c-89.255-0.1-161.584-72.429-161.684-161.675v-152.594c0-0.045 0-0.098 0-0.151 0-56.469 20.375-108.179 54.175-148.179l-0.28 0.34v-453.953c0.050-59.51 48.279-107.739 107.785-107.789h754.531c59.51 0.050 107.739 48.279 107.789 107.785v454.046c33.52 39.66 53.895 91.37 53.895 147.839 0 0.053 0 0.106 0 0.159v-0.008zM970.105 798.316v-152.584c0.029-0.959 0.045-2.087 0.045-3.219 0-58.782-44.397-107.195-101.488-113.536l-0.515-0.046h-5.831c-59.51 0.050-107.739 48.279-107.789 107.785v215.496h161.684c29.745-0.050 53.845-24.15 53.895-53.89v-0.005zM431.158 852.211h215.579v-215.579c0-59.53-48.259-107.789-107.789-107.789s-107.789 48.259-107.789 107.789v0zM107.789 798.316c0.050 29.745 24.15 53.845 53.89 53.895h161.689v-215.579c-0.050-59.51-48.279-107.739-107.785-107.789h-5.836c-57.601 6.342-102.008 54.737-102.008 113.503 0 1.191 0.018 2.378 0.054 3.56l-0.004-0.173zM431.158 43.789v161.684h215.579v-161.684zM754.526 43.789v161.684c-0.050 59.51-48.279 107.739-107.785 107.789h-215.584c-59.51-0.050-107.739-48.279-107.789-107.785v-161.689h-161.684v384.331c12.455-3.463 26.952-5.861 41.868-6.691l0.541-0.024c3.481-0.201 7.552-0.316 11.65-0.316 64.255 0 121.926 28.193 161.317 72.883l0.203 0.235c39.655-44.931 97.377-73.123 161.684-73.123s122.029 28.192 161.482 72.89l0.202 0.233c39.594-44.925 97.265-73.118 161.52-73.118 4.098 0 8.169 0.115 12.211 0.341l-0.561-0.025c15.454 0.849 29.952 3.247 43.868 7.055l-1.459-0.34v-384.331z" />
</font>
</defs>
</svg>
