<svg xmlns="http://www.w3.org/2000/svg" width="23.999" height="24.05" viewBox="0 0 23.999 24.05">
  <g id="Icon_Status-Active-Processing" data-name="Icon Status-Active-Processing" transform="translate(0)">
    <path id="iconfinder_Package_box_7340538" d="M9.139,26.6l6.679,3a5.069,5.069,0,0,0,4.134,0l6.679-3a2.671,2.671,0,0,0,1.549-2.418v-4.2l.748-.407a2,2,0,0,0,.815-2.752l-1.516-2.812h0l1.049-2.137A2,2,0,0,0,28.353,9.2L21.828,6.177a1.91,1.91,0,0,0-2.471.755l-1.449,2.4-1.463-2.4A1.943,1.943,0,0,0,14.8,6a1.917,1.917,0,0,0-.8.18L7.5,9.216a2,2,0,0,0-.928,2.671l1.055,2.124h0L6.34,16.275a2.671,2.671,0,0,0,1.029,3.64l.227.12v4.147A2.671,2.671,0,0,0,9.139,26.6ZM17.908,19.3ZM9.686,25.364a1.336,1.336,0,0,1-.755-1.2V20.783l4.675,2.545a2.6,2.6,0,0,0,3.573-1.175l.04-.08v6.565a3.553,3.553,0,0,1-.848-.26Zm17.2-1.2a1.336,1.336,0,0,1-.755,1.2l-6.679,3a3.513,3.513,0,0,1-.855.26V22.072a2.725,2.725,0,0,0,2.217,1.543h.174a2.524,2.524,0,0,0,1.249-.327l4.675-2.558Zm1.73-6.679a.708.708,0,0,1,.087.528.668.668,0,0,1-.314.381H28.36l-6.819,3.72a1.169,1.169,0,0,1-.574.147,1.229,1.229,0,0,1-1.109-.708l-.614-1.249v-.194L27.685,15.8ZM18.6,18.966V10.992l8.054,3.847Zm.668-9.223,1.276-2.1a.588.588,0,0,1,.474-.307.574.574,0,0,1,.24.053l6.5,3.039a.628.628,0,0,1,.321.361.708.708,0,0,1-.047.554l-1.089,2.2L19.243,9.83ZM7.736,10.785a.628.628,0,0,1,.321-.361l6.5-3.039a.568.568,0,0,1,.234-.053.588.588,0,0,1,.508.294l1.269,2.1v.1L8.858,13.517,7.769,11.339A.668.668,0,0,1,7.736,10.785Zm9.5.207v7.961L9.185,14.839ZM7.509,16.923,8.137,15.8l8.435,4.314v.194l-.614,1.262a1.242,1.242,0,0,1-1.109.708,1.142,1.142,0,0,1-.568-.147L8,18.739a1.32,1.32,0,0,1-.494-1.817Z" transform="translate(-5.999 -5.989)" fill="#06aec9"/>
  </g>
</svg>
