<svg xmlns="http://www.w3.org/2000/svg" width="23.049" height="27.392" viewBox="0 0 23.049 27.392">
  <g id="Group_1344" data-name="Group 1344" transform="translate(-352.691 -840.346)">
    <g id="layer2" transform="translate(352.691 857.864)">
      <path id="rect1021" d="M1.27,11.379a.823.823,0,0,0-.741.82v8.233a.823.823,0,0,0,.82.82H4.643a.823.823,0,0,0,.826-.82h8.872a.823.823,0,0,0,.293-.055l6.417-2.455a3.356,3.356,0,0,0,2.527-3.05,1.965,1.965,0,0,0-.868-1.67,2.557,2.557,0,0,0-2.158-.14l-.043.011-6.319,2.42H12.938a2.814,2.814,0,0,0,.127-.955,2.824,2.824,0,0,0-.814-1.592A2.8,2.8,0,0,0,10.3,12.2H5.47a.823.823,0,0,0-.826-.82H1.349q-.039,0-.079,0Zm.907,1.64H3.823v6.587H2.177Zm3.293.826H10.3a1.047,1.047,0,0,1,.807.286,1.206,1.206,0,0,1,.33.669,1.19,1.19,0,0,1-.061.632c-.024.048-.023.056-.021.061H7.936a.823.823,0,0,0,0,1.646h6.405a.823.823,0,0,0,.293-.055l6.417-2.455c.5-.158.713-.077.777-.037s.1.085.1.28a1.814,1.814,0,0,1-1.379,1.482l-.043.013L14.19,18.786H5.47V13.845Z" transform="translate(-0.529 -11.378)" fill="#7b9aaf"/>
    </g>
    <g id="iconfinder_Artboard_2_6002216" transform="translate(357.229 840.445)">
      <path id="Union_3" data-name="Union 3" d="M-6806.231-157.4a3.787,3.787,0,0,1-3.782-3.782v-5.666a3.788,3.788,0,0,1,3.068-3.713,3.847,3.847,0,0,1,3.782-3.194h.561a3.849,3.849,0,0,1,3.779,3.194,3.786,3.786,0,0,1,3.066,3.713v5.666a3.786,3.786,0,0,1-3.781,3.782Zm-2.244-9.448v5.666a2.245,2.245,0,0,0,2.244,2.242h6.693a2.245,2.245,0,0,0,2.243-2.242v-5.666a2.229,2.229,0,0,0-.657-1.586,2.227,2.227,0,0,0-.817-.522v2.59a1.1,1.1,0,0,1,.338.8,1.109,1.109,0,0,1-1.107,1.107,1.11,1.11,0,0,1-1.107-1.107,1.1,1.1,0,0,1,.338-.8v-2.724h-5.154v2.724a1.1,1.1,0,0,1,.338.8,1.11,1.11,0,0,1-1.108,1.107,1.11,1.11,0,0,1-1.107-1.107,1.1,1.1,0,0,1,.338-.8v-2.589A2.247,2.247,0,0,0-6808.475-166.85Zm8.055-3.781a2.3,2.3,0,0,0-2.186-1.588h-.555a2.3,2.3,0,0,0-2.187,1.588Z" transform="translate(6809.912 173.657)" fill="#7b9aaf"/>
    </g>
  </g>
</svg>
