<svg xmlns="http://www.w3.org/2000/svg" width="30.699" height="20.465" viewBox="0 0 30.699 20.465">
  <path id="Union_25" data-name="Union 25" d="M15314.987,2857.327a3.138,3.138,0,0,1,6.031-1.215H15323v-5.3l-3.854-4.819h-5.188v10.965a.85.85,0,0,1-.85.85h-8.668a3.138,3.138,0,1,1-.207-1.7h8.024V2841.7h-17.406a.85.85,0,1,1,0-1.7h18.257a.85.85,0,0,1,.85.85v3.446h5.6a.842.842,0,0,1,.662.319l4.3,5.369a.856.856,0,0,1,.185.531v6.446a.85.85,0,0,1-.85.85h-2.622a3.138,3.138,0,0,1-6.239-.485Zm1.7,0a1.44,1.44,0,1,0,1.442-1.438A1.442,1.442,0,0,0,15316.683,2857.327Zm-16.787,0a1.44,1.44,0,0,0,2.872.153.856.856,0,0,1-.136-.778,1.44,1.44,0,0,0-2.736.626Zm-4.665-6.78a.85.85,0,1,1,0-1.7h9.157a.85.85,0,0,1,0,1.7Zm1.526-4.581a.85.85,0,0,1,0-1.7h9.157a.85.85,0,1,1,0,1.7Z" transform="translate(-15293.999 -2840)" fill="#7b9aaf"/>
</svg>
