<svg xmlns="http://www.w3.org/2000/svg" width="31.5" height="31.502" viewBox="0 0 31.5 31.502">
  <g id="Group_4376" data-name="Group 4376" transform="translate(-1152.251 -343.25)">
    <path id="Path_2009" data-name="Path 2009" d="M14,10h4v3a1,1,0,0,1-1,1H15a1,1,0,0,1-1-1Z" transform="translate(1152 343.001)" fill="#06aec9"/>
    <path id="Subtraction_1" data-name="Subtraction 1" d="M13788.251,2856h-8a2.753,2.753,0,0,1-2.748-2.752v-8a2.753,2.753,0,0,1,2.748-2.752h8a2.753,2.753,0,0,1,2.748,2.752v8A2.753,2.753,0,0,1,13788.251,2856Zm-8-12a1.251,1.251,0,0,0-1.249,1.25v8a1.251,1.251,0,0,0,1.249,1.25h8a1.251,1.251,0,0,0,1.249-1.25v-8a1.251,1.251,0,0,0-1.249-1.25Z" transform="translate(-12616.25 -2490.249)" fill="#06aec9"/>
    <path id="Path_2011" data-name="Path 2011" d="M15,19H14a1,1,0,0,1,0-2h1a1,1,0,0,1,0,2Z" transform="translate(1152 343.001)" fill="#06aec9"/>
    <path id="Subtraction_2" data-name="Subtraction 2" d="M13793.3,2862.4h-.045a15.768,15.768,0,0,1-15.75-15.75,15.47,15.47,0,0,1,.43-3.642.748.748,0,0,1,.71-.513.718.718,0,0,1,.174.021.755.755,0,0,1,.571.835,14.248,14.248,0,0,0,20.895,15.694l.1-.062a13.534,13.534,0,0,0,2.193-1.566l.2-.177-1.061-1.057a.756.756,0,0,1-.187-.752.765.765,0,0,1,.54-.53l4-1h.007a.717.717,0,0,1,.208-.031.747.747,0,0,1,.721.953l-1,4.006a.742.742,0,0,1-.523.541l-.01,0a.607.607,0,0,1-.185.029h-.044a.74.74,0,0,1-.527-.218l-.891-.873-.173.156a15.308,15.308,0,0,1-2.633,1.9l-.507.267A15.623,15.623,0,0,1,13793.3,2862.4Z" transform="translate(-12625.25 -2487.653)" fill="#06aec9"/>
    <path id="Subtraction_3" data-name="Subtraction 3" d="M13805.713,2862.489a.559.559,0,0,1-.076-.005.756.756,0,0,1-.544-.894,14.235,14.235,0,0,0-20.864-15.736,13.581,13.581,0,0,0-2.294,1.639l-.2.177,1.057,1.046a.746.746,0,0,1,.188.752.758.758,0,0,1-.541.53l-3.975.995-.211.007a.736.736,0,0,1-.526-.218.745.745,0,0,1-.2-.749l1-4.009a.766.766,0,0,1,.526-.534h.007a.779.779,0,0,1,.219-.035.75.75,0,0,1,.526.218l.853.925.184-.163a15.951,15.951,0,0,1,2.648-1.889,15.743,15.743,0,0,1,23.085,17.354.752.752,0,0,1-.729.579h-.044l-.017,0A.546.546,0,0,1,13805.713,2862.489Z" transform="translate(-12623.262 -2499.25)" fill="#06aec9"/>
  </g>
</svg>
