<svg xmlns="http://www.w3.org/2000/svg" width="21" height="24.5" viewBox="0 0 21 24.5">
  <path id="_1608933_hourglass_o_icon" data-name="1608933_hourglass_o_icon" d="M147.25,1.75a13.248,13.248,0,0,1-1.456,6.31,11.169,11.169,0,0,1-3.644,4.19,11.169,11.169,0,0,1,3.644,4.19,13.248,13.248,0,0,1,1.456,6.31h1.313a.421.421,0,0,1,.438.438v.875a.421.421,0,0,1-.437.438H128.438a.421.421,0,0,1-.437-.437v-.875a.421.421,0,0,1,.438-.438h1.313a13.248,13.248,0,0,1,1.456-6.31,11.169,11.169,0,0,1,3.644-4.19,11.169,11.169,0,0,1-3.644-4.19,13.248,13.248,0,0,1-1.456-6.31h-1.312A.421.421,0,0,1,128,1.313V.438A.421.421,0,0,1,128.438,0h20.125A.421.421,0,0,1,149,.438v.875a.421.421,0,0,1-.437.438Zm-7.3,9.68a6.625,6.625,0,0,0,2.037-1.265,9.97,9.97,0,0,0,1.771-2.085,10.785,10.785,0,0,0,1.265-2.871A12.387,12.387,0,0,0,145.5,1.75h-14a12.386,12.386,0,0,0,.479,3.459,10.785,10.785,0,0,0,1.265,2.871,9.969,9.969,0,0,0,1.771,2.085,6.625,6.625,0,0,0,2.037,1.265.873.873,0,0,1,0,1.641,6.625,6.625,0,0,0-2.037,1.265,9.969,9.969,0,0,0-1.771,2.085,10.785,10.785,0,0,0-1.265,2.871,12.386,12.386,0,0,0-.479,3.459h14a12.387,12.387,0,0,0-.479-3.459,10.785,10.785,0,0,0-1.265-2.871,9.97,9.97,0,0,0-1.771-2.085,6.625,6.625,0,0,0-2.037-1.265.873.873,0,0,1,0-1.641Z" transform="translate(-128)" fill="#7B9AAF"/>
</svg>
