<svg xmlns="http://www.w3.org/2000/svg" width="40" height="40" viewBox="0 0 40 40">
  <g id="Group_3873" data-name="Group 3873" transform="translate(-289 -696)">
    <circle id="Ellipse_269" data-name="Ellipse 269" cx="10" cy="10" r="10" transform="translate(299 706)" fill="#fff"/>
    <path id="Path_1967" data-name="Path 1967" d="M-17920.5-21357.834s2.652-3.5,6.666-3.5,6.5,3.5,6.5,3.5a6.654,6.654,0,0,1-6.5,3.334A8.934,8.934,0,0,1-17920.5-21357.834Z" transform="translate(18223 22081)" fill="#f58732"/>
    <circle id="Ellipse_270" data-name="Ellipse 270" cx="4.5" cy="4.5" r="4.5" transform="translate(305 711)" fill="#fff"/>
    <circle id="Ellipse_244" data-name="Ellipse 244" cx="20" cy="20" r="20" transform="translate(289 696)" fill="none"/>
    <path id="Union_38" data-name="Union 38" d="M21937.834,20841.744a.97.97,0,0,1-.182-.166,11.322,11.322,0,0,1-2.668-3.686,11.284,11.284,0,1,1,17.926,3.686,1.222,1.222,0,0,1-.182.166,11.254,11.254,0,0,1-14.895,0Zm1.73-.992a9.4,9.4,0,0,0,11.434,0,6.8,6.8,0,0,0-5.637-3.092h-.166A6.784,6.784,0,0,0,21939.564,20840.752Zm10.961-8.336a5.219,5.219,0,0,1-1.9,4.039,8.585,8.585,0,0,1,3.748,3,9.412,9.412,0,1,0-14.184,0,8.585,8.585,0,0,1,3.752-3,5.244,5.244,0,1,1,8.586-4.039Zm-8.625,0a3.393,3.393,0,0,0,3.328,3.377h.105a3.378,3.378,0,1,0-3.434-3.377Z" transform="translate(-21636.125 -20117.125)" fill="#42929d"/>
  </g>
</svg>
