<svg xmlns="http://www.w3.org/2000/svg" width="40" height="40" viewBox="0 0 40 40"><g id="Group_3873" data-name="Group 3873" transform="translate(-289 -696)"><circle id="Ellipse_244" data-name="Ellipse 244" cx="20" cy="20" r="20" transform="translate(289 696)" fill="none"></circle><path id="Union_6" data-name="Union 6" d="M2123.375-162.482a.8.8,0,0,1-.166-.149,11.129,11.129,0,0,1-3.617-8.215A11.166,11.166,0,0,1,2130.746-182a11.166,11.166,0,0,1,11.154,11.154,11.128,11.128,0,0,1-3.615,8.213.812.812,0,0,1-.168.151,11.11,11.11,0,0,1-7.371,2.789A11.108,11.108,0,0,1,2123.375-162.482Zm7.372,1.174a9.49,9.49,0,0,0,5.883-2.035,6.914,6.914,0,0,0-5.8-3.246h-.167a6.913,6.913,0,0,0-5.8,3.246A9.492,9.492,0,0,0,2130.746-161.309Zm-9.538-9.537a9.5,9.5,0,0,0,2.457,6.382,8.511,8.511,0,0,1,3.986-3.17,5.116,5.116,0,0,1-2.024-4.075,5.125,5.125,0,0,1,5.119-5.119,5.125,5.125,0,0,1,5.119,5.119,5.114,5.114,0,0,1-2.023,4.075,8.512,8.512,0,0,1,3.986,3.17,9.5,9.5,0,0,0,2.456-6.382,9.548,9.548,0,0,0-9.538-9.537A9.549,9.549,0,0,0,2121.209-170.846Zm9.591,2.64a3.506,3.506,0,0,0,3.449-3.5,3.506,3.506,0,0,0-3.5-3.5,3.506,3.506,0,0,0-3.5,3.5,3.506,3.506,0,0,0,3.449,3.5h.106Z" transform="translate(-1821.592 887)" fill="#7b9aaf"></path></g></svg>