<svg id="Building" xmlns="http://www.w3.org/2000/svg" width="48" height="48" viewBox="0 0 48 48">
  <rect id="Rectangle_2651" data-name="Rectangle 2651" width="48" height="48" fill="none"/>
  <path id="Path_2076" data-name="Path 2076" d="M4,19.247v10.7c0,2.24,0,3.361.436,4.217a4,4,0,0,0,1.748,1.747c.855.436,1.974.436,4.21.436H29.606c2.236,0,3.354,0,4.209-.436a4,4,0,0,0,1.75-1.747C36,33.3,36,32.185,36,29.95v-10.7a8.621,8.621,0,0,0-.131-2.1,4,4,0,0,0-.56-1.235,8.607,8.607,0,0,0-1.494-1.482l-9.6-8.4c-1.493-1.307-2.24-1.96-3.08-2.208a4,4,0,0,0-2.27,0c-.84.248-1.585.9-3.076,2.205l-9.6,8.4a8.6,8.6,0,0,0-1.494,1.482,4,4,0,0,0-.561,1.235A8.625,8.625,0,0,0,4,19.247Z" transform="translate(4 4)" fill="none" stroke="#8199ad" stroke-linecap="round" stroke-linejoin="round" stroke-width="4"/>
</svg>
