<svg width="40" height="40" xmlns="http://www.w3.org/2000/svg"><g><title>Layer 1</title><g data-name="Group 3821" id="Group_3821"><path fill="#7b9aaf" d="m21.81844,27.7925a2.659,2.659 0 0 1 0.293,-1.217l-5.359,0a2.659,2.659 0 0 1 0.293,1.217a2.682,2.682 0 0 1 -2.679,2.679a2.682,2.682 0 0 1 -2.679,-2.679a2.673,2.673 0 0 1 0.929,-2.027l-0.66,-3.629a0.764,0.764 0 0 1 -0.021,-0.117l-2,-10.988l-1.8,-0.043a0.731,0.731 0 0 1 -0.731,-0.731a0.731,0.731 0 0 1 0.731,-0.73l1.763,0a1.513,1.513 0 0 1 1.479,1.245l0.482,2.651l15.758,0a0.731,0.731 0 0 1 0.561,0.263a0.731,0.731 0 0 1 0.157,0.6l-1.188,6.517a2.275,2.275 0 0 1 -2.244,1.876l-11.361,0l0.443,2.435l10.515,0a2.682,2.682 0 0 1 2.678,2.679a2.681,2.681 0 0 1 -2.678,2.679a2.682,2.682 0 0 1 -2.682,-2.68zm1.461,0a1.219,1.219 0 0 0 1.218,1.218a1.219,1.219 0 0 0 1.217,-1.218a1.219,1.219 0 0 0 -1.217,-1.217a1.219,1.219 0 0 0 -1.214,1.217l-0.004,0zm-10.131,0a1.219,1.219 0 0 0 1.218,1.218a1.219,1.219 0 0 0 1.217,-1.218a1.219,1.219 0 0 0 -1.217,-1.217a1.219,1.219 0 0 0 -1.218,1.217zm11.748,-6.575a0.818,0.818 0 0 0 0.81,-0.674l1.031,-5.658l-14.615,0l1.152,6.332l11.622,0z" data-name="Union 13" id="Union_13"></path><circle fill="#f58732" r="4.5" cy="14.0275" cx="28.09555" data-name="Ellipse 268" id="Ellipse_268"></circle></g></g></svg>