<svg xmlns="http://www.w3.org/2000/svg" width="29.328" height="27" viewBox="0 0 29.328 27">
  <g id="Group_1901" data-name="Group 1901" transform="translate(-791.051 -254.5)">
    <g id="XMLID_1_" transform="translate(791.051 254.5)">
      <path id="XMLID_2_" d="M63.271,64.893H41.286A1.286,1.286,0,0,1,40,63.522L41.224,45.2A1.286,1.286,0,0,1,42.507,44H62.05a1.286,1.286,0,0,1,1.283,1.2l1.221,18.321a1.286,1.286,0,0,1-1.283,1.371ZM42.66,62.321H61.9l-1.05-15.75H43.71Z" transform="translate(-40 -37.893)" fill="#fff"/>
      <path id="XMLID_17_" d="M54.614,50.732a1.286,1.286,0,0,1-1.286-1.286v-5.5a2.379,2.379,0,1,0-4.757,0v5.5a1.286,1.286,0,0,1-2.571,0v-5.5a4.95,4.95,0,0,1,9.9,0v5.5A1.286,1.286,0,0,1,54.614,50.732Z" transform="translate(-38.671 -39)" fill="#fff"/>
    </g>
    <circle id="Ellipse_219" data-name="Ellipse 219" cx="5.786" cy="5.786" r="5.786" transform="translate(806.414 265.429)" fill="#fff"/>
    <path id="_9298766_verified_ui_shield_check_protection_icon" data-name="9298766_verified_ui_shield_check_protection_icon" d="M51.494,1.82,46.844.352a7.575,7.575,0,0,0-4.562,0L37.632,1.82A2.335,2.335,0,0,0,36,4.047v8.072a4.671,4.671,0,0,0,1.9,3.76l4.555,3.356a3.553,3.553,0,0,0,4.216,0l4.555-3.356a4.671,4.671,0,0,0,1.9-3.76V4.047A2.335,2.335,0,0,0,51.494,1.82ZM48.141,8.863l-3.853,3.853a1.168,1.168,0,0,1-1.651,0l-1.651-1.651a1.168,1.168,0,0,1,0-1.651h0a1.168,1.168,0,0,1,1.651,0l.826.826L46.49,7.212a1.168,1.168,0,0,1,1.651,0h0A1.168,1.168,0,0,1,48.141,8.863Z" transform="translate(767.253 260.286)" fill="#f58732"/>
  </g>
</svg>
