<svg id="Category_Icons-OTC" data-name="Category Icons-OTC" xmlns="http://www.w3.org/2000/svg" width="56.087" height="56.092" viewBox="0 0 56.087 56.092">
  <g id="Group_3622" data-name="Group 3622" transform="translate(0 0)">
    <path id="Path_1895" data-name="Path 1895" d="M120.745,102.7A12.406,12.406,0,0,1,103.2,120.245Z" transform="translate(-69.597 -69.141)" fill="#f58732"/>
    <g id="Group_3598" data-name="Group 3598">
      <path id="Path_1874" data-name="Path 1874" d="M56.2,80.3H29.025A2.633,2.633,0,0,1,26.4,77.673V28.625A2.633,2.633,0,0,1,29.025,26H60.572A2.633,2.633,0,0,1,63.2,28.625V52.252a.875.875,0,0,1-1.75,0V28.625a.878.878,0,0,0-.875-.875H29.025a.878.878,0,0,0-.875.875V77.673a.878.878,0,0,0,.875.875H56.2a.875.875,0,1,1,0,1.75Z" transform="translate(-26.4 -26)" fill="#06aec9"/>
    </g>
    <g id="Group_3599" data-name="Group 3599" transform="translate(28.046 28.013)">
      <path id="Path_1875" data-name="Path 1875" d="M114.433,94.127a14.022,14.022,0,0,0-19.82,0,14.049,14.049,0,0,0,0,19.864,14.031,14.031,0,1,0,19.82-19.864ZM95.838,95.4a12.153,12.153,0,0,1,8.663-3.588,12.019,12.019,0,0,1,8.007,3.019L95.225,112.11a12.214,12.214,0,0,1-3.019-8.007A12.394,12.394,0,0,1,95.838,95.4Zm17.37,17.326a12.247,12.247,0,0,1-16.714.569l17.283-17.283A12.334,12.334,0,0,1,113.208,112.722Z" transform="translate(-90.5 -90.025)" fill="#f58732"/>
      <path id="Path_1876" data-name="Path 1876" d="M100.25,108.6A8.776,8.776,0,0,1,109,99.85a.875.875,0,1,0,0-1.75,10.5,10.5,0,0,0-10.5,10.5.875.875,0,1,0,1.75,0Z" transform="translate(-95 -94.567)" fill="#f58732"/>
    </g>
    <g id="Group_3600" data-name="Group 3600" transform="translate(17.545 4.375)">
      <path id="Path_1877" data-name="Path 1877" d="M67.375,83.3a.878.878,0,0,1-.875-.875V36.875a.875.875,0,1,1,1.75,0V82.423A.878.878,0,0,1,67.375,83.3Z" transform="translate(-66.5 -36)" fill="#06aec9"/>
    </g>
    <g id="Group_3601" data-name="Group 3601" transform="translate(6.126 6.125)">
      <path id="Path_1878" data-name="Path 1878" d="M43.9,47a3.5,3.5,0,1,1,3.5-3.5A3.511,3.511,0,0,1,43.9,47Zm0-5.25a1.75,1.75,0,1,0,1.75,1.75A1.755,1.755,0,0,0,43.9,41.75Z" transform="translate(-40.4 -40)" fill="#f58732"/>
    </g>
    <g id="Group_3602" data-name="Group 3602" transform="translate(6.126 23.671)">
      <path id="Path_1879" data-name="Path 1879" d="M43.9,87.1a3.5,3.5,0,1,1,3.5-3.5A3.455,3.455,0,0,1,43.9,87.1Zm0-5.294a1.75,1.75,0,1,0,1.75,1.75A1.755,1.755,0,0,0,43.9,81.806Z" transform="translate(-40.4 -80.1)" fill="#f58732"/>
    </g>
    <g id="Group_3603" data-name="Group 3603" transform="translate(6.126 41.172)">
      <path id="Path_1880" data-name="Path 1880" d="M43.9,127.1a3.5,3.5,0,1,1,3.5-3.5A3.455,3.455,0,0,1,43.9,127.1Zm0-5.25a1.75,1.75,0,1,0,1.75,1.75A1.755,1.755,0,0,0,43.9,121.85Z" transform="translate(-40.4 -120.1)" fill="#f58732"/>
    </g>
    <g id="Group_3607" data-name="Group 3607" transform="translate(3.5 17.501)">
      <g id="Group_3604" data-name="Group 3604" transform="translate(0 0)">
        <path id="Path_1881" data-name="Path 1881" d="M36.15,67.75h-.875a.875.875,0,0,1,0-1.75h.875a.875.875,0,1,1,0,1.75Z" transform="translate(-34.4 -66)" fill="#06aec9"/>
      </g>
      <g id="Group_3605" data-name="Group 3605" transform="translate(4.375 0)">
        <path id="Path_1882" data-name="Path 1882" d="M46.15,67.75h-.875a.875.875,0,0,1,0-1.75h.875a.875.875,0,1,1,0,1.75Z" transform="translate(-44.4 -66)" fill="#06aec9"/>
      </g>
      <g id="Group_3606" data-name="Group 3606" transform="translate(8.794 0)">
        <path id="Path_1883" data-name="Path 1883" d="M56.25,67.75h-.875a.875.875,0,0,1,0-1.75h.875a.875.875,0,1,1,0,1.75Z" transform="translate(-54.5 -66)" fill="#06aec9"/>
      </g>
    </g>
    <g id="Group_3611" data-name="Group 3611" transform="translate(3.5 35.047)">
      <g id="Group_3608" data-name="Group 3608">
        <path id="Path_1884" data-name="Path 1884" d="M36.15,107.85h-.875a.875.875,0,0,1,0-1.75h.875a.875.875,0,1,1,0,1.75Z" transform="translate(-34.4 -106.1)" fill="#06aec9"/>
      </g>
      <g id="Group_3609" data-name="Group 3609" transform="translate(4.375)">
        <path id="Path_1885" data-name="Path 1885" d="M46.15,107.85h-.875a.875.875,0,0,1,0-1.75h.875a.875.875,0,1,1,0,1.75Z" transform="translate(-44.4 -106.1)" fill="#06aec9"/>
      </g>
      <g id="Group_3610" data-name="Group 3610" transform="translate(8.794)">
        <path id="Path_1886" data-name="Path 1886" d="M56.25,107.85h-.875a.875.875,0,0,1,0-1.75h.875a.875.875,0,0,1,0,1.75Z" transform="translate(-54.5 -106.1)" fill="#06aec9"/>
      </g>
    </g>
    <g id="Group_3612" data-name="Group 3612" transform="translate(22.796 6.125)">
      <path id="Path_1887" data-name="Path 1887" d="M82,47a3.5,3.5,0,1,1,3.5-3.5A3.511,3.511,0,0,1,82,47Zm0-5.25a1.75,1.75,0,1,0,1.75,1.75A1.755,1.755,0,0,0,82,41.75Z" transform="translate(-78.5 -40)" fill="#f58732"/>
    </g>
    <g id="Group_3613" data-name="Group 3613" transform="translate(22.796 23.671)">
      <path id="Path_1888" data-name="Path 1888" d="M82,87.1a3.5,3.5,0,1,1,3.5-3.5A3.511,3.511,0,0,1,82,87.1Zm0-5.294a1.75,1.75,0,1,0,1.75,1.75A1.755,1.755,0,0,0,82,81.806Z" transform="translate(-78.5 -80.1)" fill="#f58732"/>
    </g>
    <g id="Group_3614" data-name="Group 3614" transform="translate(22.796 41.292)">
      <path id="Path_1889" data-name="Path 1889" d="M82,127.255a3.511,3.511,0,0,1-3.5-3.5,3.583,3.583,0,0,1,2.363-3.325.886.886,0,1,1,.613,1.663,1.792,1.792,0,0,0-1.181,1.663,1.755,1.755,0,0,0,1.75,1.75.878.878,0,0,1,.875.875A.916.916,0,0,1,82,127.255Z" transform="translate(-78.5 -120.375)" fill="#f58732"/>
    </g>
    <g id="Group_3618" data-name="Group 3618" transform="translate(21.046 17.501)">
      <g id="Group_3615" data-name="Group 3615" transform="translate(8.751 0)">
        <path id="Path_1890" data-name="Path 1890" d="M96.25,67.75h-.875a.875.875,0,1,1,0-1.75h.875a.875.875,0,1,1,0,1.75Z" transform="translate(-94.5 -66)" fill="#06aec9"/>
      </g>
      <g id="Group_3616" data-name="Group 3616" transform="translate(4.375 0)">
        <path id="Path_1891" data-name="Path 1891" d="M86.25,67.75h-.875a.875.875,0,1,1,0-1.75h.875a.875.875,0,1,1,0,1.75Z" transform="translate(-84.5 -66)" fill="#06aec9"/>
      </g>
      <g id="Group_3617" data-name="Group 3617" transform="translate(0 0)">
        <path id="Path_1892" data-name="Path 1892" d="M76.25,67.75h-.875a.875.875,0,1,1,0-1.75h.875a.875.875,0,0,1,0,1.75Z" transform="translate(-74.5 -66)" fill="#06aec9"/>
      </g>
    </g>
    <g id="Group_3621" data-name="Group 3621" transform="translate(21.046 35.047)">
      <g id="Group_3619" data-name="Group 3619" transform="translate(4.375)">
        <path id="Path_1893" data-name="Path 1893" d="M86.25,107.85h-.875a.875.875,0,1,1,0-1.75h.875a.875.875,0,1,1,0,1.75Z" transform="translate(-84.5 -106.1)" fill="#06aec9"/>
      </g>
      <g id="Group_3620" data-name="Group 3620">
        <path id="Path_1894" data-name="Path 1894" d="M76.25,107.85h-.875a.875.875,0,1,1,0-1.75h.875a.875.875,0,0,1,0,1.75Z" transform="translate(-74.5 -106.1)" fill="#06aec9"/>
      </g>
    </g>
  </g>
</svg>
