<svg id="Category_Icons-Herbal" data-name="Category Icons-Herbal" xmlns="http://www.w3.org/2000/svg" width="54.298" height="54.254" viewBox="0 0 54.298 54.254">
  <rect id="Rectangle_2080" data-name="Rectangle 2080" width="9.188" height="26.777" transform="translate(3.019 18.026)" fill="#f58732"/>
  <g id="Group_3563" data-name="Group 3563" transform="translate(0 0)">
    <g id="Group_3562" data-name="Group 3562">
      <path id="Path_1843" data-name="Path 1843" d="M71.672,66.788h0a.331.331,0,0,0-.175-.044c-.044,0-.131-.044-.175-.044h-.044c-.044,0-.088,0-.088.044-.044,0-.131.044-.175.044s-.088.044-.131.088-.088.044-.131.088-.088.088-.088.131-.044.044-.088.088c-.263.613-6.694,15.357-1.05,26.34,2.756,5.382,7.963,8.926,15.489,10.457h.175a.843.843,0,0,0,.831-.656v-.175a.871.871,0,0,0-.306-.7c-10.238-8.051-12.82-28-13.389-33.515,3.807,1.925,14.789,8.269,16.583,18.245a.887.887,0,0,0,1.006.7.854.854,0,0,0,.7-1.006C88.211,73.963,72.372,67.094,71.672,66.788Zm-.656,26.033c-3.675-7.219-1.706-16.451-.175-21.4.831,6.957,3.5,21.789,11.332,30.19C76.922,99.909,73.159,96.977,71.015,92.821Z" transform="translate(-50.276 -49.811)" fill="#06aec9"/>
      <path id="Path_1844" data-name="Path 1844" d="M53.921,80.648H31.869v-44.1H54.8v8.488a.831.831,0,1,0,1.663,0V36.544h.831a.831.831,0,0,0,.831-.831V32.3a.831.831,0,0,0-.831-.831h-.831V28.931a.831.831,0,0,0-.831-.831H30.994a.831.831,0,0,0-.831.831v2.538h-.831a.831.831,0,0,0-.831.831v3.413a.831.831,0,0,0,.831.831h.831V81.523a.831.831,0,0,0,.831.831H53.921a.831.831,0,0,0,.831-.831A.841.841,0,0,0,53.921,80.648ZM30.163,33.132h5.075a.831.831,0,0,0,.831-.831.861.861,0,0,0-.831-.831H31.825V29.763H54.752V32.3a.831.831,0,0,0,.831.831h.831v1.706H30.163Z" transform="translate(-28.5 -28.1)" fill="#06aec9"/>
    </g>
    <path id="Path_1845" data-name="Path 1845" d="M125.949,96.031v-.088c0-.088-.044-.175-.044-.263a.094.094,0,0,0-.088-.088c-.044-.044-.088-.131-.131-.175a.043.043,0,0,0-.044-.044c-.044,0-.044-.044-.088-.044-.044-.044-.088-.044-.088-.088h-.088c-.044,0-.088-.044-.131-.044h-.306c-.481.088-11.682,2.406-17.02,10.5-2.581,3.894-3.325,8.488-2.188,13.651,0,.044.044.088.044.131s0,.044.044.088a.043.043,0,0,0,.044.044c0,.044.044.044.044.088l.131.131c.044,0,.044.044.088.044.044.044.088.044.131.087.044,0,.044.044.088.044a.476.476,0,0,0,.219.044h.175a16.813,16.813,0,0,0,12.47-4.857C126.037,108.239,125.949,96.513,125.949,96.031Zm-16.626,10.632c3.763-5.732,10.938-8.4,14.22-9.363-2.056,4.244-8.269,15.8-16.364,20.564A15.329,15.329,0,0,1,109.323,106.663Zm8.619,7.307a14.113,14.113,0,0,1-7.963,4.069c6.388-4.682,11.332-12.732,13.87-17.589C123.324,104.388,121.837,110.076,117.943,113.97Z" transform="translate(-71.651 -65.841)" fill="#f58732"/>
  </g>
</svg>
