<svg xmlns="http://www.w3.org/2000/svg" width="40" height="40" viewBox="0 0 40 40"><g id="Group_3871" data-name="Group 3871" transform="translate(-117 -696)"><g id="Group_1971" data-name="Group 1971" transform="translate(-11 689)"><path id="Rectangle_1531" data-name="Rectangle 1531" d="M3,1.5A1.5,1.5,0,0,0,1.5,3V6A1.5,1.5,0,0,0,3,7.5H6A1.5,1.5,0,0,0,7.5,6V3A1.5,1.5,0,0,0,6,1.5H3M3,0H6A3,3,0,0,1,9,3V6A3,3,0,0,1,6,9H3A3,3,0,0,1,0,6V3A3,3,0,0,1,3,0Z" transform="translate(149 28)" fill="#7b9aaf"></path><path id="Rectangle_1534" data-name="Rectangle 1534" d="M3,1.5A1.5,1.5,0,0,0,1.5,3V6A1.5,1.5,0,0,0,3,7.5H6A1.5,1.5,0,0,0,7.5,6V3A1.5,1.5,0,0,0,6,1.5H3M3,0H6A3,3,0,0,1,9,3V6A3,3,0,0,1,6,9H3A3,3,0,0,1,0,6V3A3,3,0,0,1,3,0Z" transform="translate(149 17)" fill="#7b9aaf"></path><path id="Rectangle_1532" data-name="Rectangle 1532" d="M3,1.5A1.5,1.5,0,0,0,1.5,3V6A1.5,1.5,0,0,0,3,7.5H6A1.5,1.5,0,0,0,7.5,6V3A1.5,1.5,0,0,0,6,1.5H3M3,0H6A3,3,0,0,1,9,3V6A3,3,0,0,1,6,9H3A3,3,0,0,1,0,6V3A3,3,0,0,1,3,0Z" transform="translate(138 28)" fill="#7b9aaf"></path><path id="Rectangle_1533" data-name="Rectangle 1533" d="M3,1.5A1.5,1.5,0,0,0,1.5,3V6A1.5,1.5,0,0,0,3,7.5H6A1.5,1.5,0,0,0,7.5,6V3A1.5,1.5,0,0,0,6,1.5H3M3,0H6A3,3,0,0,1,9,3V6A3,3,0,0,1,6,9H3A3,3,0,0,1,0,6V3A3,3,0,0,1,3,0Z" transform="translate(138 17)" fill="#7b9aaf"></path></g></g></svg>