<svg xmlns="http://www.w3.org/2000/svg" xmlns:xlink="http://www.w3.org/1999/xlink" width="55.961" height="56.792" viewBox="0 0 55.961 56.792">
  <defs>
    <clipPath id="clip-path">
      <path id="Path_1824" data-name="Path 1824" d="M44.308,94.346s-.788,1.794-1.794,1.794H28.294A1.8,1.8,0,0,1,26.5,94.346V69.494A1.8,1.8,0,0,1,28.294,67.7h14.22c.963,0,1.794,1.794,1.794,1.794S46.1,73.038,46.1,81.92,44.308,94.346,44.308,94.346Z" transform="translate(-26.5 -67.7)"/>
    </clipPath>
  </defs>
  <g id="Category_Icons-Device" data-name="Category Icons-Device" transform="translate(0 0.001)">
    <g id="Group_3550" data-name="Group 3550" transform="translate(0 18.594)">
      <g id="Group_3549" data-name="Group 3549">
        <g id="Group_3548" data-name="Group 3548" clip-path="url(#clip-path)">
          <rect id="Rectangle_2077" data-name="Rectangle 2077" width="91.27" height="91.27" transform="translate(-11.245 -37.322)" fill="none"/>
          <rect id="Rectangle_2078" data-name="Rectangle 2078" width="91.27" height="91.27" transform="translate(-11.245 -37.322)" fill="#f58732"/>
        </g>
      </g>
    </g>
    <g id="Group_3551" data-name="Group 3551" transform="translate(5.688 29.664)">
      <path id="Path_1825" data-name="Path 1825" d="M41.425,94.838V93h2.581v1.838h1.925v2.581H44.007v1.75H41.425v-1.75H39.5V94.838Z" transform="translate(-39.5 -93)" fill="#fff"/>
    </g>
    <g id="Group_3552" data-name="Group 3552" transform="translate(45.329 10.631)">
      <path id="Path_1826" data-name="Path 1826" d="M132.769,53a.864.864,0,0,1-.613-.263l-1.794-1.794a.835.835,0,0,1,1.181-1.181l1.794,1.794a.8.8,0,0,1,0,1.181A.705.705,0,0,1,132.769,53Z" transform="translate(-130.1 -49.5)" fill="#f58732"/>
    </g>
    <g id="Group_3553" data-name="Group 3553" transform="translate(3.632 5.293)">
      <path id="Path_1827" data-name="Path 1827" d="M77.775,94.7H74.231a.831.831,0,0,0-.831.831.861.861,0,0,0,.831.831h3.544A2.633,2.633,0,0,0,80.4,93.733V72.425A2.633,2.633,0,0,0,77.775,69.8H74.231a.831.831,0,0,0-.831.831.861.861,0,0,0,.831.831h3.544a.924.924,0,0,1,.919.919V93.689A.921.921,0,0,1,77.775,94.7Z" transform="translate(-56.511 -55.58)" fill="#06aec9"/>
      <path id="Path_1828" data-name="Path 1828" d="M87.129,45.263a7.963,7.963,0,1,0-8.838,7.919v13.87a4.9,4.9,0,0,1-2.363,4.2,19.018,19.018,0,0,0,.481-4.2,4.857,4.857,0,0,0-9.713,0,6.459,6.459,0,0,0,4.113,6.169.745.745,0,0,0,.306.044.864.864,0,0,0,.788-.525.839.839,0,0,0-.481-1.094A4.8,4.8,0,0,1,68.4,67.052a3.15,3.15,0,0,1,6.3,0A16.444,16.444,0,0,1,66.3,81.4,16.952,16.952,0,0,1,63.9,82.5a4.756,4.756,0,0,0,.044-.788V53.226h.919a.831.831,0,0,0,.831-.831V48.851a.831.831,0,0,0-1.663,0v2.713H62.19V48.851a.831.831,0,0,0-.831-.831.861.861,0,0,0-.831.831v3.544a.831.831,0,0,0,.831.831h.919V81.71A5.378,5.378,0,0,1,56.9,87.092H39.175a2.726,2.726,0,0,1-2.713-2.713V82.585a.831.831,0,1,0-1.663,0v1.794A4.435,4.435,0,0,0,39.219,88.8H56.983A7.139,7.139,0,0,0,63.5,84.51a18.994,18.994,0,0,0,3.763-1.575A18.266,18.266,0,0,0,75.36,73.44,6.576,6.576,0,0,0,80.085,67.1V53.183A7.963,7.963,0,0,0,87.129,45.263ZM79.166,51.52a6.257,6.257,0,1,1,6.257-6.257A6.255,6.255,0,0,1,79.166,51.52Z" transform="translate(-34.8 -37.3)" fill="#06aec9"/>
      <path id="Path_1829" data-name="Path 1829" d="M45.58,142.357H63.388a.841.841,0,0,0,.831-.875.831.831,0,0,0-.831-.831H45.58a.924.924,0,0,1-.919-.919.831.831,0,0,0-1.663,0A2.568,2.568,0,0,0,45.58,142.357Z" transform="translate(-39.411 -94.446)" fill="#06aec9"/>
    </g>
    <g id="Group_3554" data-name="Group 3554" transform="translate(25.858 1.749)">
      <path id="Path_1830" data-name="Path 1830" d="M91.769,45.126c-3.413,0-6.169-3.588-6.169-7.963S88.356,29.2,91.769,29.2s6.169,3.588,6.169,7.963S95.182,45.126,91.769,45.126Zm0-14.22c-2.45,0-4.463,2.8-4.463,6.257s1.969,6.257,4.463,6.257,4.463-2.8,4.463-6.257S94.219,30.906,91.769,30.906Z" transform="translate(-85.6 -29.2)" fill="#f58732"/>
    </g>
    <g id="Group_3555" data-name="Group 3555" transform="translate(31.196 -0.001)">
      <path id="Path_1831" data-name="Path 1831" d="M98.631,28.657a.831.831,0,0,1-.831-.831V26.031a.831.831,0,0,1,.831-.831.861.861,0,0,1,.831.831v1.794A.861.861,0,0,1,98.631,28.657Z" transform="translate(-97.8 -25.2)" fill="#06aec9"/>
    </g>
  </g>
</svg>
