<svg id="Category_Icons-Medicine" data-name="Category Icons-Medicine" xmlns="http://www.w3.org/2000/svg" width="59.505" height="54.867" viewBox="0 0 59.505 54.867">
  <g id="Group_3557" data-name="Group 3557" transform="translate(1.094 23.802)">
    <rect id="Rectangle_2079" data-name="Rectangle 2079" width="17.414" height="22.489" fill="#f58732"/>
  </g>
  <g id="Group_3558" data-name="Group 3558" transform="translate(0.831 28.352)">
    <path id="Path_1835" data-name="Path 1835" d="M24.4,92h3.413v4.288H32.1v5.119H27.813v4.244H24.4" transform="translate(-24.4 -92)" fill="#fff"/>
  </g>
  <g id="Group_3559" data-name="Group 3559" transform="translate(0 0)">
    <path id="Path_1836" data-name="Path 1836" d="M51.29,42.12a62.162,62.162,0,0,0-6.563-4.988V35.863H45.6a.875.875,0,1,0,0-1.75h-.875V32.407H45.6a.875.875,0,0,0,0-1.75h-.875V28.075a.878.878,0,0,0-.875-.875H31.907a.878.878,0,0,0-.875.875v2.581h-.875a.875.875,0,1,0,0,1.75h.875v1.706h-.875a.875.875,0,1,0,0,1.75h.875v1.313a62.162,62.162,0,0,0-6.563,4.988A5.69,5.69,0,0,0,22.5,46.189V78.654a3.417,3.417,0,0,0,3.413,3.413H47.265a.875.875,0,1,0,0-1.75H25.913a1.708,1.708,0,0,1-1.706-1.706V46.145a4.069,4.069,0,0,1,1.444-2.8,71.9,71.9,0,0,1,6.694-5.032.964.964,0,0,0,.394-.7V35.907h1.706a.875.875,0,0,0,0-1.75H32.738V32.45h3.413a.875.875,0,1,0,0-1.75H32.738V28.994H42.977V30.7H39.564a.875.875,0,0,0,0,1.75h3.413v1.706H37.858a.875.875,0,0,0,0,1.75h5.119v1.706a.742.742,0,0,0,.394.7,64.619,64.619,0,0,1,6.694,5.032,4.069,4.069,0,0,1,1.444,2.8v5.119a.875.875,0,1,0,1.75,0V46.145A5.769,5.769,0,0,0,51.29,42.12Z" transform="translate(-22.5 -27.2)" fill="#06aec9"/>
    <path id="Path_1837" data-name="Path 1837" d="M38.7,55.326a.844.844,0,0,0-1.181-.219,60.892,60.892,0,0,0-6.257,5.075A2.593,2.593,0,0,0,30.3,61.8v1.706a.875.875,0,0,0,1.75,0V61.933a3.859,3.859,0,0,1,.438-.569,55.886,55.886,0,0,1,5.994-4.857A.886.886,0,0,0,38.7,55.326Z" transform="translate(-26.887 -42.812)" fill="#06aec9"/>
    <path id="Path_1838" data-name="Path 1838" d="M31.075,138.8a.878.878,0,0,0-.875.875,1.708,1.708,0,0,0,1.706,1.706h3.457a.875.875,0,1,0,0-1.75H31.95A.87.87,0,0,0,31.075,138.8Z" transform="translate(-26.831 -89.971)" fill="#06aec9"/>
  </g>
  <g id="Group_3560" data-name="Group 3560" transform="translate(26.165 27.215)">
    <path id="Path_1839" data-name="Path 1839" d="M90,89.4a7.712,7.712,0,0,0-7.7,7.7v11.945a7.9,7.9,0,0,0,5.775,7.657c.088,0,.131.044.219.044a.843.843,0,0,0,.831-.656.884.884,0,0,0-.613-1.05,6.313,6.313,0,0,1-4.507-5.994v-5.119h4.288a.875.875,0,1,0,0-1.75H84.006V97.057a5.994,5.994,0,0,1,11.988,0v1.706a.875.875,0,1,0,1.75,0V97.057A7.74,7.74,0,0,0,90,89.4Z" transform="translate(-82.3 -89.4)" fill="#f58732"/>
    <path id="Path_1840" data-name="Path 1840" d="M94.388,97.2a4.3,4.3,0,0,0-4.288,4.288.875.875,0,0,0,1.75,0,2.586,2.586,0,0,1,2.581-2.581.878.878,0,0,0,.875-.875A.909.909,0,0,0,94.388,97.2Z" transform="translate(-86.687 -93.787)" fill="#f58732"/>
  </g>
  <g id="Group_3561" data-name="Group 3561" transform="translate(32.159 39.159)">
    <path id="Path_1841" data-name="Path 1841" d="M115.645,116.7H103.7a7.7,7.7,0,0,0,0,15.4h11.945a7.7,7.7,0,1,0,0-15.4Zm-17.939,7.7a6,6,0,0,1,5.994-5.994h5.119v11.945H103.7A5.994,5.994,0,0,1,97.706,124.4Zm17.939,5.95h-5.119V118.406h5.119a5.972,5.972,0,1,1,0,11.945Z" transform="translate(-96 -116.7)" fill="#06aec9"/>
    <path id="Path_1842" data-name="Path 1842" d="M108.088,124.5a4.3,4.3,0,0,0-4.288,4.288.875.875,0,0,0,1.75,0,2.586,2.586,0,0,1,2.581-2.581.855.855,0,1,0-.044-1.706Z" transform="translate(-100.387 -121.087)" fill="#06aec9"/>
  </g>
</svg>
