<svg id="Category_Icons-Cosmetic" data-name="Category Icons-Cosmetic" xmlns="http://www.w3.org/2000/svg" xmlns:xlink="http://www.w3.org/1999/xlink" width="54.342" height="54.386" viewBox="0 0 54.342 54.386">
  <defs>
    <clipPath id="clip-path">
      <rect id="Rectangle_2076" data-name="Rectangle 2076" width="11.42" height="22.621"/>
    </clipPath>
  </defs>
  <g id="Group_3544" data-name="Group 3544" transform="translate(7.001 21.658)">
    <g id="Group_3543" data-name="Group 3543">
      <g id="Group_3542" data-name="Group 3542" clip-path="url(#clip-path)">
        <rect id="Rectangle_2074" data-name="Rectangle 2074" width="91.401" height="91.401" transform="translate(-18.683 -43.71)" fill="none"/>
        <rect id="Rectangle_2075" data-name="Rectangle 2075" width="91.401" height="91.401" transform="translate(-18.683 -43.71)" fill="#f58732"/>
      </g>
    </g>
  </g>
  <path id="Path_1819" data-name="Path 1819" d="M53.033,27.9h-23.8a.831.831,0,0,0-.831.831v2.538a1.694,1.694,0,0,0,.875,1.488l1.663,39.291a1.708,1.708,0,0,0,1.706,1.706H49.621a1.7,1.7,0,0,0,1.706-1.663L52.99,32.757a1.694,1.694,0,0,0,.875-1.488V28.731A.861.861,0,0,0,53.033,27.9ZM30.106,29.606H52.2v1.706h-22.1ZM49.621,72.091l-16.976-.044L30.981,33.019h20.3Z" transform="translate(-28.4 -27.9)" fill="#06aec9"/>
  <g id="Group_3545" data-name="Group 3545" transform="translate(4.244 47.56)">
    <path id="Path_1820" data-name="Path 1820" d="M52.539,143.426h-11.9a2.54,2.54,0,0,1-2.538-2.538v-3.413a.831.831,0,0,1,.831-.831h11.9a.831.831,0,0,1,.831.831.861.861,0,0,1-.831.831H39.806v2.538a.831.831,0,0,0,.831.831h11.9a.831.831,0,0,0,.831-.831v-3.413a.831.831,0,1,1,1.663,0v3.413A2.486,2.486,0,0,1,52.539,143.426Z" transform="translate(-38.1 -136.6)" fill="#f58732"/>
  </g>
  <path id="Path_1821" data-name="Path 1821" d="M112.7,116.469v-1.838a.831.831,0,1,0,0-1.663v-2.538a.831.831,0,0,0-.831-.831H87.238a.831.831,0,0,0-.831.831v2.538a.831.831,0,1,0,0,1.663v1.838a2.512,2.512,0,0,0-1.706,2.406v6.782a2.54,2.54,0,0,0,2.538,2.538h24.633a2.54,2.54,0,0,0,2.538-2.538v-6.782A2.553,2.553,0,0,0,112.7,116.469Zm0,9.188a.831.831,0,0,1-.831.831H87.238a.831.831,0,0,1-.831-.831v-6.782a.831.831,0,0,1,.831-.831h19.514a.831.831,0,0,0,0-1.663H88.069v-1.706h16.976a.831.831,0,0,0,0-1.663H88.069v-1.706H111v1.706h-2.538a.831.831,0,0,0,0,1.663H111v1.706h-.831a.831.831,0,1,0,0,1.663h1.706a.831.831,0,0,1,.831.831Z" transform="translate(-60.067 -73.853)" fill="#06aec9"/>
  <g id="Group_3546" data-name="Group 3546" transform="translate(28.09 26.383)">
    <path id="Path_1822" data-name="Path 1822" d="M114.608,95.813a.831.831,0,0,1-.831-.831c0-1.094-.744-1.356-3.238-1.663-.613-.088-1.269-.131-1.881-.263-1.706-.438-4.069-1.006-4.594-3.15-2.713.088-9.8.744-9.8,5.075a.831.831,0,0,1-1.663,0c0-4.244,4.594-6.782,12.251-6.782a.831.831,0,0,1,.831.831c0,1.269,1.094,1.75,3.369,2.363.525.087,1.138.175,1.706.263,2.1.263,4.769.569,4.769,3.369A.983.983,0,0,1,114.608,95.813Z" transform="translate(-92.6 -88.2)" fill="#f58732"/>
  </g>
  <g id="Group_3547" data-name="Group 3547" transform="translate(31.415 30.627)">
    <path id="Path_1823" data-name="Path 1823" d="M101.031,101.269h0a.831.831,0,0,1-.831-.831,2.49,2.49,0,0,1,2.538-2.538.831.831,0,0,1,0,1.663.764.764,0,0,0-.831.875A.87.87,0,0,1,101.031,101.269Z" transform="translate(-100.2 -97.9)" fill="#f58732"/>
  </g>
</svg>
