<svg id="Category_Icons-Vaccine" data-name="Category Icons-Vaccine" xmlns="http://www.w3.org/2000/svg" width="62.789" height="54.648" viewBox="0 0 62.789 54.648">
  <g id="Group_3564" data-name="Group 3564" transform="translate(39.685 34.609)">
    <rect id="Rectangle_2081" data-name="Rectangle 2081" width="17.458" height="13.651" fill="#f58732"/>
  </g>
  <g id="Group_3565" data-name="Group 3565" transform="translate(34.434 0)">
    <path id="Path_1846" data-name="Path 1846" d="M98.175,44.564a.864.864,0,0,1-.613-.263.846.846,0,0,1,0-1.225l15.314-15.314a.866.866,0,1,1,1.225,1.225L98.788,44.3A.864.864,0,0,1,98.175,44.564Z" transform="translate(-97.3 -27.5)" fill="#f58732"/>
  </g>
  <path id="Path_1847" data-name="Path 1847" d="M28.707,126.15a.846.846,0,0,0-1.225,0l-2.406,2.406-3.063-3.063,2.406-2.406a.866.866,0,1,0-1.225-1.225l-2.406,2.406-.7-.7a.866.866,0,0,0-1.225,1.225l6.913,6.826a.846.846,0,0,0,1.225,0,.846.846,0,0,0,0-1.225l-.7-.7,2.406-2.406A.747.747,0,0,0,28.707,126.15Z" transform="translate(-18.6 -80.428)" fill="#f58732"/>
  <path id="Path_1848" data-name="Path 1848" d="M61.04,68.77a2.656,2.656,0,0,0-.744-1.838l-.263-.263a3.407,3.407,0,0,0,0-4.857,3.446,3.446,0,0,0-4.857,0l-.263-.219a2.562,2.562,0,0,0-3.632,0L30.5,82.377l-.613-.613a.866.866,0,0,0-1.225,1.225l1.225,1.225h0l8.969,8.969a.846.846,0,0,0,1.225,0,.846.846,0,0,0,0-1.225l-.613-.613L60.253,70.564A2.356,2.356,0,0,0,61.04,68.77Zm-2.231-5.688a1.719,1.719,0,0,1,.481,1.225,1.88,1.88,0,0,1-.481,1.225L56.4,63.082A1.641,1.641,0,0,1,58.809,63.082Zm.263,6.3L38.288,90.166,31.725,83.6l3.238-3.238L36.8,82.2a.846.846,0,0,0,1.225,0,.846.846,0,0,0,0-1.225L36.188,79.14,38.026,77.3l.613.613a.846.846,0,0,0,1.225,0,.846.846,0,0,0,0-1.225l-.7-.525L41,74.327l1.838,1.838a.846.846,0,0,0,1.225,0,.846.846,0,0,0,0-1.225L42.226,73.1l1.838-1.838.613.613a.846.846,0,0,0,1.225,0,.846.846,0,0,0,0-1.225l-.656-.569,1.838-1.838,1.838,1.838a.846.846,0,0,0,1.225,0,.846.846,0,0,0,0-1.225L48.308,67.02l1.838-1.838.613.613a.846.846,0,0,0,1.225,0,.846.846,0,0,0,0-1.225l-.613-.613L52.6,62.732a.846.846,0,0,1,1.225,0l.875.875h0l3.632,3.632h0l.875.875a.864.864,0,0,1,.263.613A2.375,2.375,0,0,1,59.071,69.383Z" transform="translate(-24.112 -46.237)" fill="#06aec9"/>
  <g id="Group_3566" data-name="Group 3566" transform="translate(43.097 16.101)">
    <path id="Path_1849" data-name="Path 1849" d="M117.975,71.169a.878.878,0,0,1-.875-.875V65.175a.875.875,0,1,1,1.75,0v5.163A.87.87,0,0,1,117.975,71.169Z" transform="translate(-117.1 -64.3)" fill="#f58732"/>
  </g>
  <g id="Group_3567" data-name="Group 3567" transform="translate(56.836 16.101)">
    <path id="Path_1850" data-name="Path 1850" d="M149.375,71.169a.878.878,0,0,1-.875-.875V65.175a.875.875,0,1,1,1.75,0v5.163A.9.9,0,0,1,149.375,71.169Z" transform="translate(-148.5 -64.3)" fill="#f58732"/>
  </g>
  <g id="Group_3568" data-name="Group 3568" transform="translate(43.141 16.101)">
    <path id="Path_1851" data-name="Path 1851" d="M131.77,66.05H118.075a.875.875,0,1,1,0-1.75H131.77a.875.875,0,0,1,0,1.75Z" transform="translate(-117.2 -64.3)" fill="#f58732"/>
  </g>
  <path id="Path_1852" data-name="Path 1852" d="M130.008,84.588a13.835,13.835,0,0,0-2.275-1.619h.131a.878.878,0,0,0,.875-.875V77.806a1.708,1.708,0,0,0-1.706-1.706H111.588a1.708,1.708,0,0,0-1.706,1.706v4.288a.878.878,0,0,0,.875.875h.131a16.1,16.1,0,0,0-2.275,1.663A3.79,3.79,0,0,0,107.3,87.3v19.777a2.4,2.4,0,0,0,2.406,2.406h19.164a2.4,2.4,0,0,0,2.406-2.406V87.3A3.717,3.717,0,0,0,130.008,84.588Zm-.394,22.489a.691.691,0,0,1-.7.7H109.75a.691.691,0,0,1-.7-.7V87.3a2.019,2.019,0,0,1,.788-1.444,25.052,25.052,0,0,1,4.594-2.888H118.5a.875.875,0,1,0,0-1.75h-6.869V77.806h15.445v3.413h-5.163a.875.875,0,0,0,0,1.75h2.363a24.946,24.946,0,0,1,4.55,2.888,2.181,2.181,0,0,1,.788,1.488Z" transform="translate(-68.491 -54.836)" fill="#06aec9"/>
</svg>
