<svg xmlns="http://www.w3.org/2000/svg" width="49" height="49" viewBox="0 0 49 49">
  <g id="Group_3802" data-name="Group 3802" transform="translate(-1210.666 -1336.666)">
    <rect id="Rectangle_2174" data-name="Rectangle 2174" width="22" height="22" rx="5" transform="translate(1210.666 1336.666)" fill="#fff"/>
    <path id="Rectangle_2174_-_Outline" data-name="Rectangle 2174 - Outline" d="M5,2A3,3,0,0,0,2,5V17a3,3,0,0,0,3,3H17a3,3,0,0,0,3-3V5a3,3,0,0,0-3-3H5M5,0H17a5,5,0,0,1,5,5V17a5,5,0,0,1-5,5H5a5,5,0,0,1-5-5V5A5,5,0,0,1,5,0Z" transform="translate(1210.666 1336.666)" fill="#06aec9"/>
    <rect id="Rectangle_2177" data-name="Rectangle 2177" width="22" height="22" rx="5" transform="translate(1237.666 1336.666)" fill="#fff"/>
    <path id="Rectangle_2177_-_Outline" data-name="Rectangle 2177 - Outline" d="M5,2A3,3,0,0,0,2,5V17a3,3,0,0,0,3,3H17a3,3,0,0,0,3-3V5a3,3,0,0,0-3-3H5M5,0H17a5,5,0,0,1,5,5V17a5,5,0,0,1-5,5H5a5,5,0,0,1-5-5V5A5,5,0,0,1,5,0Z" transform="translate(1237.666 1336.666)" fill="#06aec9"/>
    <rect id="Rectangle_2175" data-name="Rectangle 2175" width="22" height="22" rx="5" transform="translate(1210.666 1363.666)" fill="#fff"/>
    <path id="Rectangle_2175_-_Outline" data-name="Rectangle 2175 - Outline" d="M5,2A3,3,0,0,0,2,5V17a3,3,0,0,0,3,3H17a3,3,0,0,0,3-3V5a3,3,0,0,0-3-3H5M5,0H17a5,5,0,0,1,5,5V17a5,5,0,0,1-5,5H5a5,5,0,0,1-5-5V5A5,5,0,0,1,5,0Z" transform="translate(1210.666 1363.666)" fill="#06aec9"/>
    <rect id="Rectangle_2176" data-name="Rectangle 2176" width="22" height="22" rx="5" transform="translate(1237.666 1363.666)" fill="#f58732"/>
  </g>
</svg>
