<svg width="64" height="64" xmlns="http://www.w3.org/2000/svg" version="1.1">
    <g>
        <g stroke="null" stroke-width="0" id="svg_1">
            <path stroke="null" id="svg_2" fill="#7B9AAF"
                d="m37.31336,26.86311c0.71623,-0.71623 0.71623,-1.88275 0,-2.59911c-0.71623,-0.71623 -1.88275,-0.71623 -2.59911,0l-11.88445,11.88445c-2.14925,2.14925 -2.14925,5.64842 0,7.79718c2.14925,2.14925 5.64842,2.14925 7.79718,0l16.61347,-16.60527c3.55427,-3.55427 3.55427,-9.33093 0,-12.87618c-3.55427,-3.55427 -9.33093,-3.55427 -12.87618,0l-16.66103,16.65939c-4.81249,4.81249 -4.81249,12.64674 0,17.45972c2.33327,2.33261 5.42816,3.61823 8.72478,3.61823c3.29727,0 6.40119,-1.28575 8.72478,-3.61823l11.92988,-11.92988c0.71623,-0.71623 0.71623,-1.88275 0,-2.59911c-0.71623,-0.71623 -1.88275,-0.71623 -2.59911,0l-11.92037,11.92988c-1.63491,1.63491 -3.82077,2.54401 -6.13534,2.54401s-4.49088,-0.9001 -6.13468,-2.54401c-3.37993,-3.37993 -3.37993,-8.88107 0,-12.26117l16.65939,-16.65939c2.12187,-2.12187 5.56592,-2.12187 7.67795,0c2.12187,2.12187 2.12187,5.56592 0,7.67795l-16.59543,16.60527c-0.71623,0.71623 -1.88275,0.71623 -2.60797,0c-0.71623,-0.71623 -0.71623,-1.88275 0,-2.60797l11.88626,-11.87576z" />
        </g>
    </g>
</svg>