<svg xmlns="http://www.w3.org/2000/svg" width="26.252" height="24.643" viewBox="0 0 26.252 24.643">
  <path id="Union_28" data-name="Union 28" d="M21990.473,22104.6a2.666,2.666,0,0,1,0-5.254,3.2,3.2,0,0,1,.449-.039,2.667,2.667,0,0,1,2.447,1.609h3.2a2.154,2.154,0,0,0,1.9-1.154,2.657,2.657,0,0,1-2.152-2.619v-6.436a2.667,2.667,0,0,1,2.33-2.645,6.987,6.987,0,0,0-6.912-5.959h-3.217a6.992,6.992,0,0,0-6.912,5.959,2.669,2.669,0,0,1,2.336,2.645v6.436a2.669,2.669,0,0,1-2.664,2.664,4.279,4.279,0,0,1-4.277-4.271v-3.219a4.278,4.278,0,0,1,2.424-3.861,9.1,9.1,0,0,1,9.082-8.459h3.246a9.1,9.1,0,0,1,9.074,8.459,4.276,4.276,0,0,1,2.426,3.861v3.219a17.5,17.5,0,0,1-6.686,7.494h-3.2a2.667,2.667,0,0,1-2.447,1.609A3.2,3.2,0,0,1,21990.473,22104.6Zm-.1-2.625a.555.555,0,0,0,1.109,0,.555.555,0,0,0-1.109,0Zm8.051-11.268v6.436a.549.549,0,0,0,.555.555,2.166,2.166,0,0,0,2.162-2.162v-3.219a2.167,2.167,0,0,0-2.162-2.164A.553.553,0,0,0,21998.424,22090.711Zm-19.312,1.609v3.219a2.157,2.157,0,0,0,2.164,2.162.553.553,0,0,0,.555-.555v-6.436a.557.557,0,0,0-.555-.555A2.165,2.165,0,0,0,21979.111,22092.32Z" transform="translate(-21976.998 -22080)" fill="#fff"/>
</svg>
