<svg xmlns="http://www.w3.org/2000/svg" width="62" height="62" viewBox="0 0 62 62">
  <g id="Group_3529" data-name="Group 3529" transform="translate(-314 -196)">
    <circle id="Ellipse_223" data-name="Ellipse 223" cx="31" cy="31" r="31" transform="translate(314 196)" fill="#d5eafb"/>
    <g id="Group_3469" data-name="Group 3469" transform="translate(330.216 212.215)">
      <path id="Path_1731" data-name="Path 1731" d="M257.424,622.619H230.252a1.2,1.2,0,0,1-1.082-1.715l3.213-6.733a3.39,3.39,0,0,1,3.044-1.92h16.82a3.39,3.39,0,0,1,3.044,1.92l3.213,6.733a1.2,1.2,0,0,1-1.082,1.715Zm-25.271-2.4h23.371l-2.395-5.018a.981.981,0,0,0-.881-.556h-16.82a.981.981,0,0,0-.881.556Z" transform="translate(-229.053 -612.251)" fill="#fff"/>
      <path id="Path_1732" data-name="Path 1732" d="M261.447,649.044a5.734,5.734,0,0,1-5.727-5.727,1.2,1.2,0,0,1,2.4,0,3.33,3.33,0,0,0,6.66,0,1.2,1.2,0,0,1,2.4,0A5.734,5.734,0,0,1,261.447,649.044Z" transform="translate(-246.663 -631.974)" fill="#fff"/>
      <path id="Path_1733" data-name="Path 1733" d="M234.781,649.044a5.734,5.734,0,0,1-5.728-5.727,1.2,1.2,0,0,1,2.4,0,3.33,3.33,0,0,0,6.66,0,1.2,1.2,0,0,1,2.4,0A5.734,5.734,0,0,1,234.781,649.044Z" transform="translate(-229.053 -631.974)" fill="#fff"/>
      <path id="Line_367" data-name="Line 367" d="M-.3,3.071a1.2,1.2,0,0,1-1.2-1.2V-.3A1.2,1.2,0,0,1-.3-1.5,1.2,1.2,0,0,1,.9-.3V1.873A1.2,1.2,0,0,1-.3,3.071Z" transform="translate(19.615 9.47)" fill="#fff"/>
      <path id="Line_368" data-name="Line 368" d="M-.3,3.071a1.2,1.2,0,0,1-1.2-1.2V-.3A1.2,1.2,0,0,1-.3-1.5,1.2,1.2,0,0,1,.9-.3V1.873A1.2,1.2,0,0,1-.3,3.071Z" transform="translate(28.672 9.47)" fill="#fff"/>
      <path id="Line_369" data-name="Line 369" d="M-.3,3.071a1.2,1.2,0,0,1-1.2-1.2V-.3A1.2,1.2,0,0,1-.3-1.5,1.2,1.2,0,0,1,.9-.3V1.873A1.2,1.2,0,0,1-.3,3.071Z" transform="translate(1.5 9.47)" fill="#fff"/>
      <path id="Line_370" data-name="Line 370" d="M-.3,3.071a1.2,1.2,0,0,1-1.2-1.2V-.3A1.2,1.2,0,0,1-.3-1.5,1.2,1.2,0,0,1,.9-.3V1.873A1.2,1.2,0,0,1-.3,3.071Z" transform="translate(10.557 9.47)" fill="#fff"/>
      <path id="Path_1734" data-name="Path 1734" d="M256.247,668.291H237.768a3.92,3.92,0,0,1-3.915-3.915v-10.84a1.2,1.2,0,0,1,2.4,0v10.84a1.52,1.52,0,0,0,1.518,1.518h18.479a1.519,1.519,0,0,0,1.517-1.518v-10.84a1.2,1.2,0,0,1,2.4,0v10.84A3.92,3.92,0,0,1,256.247,668.291Z" transform="translate(-232.223 -638.721)" fill="#fff"/>
      <path id="Path_1735" data-name="Path 1735" d="M288.114,649.044a5.734,5.734,0,0,1-5.727-5.727,1.2,1.2,0,0,1,2.4,0,3.33,3.33,0,1,0,6.66,0,1.2,1.2,0,0,1,2.4,0A5.734,5.734,0,0,1,288.114,649.044Z" transform="translate(-264.272 -631.974)" fill="#fff"/>
    </g>
  </g>
</svg>
