<svg xmlns="http://www.w3.org/2000/svg" width="139" height="139" viewBox="0 0 139 139">
  <g id="Group_3470" data-name="Group 3470" transform="translate(-314 -196)">
    <circle id="Ellipse_223" data-name="Ellipse 223" cx="69.5" cy="69.5" r="69.5" transform="translate(314 196)" fill="#d5eafb"/>
    <g id="Group_3469" data-name="Group 3469" transform="translate(350.354 232.354)">
      <path id="Path_1731" data-name="Path 1731" d="M292.658,635.5H231.74a2.687,2.687,0,0,1-2.425-3.845l7.2-15.094a7.6,7.6,0,0,1,6.825-4.305h37.71a7.6,7.6,0,0,1,6.825,4.305l7.2,15.094a2.687,2.687,0,0,1-2.426,3.845ZM236,630.12h52.4l-5.368-11.249a2.2,2.2,0,0,0-1.974-1.246h-37.71a2.2,2.2,0,0,0-1.974,1.246Z" transform="translate(-229.053 -612.251)" fill="#fff"/>
      <path id="Path_1732" data-name="Path 1732" d="M268.56,657.646a12.855,12.855,0,0,1-12.84-12.84,2.688,2.688,0,0,1,5.375,0,7.466,7.466,0,0,0,14.931,0,2.688,2.688,0,0,1,5.375,0A12.855,12.855,0,0,1,268.56,657.646Z" transform="translate(-235.414 -619.375)" fill="#fff"/>
      <path id="Path_1733" data-name="Path 1733" d="M241.894,657.646a12.855,12.855,0,0,1-12.841-12.84,2.688,2.688,0,0,1,5.375,0,7.466,7.466,0,0,0,14.931,0,2.688,2.688,0,0,1,5.375,0A12.855,12.855,0,0,1,241.894,657.646Z" transform="translate(-229.053 -619.375)" fill="#fff"/>
      <path id="Line_367" data-name="Line 367" d="M1.188,8.748A2.688,2.688,0,0,1-1.5,6.061V1.188a2.688,2.688,0,0,1,5.375,0V6.061A2.688,2.688,0,0,1,1.188,8.748Z" transform="translate(42.112 19.369)" fill="#fff"/>
      <path id="Line_368" data-name="Line 368" d="M1.188,8.748A2.688,2.688,0,0,1-1.5,6.061V1.188a2.688,2.688,0,0,1,5.375,0V6.061A2.688,2.688,0,0,1,1.188,8.748Z" transform="translate(62.418 19.369)" fill="#fff"/>
      <path id="Line_369" data-name="Line 369" d="M1.188,8.748A2.688,2.688,0,0,1-1.5,6.061V1.188a2.688,2.688,0,0,1,5.375,0V6.061A2.688,2.688,0,0,1,1.188,8.748Z" transform="translate(1.5 19.369)" fill="#fff"/>
      <path id="Line_370" data-name="Line 370" d="M1.188,8.748A2.688,2.688,0,0,1-1.5,6.061V1.188a2.688,2.688,0,0,1,5.375,0V6.061A2.688,2.688,0,0,1,1.188,8.748Z" transform="translate(21.806 19.369)" fill="#fff"/>
      <path id="Path_1734" data-name="Path 1734" d="M284.059,688.1H242.631a8.788,8.788,0,0,1-8.778-8.778v-24.3a2.688,2.688,0,0,1,5.375,0v24.3a3.407,3.407,0,0,0,3.4,3.4h41.428a3.406,3.406,0,0,0,3.4-3.4v-24.3a2.688,2.688,0,1,1,5.375,0v24.3A8.787,8.787,0,0,1,284.059,688.1Z" transform="translate(-230.198 -621.813)" fill="#fff"/>
      <path id="Path_1735" data-name="Path 1735" d="M295.227,657.646a12.855,12.855,0,0,1-12.84-12.84,2.687,2.687,0,0,1,5.375,0,7.465,7.465,0,1,0,14.93,0,2.688,2.688,0,0,1,5.375,0A12.854,12.854,0,0,1,295.227,657.646Z" transform="translate(-241.775 -619.375)" fill="#fff"/>
    </g>
  </g>
</svg>
