<svg id="File" xmlns="http://www.w3.org/2000/svg" width="48" height="48" viewBox="0 0 48 48">
  <rect id="Rectangle_2648" data-name="Rectangle 2648" width="48" height="48" fill="none"/>
  <path id="Path_2074" data-name="Path 2074" d="M13,31H25M13,25H25M21,3c-.191,0-.406,0-.651,0H11.4c-2.24,0-3.361,0-4.217.436A4,4,0,0,0,5.436,5.184C5,6.039,5,7.16,5,9.4V32.6c0,2.24,0,3.36.436,4.215a4,4,0,0,0,1.748,1.749C8.038,39,9.158,39,11.394,39H26.606c2.236,0,3.354,0,4.209-.436a4,4,0,0,0,1.75-1.749C33,35.961,33,34.843,33,32.607V15.651c0-.245,0-.46,0-.651M21,3a5.585,5.585,0,0,1,1.276.109,4,4,0,0,1,1.157.479,8.563,8.563,0,0,1,1.441,1.285l6.251,6.251a8.531,8.531,0,0,1,1.283,1.44,4.005,4.005,0,0,1,.479,1.156A5.6,5.6,0,0,1,33,15M21,3V8.6c0,2.24,0,3.36.436,4.216a4,4,0,0,0,1.748,1.749c.855.436,1.974.436,4.21.436H33" transform="translate(5 3)" fill="none" stroke="#8199ad" stroke-linecap="round" stroke-linejoin="round" stroke-width="4"/>
</svg>
