<svg xmlns="http://www.w3.org/2000/svg" width="40" height="40" viewBox="0 0 40 40"><g id="Group_3870" data-name="Group 3870" transform="translate(-31 -696)"><circle id="Ellipse_241" data-name="Ellipse 241" cx="20" cy="20" r="20" transform="translate(31 696)" fill="none"></circle><path id="Subtraction_1" data-name="Subtraction 1" d="M18227.752,22097.5h0l-4.752,0v-10.627l6.877-6.871,6.75,6.871v10.625l-4.875,0v-6.373h-4v6.375Z" transform="translate(-18178.75 -21373.125)" fill="#f58732"></path><path id="Union_5" data-name="Union 5" d="M2176.688-161.166a.764.764,0,0,1-.758-.77v-9.757l-1.633,1.677a.75.75,0,0,1-1.072.006.778.778,0,0,1-.006-1.088l10.392-10.673a.75.75,0,0,1,.538-.228h0a.752.752,0,0,1,.54.233l10.221,10.674A.778.778,0,0,1,2194.9-170a.751.751,0,0,1-.529.218.749.749,0,0,1-.543-.233l-1.428-1.49v9.575a.763.763,0,0,1-.758.77Zm.758-1.539h13.439v-10.388l-6.739-7.038-6.7,6.881Z" transform="translate(-2133 887)" fill="#42929d"></path></g></svg>