<svg xmlns="http://www.w3.org/2000/svg" width="21" height="21" viewBox="0 0 21 21">
  <g id="Token" transform="translate(-2 -2)">
    <g id="Group_1259" data-name="Group 1259" transform="translate(2 2)">
      <path id="Path_610" data-name="Path 610" d="M12.5,2A10.5,10.5,0,1,0,23,12.5,10.512,10.512,0,0,0,12.5,2Zm0,18A7.5,7.5,0,1,1,20,12.5,7.509,7.509,0,0,1,12.5,20Z" transform="translate(-2 -2)" fill="#ffd52c"/>
      <path id="Path_611" data-name="Path 611" d="M13.5,6A7.5,7.5,0,1,0,21,13.5,7.509,7.509,0,0,0,13.5,6Zm3.183,8.454-.863.47a2.247,2.247,0,0,0-.895.893l-.473.859a1.087,1.087,0,0,1-1.905,0l-.472-.86a2.248,2.248,0,0,0-.9-.893l-.861-.469a1.085,1.085,0,0,1,0-1.907l.863-.47a2.247,2.247,0,0,0,.895-.892l.473-.86a1.087,1.087,0,0,1,1.905,0l.472.86a2.253,2.253,0,0,0,.9.892l.862.469a1.086,1.086,0,0,1,0,1.908Z" transform="translate(-3 -3)" fill="#fbb02c"/>
      <path id="Path_612" data-name="Path 612" d="M17.932,13.8l-.862-.469a2.253,2.253,0,0,1-.9-.892l-.473-.86a1.087,1.087,0,0,0-1.9,0l-.473.86a2.237,2.237,0,0,1-.895.892l-.862.47a1.087,1.087,0,0,0,0,1.91l.861.469a2.248,2.248,0,0,1,.9.893l.473.86a1.087,1.087,0,0,0,1.9,0l.473-.86a2.237,2.237,0,0,1,.895-.893l.863-.469a1.088,1.088,0,0,0,0-1.91Z" transform="translate(-4.25 -4.253)" fill="#fff"/>
    </g>
  </g>
</svg>
