<svg id="Group_1259" data-name="Group 1259" xmlns="http://www.w3.org/2000/svg" width="42.688" height="42.688" viewBox="0 0 42.688 42.688">
  <path id="Path_610" data-name="Path 610" d="M23.344,2A21.344,21.344,0,1,0,44.688,23.344,21.368,21.368,0,0,0,23.344,2Zm0,36.59A15.246,15.246,0,1,1,38.59,23.344,15.263,15.263,0,0,1,23.344,38.59Z" transform="translate(-2 -2)" fill="#ffd52c"/>
  <path id="Path_611" data-name="Path 611" d="M21.246,6A15.246,15.246,0,1,0,36.492,21.246,15.263,15.263,0,0,0,21.246,6Zm6.47,17.185-1.753.954a4.567,4.567,0,0,0-1.819,1.814L23.182,27.7a2.21,2.21,0,0,1-3.872,0l-.96-1.749a4.569,4.569,0,0,0-1.822-1.816l-1.75-.953a2.206,2.206,0,0,1,0-3.877l1.753-.954a4.567,4.567,0,0,0,1.819-1.814l.962-1.747a2.21,2.21,0,0,1,3.872,0l.96,1.749a4.581,4.581,0,0,0,1.82,1.814l1.752.953a2.207,2.207,0,0,1,0,3.879Z" transform="translate(0.098 0.098)" fill="#fbb02c"/>
  <path id="Path_612" data-name="Path 612" d="M25.092,16.675l-1.752-.953a4.581,4.581,0,0,1-1.82-1.814l-.96-1.749a2.21,2.21,0,0,0-3.872,0l-.96,1.747a4.548,4.548,0,0,1-1.819,1.814l-1.753.954a2.209,2.209,0,0,0,0,3.882l1.75.953a4.569,4.569,0,0,1,1.822,1.816l.96,1.749a2.21,2.21,0,0,0,3.872,0l.962-1.747a4.548,4.548,0,0,1,1.819-1.814l1.753-.954a2.211,2.211,0,0,0,0-3.883Z" transform="translate(2.721 2.729)" fill="#fff"/>
</svg>
