<svg xmlns="http://www.w3.org/2000/svg" width="30" height="25" viewBox="0 0 30 25">
  <g id="_9840570_flash_sale_ecommerce_shop_market_icon" data-name="9840570_flash_sale_ecommerce_shop_market_icon" transform="translate(-49 -435)">
    <g id="Group_4470" data-name="Group 4470" transform="translate(-19.5 -111)">
      <circle id="Ellipse_288" data-name="Ellipse 288" cx="10" cy="10" r="10" transform="translate(77.5 550)" fill="#f58732"/>
    </g>
    <path id="Path_2031" data-name="Path 2031" d="M67,437v1.045a11.005,11.005,0,1,0,8.979,3.386l.5-.5.714.725a1,1,0,1,0,1.426-1.4l-2.9-2.951a1,1,0,1,0-1.426,1.4l.785.8-.6.608A10.946,10.946,0,0,0,69,438.045V437h1.1a1,1,0,0,0,0-2H66a1,1,0,0,0,0,2Zm1,3a9,9,0,1,1-9,9A9,9,0,0,1,68,440Zm-1,4v5a1,1,0,0,0,.445.832l3.5,2.333a1,1,0,0,0,1.11-1.664L69,448.465V444a1,1,0,0,0-2,0Zm-17,3h4a1,1,0,0,0,0-2H50a1,1,0,0,0,0,2Zm0-4h6a1,1,0,0,0,0-2H50a1,1,0,0,0,0,2Zm0-4H60a1,1,0,0,0,0-2H50a1,1,0,0,0,0,2Z" fill="#fff" fill-rule="evenodd"/>
  </g>
</svg>
