<svg xmlns="http://www.w3.org/2000/svg" width="49.987" height="50.003" viewBox="0 0 49.987 50.003">
  <g id="_8666656_check_circle_icon" data-name="8666656_check_circle_icon" transform="translate(-0.999 -0.991)">
    <path id="Path_1755" data-name="Path 1755" d="M25.981,50.994a25,25,0,0,1-5.5-49.38,24.812,24.812,0,0,1,15.68,1.549,2.272,2.272,0,0,1-1.849,4.151A20.449,20.449,0,0,0,8.839,37.121,20.449,20.449,0,0,0,46.442,26V23.914a2.272,2.272,0,1,1,4.544,0V26A25.03,25.03,0,0,1,25.981,50.994Z" transform="translate(0 0)" fill="#f58732"/>
    <path id="Path_1756" data-name="Path 1756" d="M17.089,30.287a2.272,2.272,0,0,1-1.607-.665L8.665,22.806a2.272,2.272,0,1,1,3.213-3.213L17.087,24.8,38.2,3.666a2.272,2.272,0,0,1,3.215,3.212L18.7,29.621A2.272,2.272,0,0,1,17.089,30.287Z" transform="translate(8.905 2.556)" fill="#f58732"/>
  </g>
</svg>
