<svg xmlns="http://www.w3.org/2000/svg" width="30.402" height="30.402" viewBox="0 0 30.402 30.402">
  <g id="_9840556_voucher_ticket_ecommerce_shop_market_icon" data-name="9840556_voucher_ticket_ecommerce_shop_market_icon" transform="translate(-209.304 -120.858) rotate(-45)">
    <path id="Path_1973" data-name="Path 1973" d="M74.289,252.374a2.687,2.687,0,1,0,0,5.374v3.583a1.791,1.791,0,0,1-1.791,1.791H52.791A1.791,1.791,0,0,1,51,261.332v-3.583a2.687,2.687,0,1,0,0-5.374v-3.583A1.791,1.791,0,0,1,52.791,247H72.5a1.791,1.791,0,0,1,1.791,1.791Z" transform="translate(-0.104 -0.104)" fill="#90e0ef" fill-rule="evenodd"/>
    <path id="Path_1974" data-name="Path 1974" d="M74.185,253.166a.9.9,0,0,0,.9-.9v-3.583A2.687,2.687,0,0,0,72.393,246H52.687A2.687,2.687,0,0,0,50,248.687v3.583a.9.9,0,0,0,.9.9,1.791,1.791,0,1,1,0,3.583.9.9,0,0,0-.9.9v3.583a2.687,2.687,0,0,0,2.687,2.687H72.393a2.687,2.687,0,0,0,2.687-2.687v-3.583c-.009-.527-.333-.8-.9-.9a1.791,1.791,0,1,1,0-3.583Zm-6.27-5.374v1.791a.9.9,0,0,1-1.791,0v-1.791H52.687a.9.9,0,0,0-.9.9v2.8a3.584,3.584,0,0,1,0,6.94v2.8a.9.9,0,0,0,.9.9H66.123v-1.791a.9.9,0,0,1,1.791,0v1.791h4.479a.9.9,0,0,0,.9-.9v-2.8a3.584,3.584,0,0,1,0-6.94v-2.8a.9.9,0,0,0-.9-.9Zm-1.791,5.374v3.583a.9.9,0,1,0,1.791,0v-3.583a.9.9,0,1,0-1.791,0Z" transform="translate(0 0)" fill="#1990a7" fill-rule="evenodd"/>
  </g>
</svg>
