<svg xmlns="http://www.w3.org/2000/svg" width="16.998" height="17" viewBox="0 0 16.998 17">
  <path id="Union_23" data-name="Union 23" d="M2670.046,13216.1a1.216,1.216,0,0,1,0-.661l.868-3.1a8.5,8.5,0,1,1,3.755,3.753l-3.106.868a1.232,1.232,0,0,1-1.516-.855Zm5.114-1.595a6.867,6.867,0,1,0-2.664-2.661l.165.292-.854,3.059,3.061-.853Zm.639-3.734a.816.816,0,0,1-.109-1.624l.013,0,.091,0h3.743a.815.815,0,0,1,.109,1.622h-.013l-.1.009Zm0-2.908a.816.816,0,0,1-.109-1.624l.013,0,.091,0h5.409a.815.815,0,0,1,.112,1.623h-.015l-.1.008Z" transform="translate(-2670 -13199.999)" fill="#7b9aaf"/>
</svg>
