<svg id="Group_4400" data-name="Group 4400" xmlns="http://www.w3.org/2000/svg" width="53" height="53" viewBox="0 0 53 53">
  <circle id="Ellipse_284" data-name="Ellipse 284" cx="26.5" cy="26.5" r="26.5" fill="#e7f3ff"/>
  <g id="_9840556_voucher_ticket_ecommerce_shop_market_icon" data-name="9840556_voucher_ticket_ecommerce_shop_market_icon" transform="translate(12.299 31.034) rotate(-45)">
    <path id="Path_1973" data-name="Path 1973" d="M23.289,5.374a2.687,2.687,0,1,0,0,5.374v3.583A1.791,1.791,0,0,1,21.5,16.123H1.791A1.791,1.791,0,0,1,0,14.332V10.749A2.688,2.688,0,0,0,2.687,8.062,2.688,2.688,0,0,0,0,5.374V1.791A1.791,1.791,0,0,1,1.791,0H21.5a1.791,1.791,0,0,1,1.791,1.791Z" transform="translate(0.896 0.896)" fill="#90e0ef" fill-rule="evenodd"/>
    <path id="Path_1974" data-name="Path 1974" d="M24.185,7.166a.9.9,0,0,0,.9-.9V2.687A2.687,2.687,0,0,0,22.393,0H2.687A2.687,2.687,0,0,0,0,2.687V6.27a.9.9,0,0,0,.9.9,1.791,1.791,0,1,1,0,3.583.9.9,0,0,0-.9.9v3.583a2.687,2.687,0,0,0,2.687,2.687H22.393a2.687,2.687,0,0,0,2.687-2.687V11.645c-.009-.527-.333-.8-.9-.9a1.791,1.791,0,1,1,0-3.583Zm-6.27-5.374V3.583a.9.9,0,0,1-1.791,0V1.791H2.687a.9.9,0,0,0-.9.9v2.8a3.584,3.584,0,0,1,0,6.94v2.8a.9.9,0,0,0,.9.9H16.123V14.332a.9.9,0,0,1,1.791,0v1.791h4.479a.9.9,0,0,0,.9-.9v-2.8a3.584,3.584,0,0,1,0-6.94v-2.8a.9.9,0,0,0-.9-.9ZM16.123,7.166v3.583a.9.9,0,1,0,1.791,0V7.166a.9.9,0,1,0-1.791,0Z" fill="#1990a7" fill-rule="evenodd"/>
  </g>
  <path id="Path_2019" data-name="Path 2019" d="M15.406,12.784l-.548-.3a1.432,1.432,0,0,1-.569-.567l-.3-.547a.691.691,0,0,0-1.211,0l-.3.546a1.422,1.422,0,0,1-.569.567l-.548.3a.691.691,0,0,0,0,1.214l.547.3a1.429,1.429,0,0,1,.57.568l.3.547a.691.691,0,0,0,1.211,0l.3-.546a1.422,1.422,0,0,1,.569-.567l.548-.3a.691.691,0,0,0,0-1.214Z" transform="translate(4.49 2.152)" fill="#fcb040"/>
  <path id="Path_2020" data-name="Path 2020" d="M15.406,12.784l-.548-.3a1.432,1.432,0,0,1-.569-.567l-.3-.547a.691.691,0,0,0-1.211,0l-.3.546a1.422,1.422,0,0,1-.569.567l-.548.3a.691.691,0,0,0,0,1.214l.547.3a1.429,1.429,0,0,1,.57.568l.3.547a.691.691,0,0,0,1.211,0l.3-.546a1.422,1.422,0,0,1,.569-.567l.548-.3a.691.691,0,0,0,0-1.214Z" transform="translate(25.49 2.152)" fill="#fcb040"/>
  <path id="Path_2021" data-name="Path 2021" d="M15.406,12.784l-.548-.3a1.432,1.432,0,0,1-.569-.567l-.3-.547a.691.691,0,0,0-1.211,0l-.3.546a1.422,1.422,0,0,1-.569.567l-.548.3a.691.691,0,0,0,0,1.214l.547.3a1.429,1.429,0,0,1,.57.568l.3.547a.691.691,0,0,0,1.211,0l.3-.546a1.422,1.422,0,0,1,.569-.567l.548-.3a.691.691,0,0,0,0-1.214Z" transform="translate(-1.894 11.152)" fill="#fcb040"/>
  <path id="Path_2022" data-name="Path 2022" d="M18.03,13.838l-.874-.475a2.285,2.285,0,0,1-.908-.905l-.479-.872a1.1,1.1,0,0,0-1.932,0l-.479.872a2.269,2.269,0,0,1-.907.905l-.875.476a1.1,1.1,0,0,0,0,1.937l.873.475a2.279,2.279,0,0,1,.909.906l.479.872a1.1,1.1,0,0,0,1.932,0l.48-.872a2.269,2.269,0,0,1,.907-.905l.875-.476a1.1,1.1,0,0,0,0-1.937Z" transform="translate(16.5 22.35)" fill="#fcb040"/>
</svg>
