<svg id="Print" xmlns="http://www.w3.org/2000/svg" width="16.485" height="16" viewBox="0 0 16.485 16">
  <path id="_7787584_print_printer_printing_paper_document_icon" data-name="7787584_print_printer_printing_paper_document_icon" d="M28.091,20.458A2.928,2.928,0,0,0,25.182,17.5H21.3a2.918,2.918,0,0,0-2.909,2.909v.048A3.912,3.912,0,0,0,15,24.288v3.879a2.918,2.918,0,0,0,2.909,2.909h.485v.485A1.945,1.945,0,0,0,20.333,33.5h5.818a1.945,1.945,0,0,0,1.939-1.939v-.485h.485a2.918,2.918,0,0,0,2.909-2.909V24.288A3.879,3.879,0,0,0,28.091,20.458ZM21.3,19.439h3.879a.97.97,0,0,1,.97.97H20.333A.97.97,0,0,1,21.3,19.439Zm4.848,12.121H20.333V27.682h5.818Zm3.394-3.394a.97.97,0,0,1-.97.97h-.485V27.682a1.945,1.945,0,0,0-1.939-1.939H20.333a1.945,1.945,0,0,0-1.939,1.939v1.455h-.485a.97.97,0,0,1-.97-.97V24.288a1.945,1.945,0,0,1,1.939-1.939h8.727a1.945,1.945,0,0,1,1.939,1.939Z" transform="translate(-15 -17.5)" fill="#7b9aaf"/>
</svg>
