<svg xmlns="http://www.w3.org/2000/svg" width="15" height="18" viewBox="0 0 15 18">
  <g id="Award" transform="translate(-7 -2)">
    <path id="Path_1966" data-name="Path 1966" d="M40.694,45.371,38.837,41.8a.3.3,0,0,0-.471-.081,1.865,1.865,0,0,0-.494.779,1.311,1.311,0,0,1-.879.846,1.161,1.161,0,0,1-.633.025,1.893,1.893,0,0,0-1.637.431.3.3,0,0,0-.069.365l1.779,3.42a.3.3,0,0,0,.235.16l.031,0a.3.3,0,0,0,.232-.11L38.3,45.97l2.152-.161a.3.3,0,0,0,.243-.438Z" transform="translate(-19.334 -27.748)" fill="#06aec9"/>
    <path id="Path_1967" data-name="Path 1967" d="M36.361,47.315a1.893,1.893,0,0,0-1.637.431.3.3,0,0,0-.069.365l1.779,3.42a.3.3,0,0,0,.235.16l.031,0a.3.3,0,0,0,.232-.11L38.3,49.915,36.942,47.3A1.166,1.166,0,0,1,36.361,47.315Z" transform="translate(-19.334 -31.692)" fill="#f58732"/>
    <path id="Path_1968" data-name="Path 1968" d="M9.054,45.371l1.857-3.57a.3.3,0,0,1,.471-.081,1.865,1.865,0,0,1,.494.779,1.311,1.311,0,0,0,.879.846,1.161,1.161,0,0,0,.633.025,1.893,1.893,0,0,1,1.637.431.3.3,0,0,1,.069.365l-1.779,3.42a.3.3,0,0,1-.235.16l-.031,0a.3.3,0,0,1-.232-.11L11.449,45.97,9.3,45.809a.3.3,0,0,1-.243-.438Z" transform="translate(-1.414 -27.748)" fill="#06aec9"/>
    <path id="Path_1969" data-name="Path 1969" d="M19.056,47.315a1.893,1.893,0,0,1,1.637.431.3.3,0,0,1,.069.365l-1.779,3.42a.3.3,0,0,1-.235.16l-.031,0a.3.3,0,0,1-.232-.11l-1.368-1.668L18.475,47.3a1.166,1.166,0,0,0,.581.011Z" transform="translate(-7.082 -31.692)" fill="#f58732"/>
    <path id="Path_1970" data-name="Path 1970" d="M22,9.5a1.892,1.892,0,0,0-.484-1.27,1.31,1.31,0,0,1-.332-.872,1.421,1.421,0,0,1,.027-.269,2,2,0,0,0,.042-.385A1.909,1.909,0,0,0,19.94,4.892a1.287,1.287,0,0,1-.831-.831,1.886,1.886,0,0,0-.313-.584,1.923,1.923,0,0,0-1.5-.73,2.019,2.019,0,0,0-.387.042,1.319,1.319,0,0,1-1.137-.3,1.91,1.91,0,0,0-2.527-.015.333.333,0,0,0-.033.025,1.275,1.275,0,0,1-1.124.293,2.005,2.005,0,0,0-.384-.042,1.922,1.922,0,0,0-1.5.729,1.884,1.884,0,0,0-.314.585,1.288,1.288,0,0,1-.833.831A1.909,1.909,0,0,0,7.747,6.7a2,2,0,0,0,.041.384,1.414,1.414,0,0,1,.028.27,1.309,1.309,0,0,1-.33.87,1.909,1.909,0,0,0,0,2.542,1.31,1.31,0,0,1,.332.872,1.421,1.421,0,0,1-.027.269,2,2,0,0,0-.042.385,1.909,1.909,0,0,0,1.314,1.812,1.253,1.253,0,0,1,.5.3,1.267,1.267,0,0,1,.334.529,1.906,1.906,0,0,0,1.269,1.23,1.755,1.755,0,0,0,.927.041,1.414,1.414,0,0,1,.27-.028,1.312,1.312,0,0,1,.859.323l.014.012h0a1.91,1.91,0,0,0,2.537,0,1.309,1.309,0,0,1,.871-.332,1.418,1.418,0,0,1,.27.028,2.005,2.005,0,0,0,.384.041,1.909,1.909,0,0,0,1.812-1.314,1.288,1.288,0,0,1,.833-.831A1.909,1.909,0,0,0,21.253,12.3a2,2,0,0,0-.041-.384,1.414,1.414,0,0,1-.028-.27,1.31,1.31,0,0,1,.332-.872A1.894,1.894,0,0,0,22,9.5Z" transform="translate(0 0)" fill="#d5eafb"/>
    <path id="Path_1971" data-name="Path 1971" d="M27.285,17.71a.562.562,0,0,0-.426-.377L25.139,17l-.852-1.532a.561.561,0,0,0-.981,0L22.454,17l-1.72.336a.561.561,0,0,0-.3.933l1.194,1.283-.211,1.74a.561.561,0,0,0,.794.576l1.589-.739,1.59.739a.561.561,0,0,0,.794-.577l-.212-1.74,1.194-1.283A.562.562,0,0,0,27.285,17.71Z" transform="translate(-9.296 -9.223)" fill="#b6cfe3"/>
    <path id="Path_1972" data-name="Path 1972" d="M19.441,19.353a5.382,5.382,0,1,1,5.382-5.382A5.382,5.382,0,0,1,19.441,19.353Zm0-10.165a4.782,4.782,0,1,0,4.782,4.782,4.782,4.782,0,0,0-4.782-4.782Z" transform="translate(-4.941 -4.612)" fill="#b6cfe3"/>
  </g>
</svg>
