<svg xmlns="http://www.w3.org/2000/svg" width="18.417" height="16.067" viewBox="0 0 18.417 16.067">
  <path id="XMLID_276_" d="M3.18,4H17.231a2.172,2.172,0,0,1,1.659,3.582l-5.34,6.212v2.343a1.584,1.584,0,0,1-.7,1.319L9.327,19.8a1.586,1.586,0,0,1-2.466-1.32V13.794L1.522,7.582A2.172,2.172,0,0,1,3.18,4Zm8.37,11.915V13.053l5.821-6.772A.155.155,0,0,0,17.4,6.1a.17.17,0,0,0-.164-.1H3.18a.17.17,0,0,0-.165.1.157.157,0,0,0,.022.174l0,0,5.821,6.772v4.655Z" transform="translate(-0.997 -4)" fill="#7b9aaf"/>
</svg>
