<svg xmlns="http://www.w3.org/2000/svg" width="21.181" height="19.5" viewBox="0 0 21.181 19.5">
    <g id="Group_1901" data-name="Group 1901" transform="translate(-791.051 -254.5)">
        <g id="XMLID_1_" transform="translate(791.051 254.5)">
            <path id="XMLID_2_" d="M56.807,59.089H40.929A.929.929,0,0,1,40,58.1l.882-13.232A.929.929,0,0,1,41.811,44H55.925a.929.929,0,0,1,.927.867L57.734,58.1a.929.929,0,0,1-.927.99ZM41.921,57.232H55.815l-.758-11.375H42.679Z" transform="translate(-40 -39.589)" fill="#fff" />
            <path id="XMLID_17_" d="M52.221,47.473a.929.929,0,0,1-.929-.929v-3.97a1.718,1.718,0,1,0-3.436,0v3.97a.929.929,0,0,1-1.857,0v-3.97a3.575,3.575,0,0,1,7.15,0v3.97A.929.929,0,0,1,52.221,47.473Z" transform="translate(-40.707 -39)" fill="#fff" />
        </g>
        <circle id="Ellipse_219" data-name="Ellipse 219" cx="4.179" cy="4.179" r="4.179" transform="translate(802.146 262.393)" fill="#fff" />
        <path id="_9298766_verified_ui_shield_check_protection_icon" data-name="9298766_verified_ui_shield_check_protection_icon" d="M47.19,1.314,43.832.254a5.471,5.471,0,0,0-3.3,0l-3.358,1.06A1.687,1.687,0,0,0,36,2.923v5.83a3.373,3.373,0,0,0,1.372,2.716l3.29,2.424a2.566,2.566,0,0,0,3.045,0L47,11.468a3.373,3.373,0,0,0,1.372-2.716V2.923A1.687,1.687,0,0,0,47.19,1.314ZM44.769,6.4,41.986,9.184a.843.843,0,0,1-1.193,0L39.6,7.992a.843.843,0,0,1,0-1.193h0a.843.843,0,0,1,1.193,0l.6.6,2.187-2.187a.843.843,0,0,1,1.193,0h0A.843.843,0,0,1,44.769,6.4Z" transform="translate(763.863 258.679)" fill="#f58732" />
    </g>
</svg>
