<svg id="_001-google-docs-1" data-name="001-google-docs-1" xmlns="http://www.w3.org/2000/svg" width="24.375" height="32" viewBox="0 0 24.375 32">
  <path id="Path_950" data-name="Path 950" d="M85.1,7.774,77.6.275A.939.939,0,0,0,76.938,0H63.812A2.816,2.816,0,0,0,61,2.812V29.187A2.816,2.816,0,0,0,63.812,32h18.75a2.816,2.816,0,0,0,2.813-2.813V8.437A.946.946,0,0,0,85.1,7.774ZM77.875,3.2l4.3,4.3H78.813a.939.939,0,0,1-.937-.937Zm4.688,26.924H63.812a.939.939,0,0,1-.937-.937V2.812a.939.939,0,0,1,.937-.937H76V6.562a2.816,2.816,0,0,0,2.813,2.812H83.5V29.187A.939.939,0,0,1,82.563,30.125Z" transform="translate(-61 0)" fill="#42929d"/>
  <path id="Path_951" data-name="Path 951" d="M163.188,212h-11.25a.938.938,0,0,0,0,1.875h11.25a.938.938,0,0,0,0-1.875Z" transform="translate(-145.375 -198.75)" fill="#42929d"/>
  <path id="Path_952" data-name="Path 952" d="M163.188,272h-11.25a.938.938,0,0,0,0,1.875h11.25a.938.938,0,0,0,0-1.875Z" transform="translate(-145.375 -255)" fill="#42929d"/>
  <path id="Path_953" data-name="Path 953" d="M163.188,332h-11.25a.938.938,0,0,0,0,1.875h11.25a.938.938,0,0,0,0-1.875Z" transform="translate(-145.375 -311.25)" fill="#42929d"/>
  <path id="Path_954" data-name="Path 954" d="M159.438,392h-7.5a.938.938,0,0,0,0,1.875h7.5a.938.938,0,0,0,0-1.875Z" transform="translate(-145.375 -367.5)" fill="#42929d"/>
</svg>
