<svg xmlns="http://www.w3.org/2000/svg" width="36.666" height="44" viewBox="0 0 36.666 44">
  <g id="Award" transform="translate(-7 -2)">
    <path id="Path_1966" data-name="Path 1966" d="M49.467,50.762l-4.539-8.727a.733.733,0,0,0-1.151-.2,4.558,4.558,0,0,0-1.207,1.9,3.205,3.205,0,0,1-2.149,2.068,2.839,2.839,0,0,1-1.547.061,4.627,4.627,0,0,0-4,1.053.733.733,0,0,0-.169.892l4.349,8.36a.731.731,0,0,0,.574.391c.026,0,.051,0,.076,0a.734.734,0,0,0,.567-.268l3.343-4.077,5.26-.395a.733.733,0,0,0,.6-1.07Z" transform="translate(-7.365 -10.571)" fill="#06aec9"/>
    <path id="Path_1967" data-name="Path 1967" d="M38.875,47.373a4.627,4.627,0,0,0-4,1.053.733.733,0,0,0-.169.892l4.349,8.36a.731.731,0,0,0,.574.391c.026,0,.051,0,.076,0a.734.734,0,0,0,.567-.268l3.343-4.077-3.318-6.383A2.851,2.851,0,0,1,38.875,47.373Z" transform="translate(-7.365 -12.073)" fill="#1bcfec"/>
    <path id="Path_1968" data-name="Path 1968" d="M9.1,50.762l4.539-8.727a.733.733,0,0,1,1.151-.2A4.558,4.558,0,0,1,16,43.741a3.205,3.205,0,0,0,2.149,2.068,2.839,2.839,0,0,0,1.547.061,4.627,4.627,0,0,1,4,1.053.733.733,0,0,1,.169.892l-4.349,8.36a.731.731,0,0,1-.574.391c-.026,0-.051,0-.076,0A.734.734,0,0,1,18.3,56.3l-3.343-4.077L9.7,51.831a.733.733,0,0,1-.6-1.07Z" transform="translate(-0.539 -10.571)" fill="#06aec9"/>
    <path id="Path_1969" data-name="Path 1969" d="M21.855,47.373a4.627,4.627,0,0,1,4,1.053.733.733,0,0,1,.169.892l-4.349,8.36a.731.731,0,0,1-.574.391c-.026,0-.051,0-.076,0a.734.734,0,0,1-.567-.268l-3.343-4.077,3.318-6.383a2.851,2.851,0,0,0,1.42.028Z" transform="translate(-2.698 -12.073)" fill="#1bcfec"/>
    <path id="Path_1970" data-name="Path 1970" d="M43.667,20.333a4.625,4.625,0,0,0-1.183-3.105,3.2,3.2,0,0,1-.812-2.131,3.474,3.474,0,0,1,.067-.659,4.879,4.879,0,0,0,.1-.94,4.667,4.667,0,0,0-3.211-4.43A3.146,3.146,0,0,1,36.6,7.037a4.609,4.609,0,0,0-.766-1.428,4.7,4.7,0,0,0-3.665-1.783,4.935,4.935,0,0,0-.947.1,3.224,3.224,0,0,1-2.779-.743,4.67,4.67,0,0,0-6.178-.036.814.814,0,0,0-.08.062,3.116,3.116,0,0,1-2.747.716,4.9,4.9,0,0,0-.939-.1,4.7,4.7,0,0,0-3.662,1.781,4.606,4.606,0,0,0-.767,1.43A3.148,3.148,0,0,1,12.034,9.07,4.666,4.666,0,0,0,8.826,13.5a4.894,4.894,0,0,0,.1.938,3.457,3.457,0,0,1,.068.661,3.2,3.2,0,0,1-.808,2.127,4.666,4.666,0,0,0,0,6.214,3.2,3.2,0,0,1,.811,2.131,3.475,3.475,0,0,1-.067.659,4.879,4.879,0,0,0-.1.94,4.667,4.667,0,0,0,3.213,4.43,3.063,3.063,0,0,1,1.215.74,3.1,3.1,0,0,1,.816,1.293,4.659,4.659,0,0,0,3.1,3.007,4.289,4.289,0,0,0,2.266.1,3.456,3.456,0,0,1,.66-.068,3.207,3.207,0,0,1,2.1.788l.035.029,0,0a4.669,4.669,0,0,0,6.2-.009,3.2,3.2,0,0,1,2.13-.812,3.468,3.468,0,0,1,.66.067,4.9,4.9,0,0,0,.939.1A4.667,4.667,0,0,0,36.6,33.629,3.148,3.148,0,0,1,38.633,31.6a4.666,4.666,0,0,0,3.208-4.429,4.894,4.894,0,0,0-.1-.938,3.457,3.457,0,0,1-.068-.661,3.2,3.2,0,0,1,.811-2.13A4.63,4.63,0,0,0,43.667,20.333Z" transform="translate(0 0)" fill="#fff"/>
    <path id="Path_1971" data-name="Path 1971" d="M37.4,21.371a1.373,1.373,0,0,0-1.041-.922l-4.205-.823-2.082-3.745a1.371,1.371,0,0,0-2.4,0l-2.082,3.745-4.2.823a1.372,1.372,0,0,0-.741,2.281l2.918,3.137-.517,4.254A1.372,1.372,0,0,0,24.99,31.53l3.885-1.806,3.886,1.806a1.372,1.372,0,0,0,1.94-1.409l-.517-4.254L37.1,22.73A1.373,1.373,0,0,0,37.4,21.371Z" transform="translate(-3.541 -3.514)" fill="#e3e3e3"/>
    <path id="Path_1972" data-name="Path 1972" d="M27.216,34.9A13.157,13.157,0,1,1,40.373,21.745,13.157,13.157,0,0,1,27.216,34.9Zm0-24.847a11.69,11.69,0,1,0,11.69,11.69,11.69,11.69,0,0,0-11.69-11.69Z" transform="translate(-1.882 -1.757)" fill="#e3e3e3"/>
  </g>
</svg>
