<svg id="Token" xmlns="http://www.w3.org/2000/svg" width="41.996" height="41.996" viewBox="0 0 41.996 41.996">
  <g id="Group_1259" data-name="Group 1259">
    <path id="Path_610" data-name="Path 610" d="M23,2A21,21,0,1,0,44,23,21.021,21.021,0,0,0,23,2Zm0,36A15,15,0,1,1,38,23,15.016,15.016,0,0,1,23,38Z" transform="translate(-2 -2)" fill="#ffd52c"/>
    <path id="Path_611" data-name="Path 611" d="M21,6A15,15,0,1,0,36,21,15.016,15.016,0,0,0,21,6Zm6.365,16.906-1.725.939A4.493,4.493,0,0,0,23.85,25.63L22.9,27.349a2.174,2.174,0,0,1-3.81,0l-.945-1.72a4.5,4.5,0,0,0-1.792-1.786L14.635,22.9a2.17,2.17,0,0,1,0-3.814l1.725-.939a4.493,4.493,0,0,0,1.789-1.785l.946-1.719a2.174,2.174,0,0,1,3.81,0l.945,1.72a4.506,4.506,0,0,0,1.791,1.785l1.723.937a2.171,2.171,0,0,1,0,3.816Z" transform="translate(-0.001 -0.001)" fill="#fbb02c"/>
    <path id="Path_612" data-name="Path 612" d="M24.863,16.583l-1.723-.937a4.506,4.506,0,0,1-1.791-1.785L20.4,12.14a2.174,2.174,0,0,0-3.81,0l-.945,1.719a4.474,4.474,0,0,1-1.789,1.785l-1.725.939a2.173,2.173,0,0,0,0,3.819l1.722.937a4.5,4.5,0,0,1,1.792,1.786l.945,1.72a2.174,2.174,0,0,0,3.81,0l.946-1.719a4.474,4.474,0,0,1,1.789-1.785l1.725-.939a2.175,2.175,0,0,0,0-3.82Z" transform="translate(2.499 2.506)" fill="#fff"/>
  </g>
</svg>
