<svg xmlns="http://www.w3.org/2000/svg" width="33" height="33" viewBox="0 0 33 33">
  <path id="_1608617_check_circle_icon" data-name="1608617_check_circle_icon" d="M155.586,141.02a1.338,1.338,0,0,0-.387-.988l-1.955-1.934a1.349,1.349,0,0,0-1.934,0l-8.766,8.744-4.855-4.855a1.349,1.349,0,0,0-1.934,0L133.8,143.92a1.338,1.338,0,0,0-.387.988,1.312,1.312,0,0,0,.387.967l7.777,7.777a1.321,1.321,0,0,0,.967.408,1.346,1.346,0,0,0,.988-.408L155.2,141.986A1.312,1.312,0,0,0,155.586,141.02ZM161,144.5a16.141,16.141,0,0,1-2.213,8.282,16.426,16.426,0,0,1-6,6,16.605,16.605,0,0,1-16.564,0,16.426,16.426,0,0,1-6-6,16.606,16.606,0,0,1,0-16.564,16.426,16.426,0,0,1,6-6,16.606,16.606,0,0,1,16.564,0,16.426,16.426,0,0,1,6,6A16.141,16.141,0,0,1,161,144.5Z" transform="translate(-128 -128)" fill="#0d9816"/>
</svg>
