<svg xmlns="http://www.w3.org/2000/svg" width="17.531" height="17.5" viewBox="0 0 17.531 17.5">
  <g id="_2216341_earth_globe_location_map_world_icon" data-name="2216341_earth_globe_location_map_world_icon" transform="translate(-18.3 -19.2)">
    <path id="Path_1706" data-name="Path 1706" d="M20.456,52.553a14.539,14.539,0,0,1,3.392-1.014,16.994,16.994,0,0,1-.38-3.139H18.3a8.457,8.457,0,0,0,1.522,4.407Z" transform="translate(0 -19.943)" fill="#42929d"/>
    <path id="Path_1707" data-name="Path 1707" d="M25.58,62.651l-.38.159a8.715,8.715,0,0,0,5.548,2.885l-.1-.127A12.143,12.143,0,0,1,28.814,61.7,12.8,12.8,0,0,0,25.58,62.651Z" transform="translate(-4.713 -29.027)" fill="#42929d"/>
    <path id="Path_1708" data-name="Path 1708" d="M28.714,23.258a12.213,12.213,0,0,1,1.68-3.677l.285-.38a8.829,8.829,0,0,0-5.58,2.917l.349.159A13.923,13.923,0,0,0,28.714,23.258Z" transform="translate(-4.644)" fill="#42929d"/>
    <path id="Path_1709" data-name="Path 1709" d="M23.816,32.5a15.1,15.1,0,0,1-3.456-1.046L19.79,31.2a8.819,8.819,0,0,0-1.49,4.407h5.167A16.352,16.352,0,0,1,23.816,32.5Z" transform="translate(0 -8.196)" fill="#42929d"/>
    <path id="Path_1710" data-name="Path 1710" d="M53.938,62.836l-.222-.159A14.037,14.037,0,0,0,50.166,61.6a12.143,12.143,0,0,1-1.839,3.868l-.127.19A8.738,8.738,0,0,0,53.938,62.836Z" transform="translate(-20.421 -28.958)" fill="#42929d"/>
    <path id="Path_1711" data-name="Path 1711" d="M53.816,22.18l.254-.127A8.707,8.707,0,0,0,48.3,19.2l.285.412a13.039,13.039,0,0,1,1.68,3.677A14.074,14.074,0,0,0,53.816,22.18Z" transform="translate(-20.489 0)" fill="#42929d"/>
    <path id="Path_1712" data-name="Path 1712" d="M37.9,38.717h4.787a17.075,17.075,0,0,0-.349-2.917c-.666.063-1.331.127-2,.127A14.683,14.683,0,0,1,38.28,35.8,14.687,14.687,0,0,0,37.9,38.717Z" transform="translate(-13.386 -11.337)" fill="#42929d"/>
    <path id="Path_1713" data-name="Path 1713" d="M59.516,30.8l-.444.254A14.547,14.547,0,0,1,55.3,32.227a16.312,16.312,0,0,1,.349,3.075H61.1A8.666,8.666,0,0,0,59.516,30.8Z" transform="translate(-25.27 -7.923)" fill="#42929d"/>
    <path id="Path_1714" data-name="Path 1714" d="M59.036,52.811l.38.254A8.546,8.546,0,0,0,61.033,48.5H55.58a16.994,16.994,0,0,1-.38,3.139,14.176,14.176,0,0,1,3.773,1.173Z" transform="translate(-25.202 -20.011)" fill="#42929d"/>
    <path id="Path_1715" data-name="Path 1715" d="M41.675,21.1l-.317.412a10.611,10.611,0,0,0-1.458,3.2,17.25,17.25,0,0,0,1.807.1,15.638,15.638,0,0,0,1.744-.1,11.224,11.224,0,0,0-1.49-3.234Z" transform="translate(-14.752 -1.298)" fill="#42929d"/>
    <path id="Path_1716" data-name="Path 1716" d="M41.744,64.546l.127-.159A11.208,11.208,0,0,0,43.487,61a15.492,15.492,0,0,0-1.712-.1A16.218,16.218,0,0,0,40,61a10.679,10.679,0,0,0,1.617,3.36Z" transform="translate(-14.821 -28.48)" fill="#42929d"/>
    <path id="Path_1717" data-name="Path 1717" d="M40.341,51.353a14.083,14.083,0,0,1,2,.127,15.322,15.322,0,0,0,.349-2.98H37.9a17.834,17.834,0,0,0,.349,2.98A15.446,15.446,0,0,1,40.341,51.353Z" transform="translate(-13.386 -20.011)" fill="#42929d"/>
  </g>
</svg>