<svg xmlns="http://www.w3.org/2000/svg" width="12.74" height="12.741" viewBox="0 0 12.74 12.741">
  <path id="_3994395_edit_pen_pencil_stationery_write_icon" data-name="3994395_edit_pen_pencil_stationery_write_icon" d="M18.243,7.109a2.75,2.75,0,0,0-3.89,0L6.575,14.887a.916.916,0,0,0-.269.648v2.593a.916.916,0,0,0,.917.917H9.816a.916.916,0,0,0,.648-.269L18.244,11a2.756,2.756,0,0,0,0-3.889Zm-1.3,1.3a.919.919,0,0,1,0,1.3l-.648.648L15,9.053l.648-.648a.916.916,0,0,1,1.3,0ZM9.437,17.211H8.14v-1.3L13.7,10.349l1.3,1.3Z" transform="translate(-6.306 -6.303)" fill="#7b9aaf" />
</svg>
