<svg id="Token" xmlns="http://www.w3.org/2000/svg" width="28.578" height="28.578" viewBox="0 0 28.578 28.578">
  <g id="Group_1259" data-name="Group 1259">
    <path id="Path_610" data-name="Path 610" d="M16.289,2A14.289,14.289,0,1,0,30.578,16.289,14.3,14.3,0,0,0,16.289,2Zm0,24.5A10.206,10.206,0,1,1,26.5,16.289,10.218,10.218,0,0,1,16.289,26.5Z" transform="translate(-2 -2)" fill="#ffd52c"/>
    <path id="Path_611" data-name="Path 611" d="M16.206,6A10.206,10.206,0,1,0,26.413,16.206,10.218,10.218,0,0,0,16.206,6Zm4.332,11.5-1.174.639a3.058,3.058,0,0,0-1.218,1.215l-.644,1.17a1.479,1.479,0,0,1-2.592,0l-.643-1.171a3.059,3.059,0,0,0-1.22-1.216L11.876,17.5a1.477,1.477,0,0,1,0-2.6l1.174-.639a3.058,3.058,0,0,0,1.218-1.215l.644-1.17a1.479,1.479,0,0,1,2.592,0l.643,1.171a3.067,3.067,0,0,0,1.219,1.215l1.173.638a1.478,1.478,0,0,1,0,2.6Z" transform="translate(-1.917 -1.917)" fill="#fbb02c"/>
    <path id="Path_612" data-name="Path 612" d="M20.434,14.8l-1.173-.638a3.067,3.067,0,0,1-1.219-1.215L17.4,11.781a1.479,1.479,0,0,0-2.592,0l-.643,1.17a3.045,3.045,0,0,1-1.218,1.215l-1.174.639a1.479,1.479,0,0,0,0,2.6l1.172.638a3.059,3.059,0,0,1,1.22,1.216l.643,1.171a1.479,1.479,0,0,0,2.592,0l.644-1.17a3.045,3.045,0,0,1,1.218-1.215l1.174-.639a1.48,1.48,0,0,0,0-2.6Z" transform="translate(-1.814 -1.814)" fill="#fff"/>
  </g>
</svg>
