<svg xmlns="http://www.w3.org/2000/svg" width="266.807" height="254.932" viewBox="0 0 266.807 254.932">
  <g id="Group_3784" data-name="Group 3784" transform="translate(-587 -173)">
    <g id="Group_3782" data-name="Group 3782" transform="translate(-138.261 70.698)">
      <g id="Group_3780" data-name="Group 3780" transform="translate(727.613 102.301)">
        <g id="Group_3770" data-name="Group 3770" transform="translate(2.365)">
          <circle id="Ellipse_244" data-name="Ellipse 244" cx="90.132" cy="90.132" r="90.132" transform="translate(0 127.466) rotate(-45)" fill="#d5eafb"/>
        </g>
        <g id="Group_3779" data-name="Group 3779" transform="translate(0 11.825)">
          <g id="Group_3771" data-name="Group 3771" transform="translate(1.551)">
            <path id="Path_1903" data-name="Path 1903" d="M727.957,110.469l26.449,62.059L773.738,159.3l11.2,16.278,2.022-27.46,23.4-14.256Z" transform="translate(-727.957 -110.469)" fill="#fcb040"/>
            <path id="Path_1904" data-name="Path 1904" d="M771.3,151.588,747.687,167.75l19.332-13.225,11.2,16.278,2.022-27.46-37.28-22.2Z" transform="translate(-721.237 -105.691)" fill="#f58732"/>
          </g>
          <g id="Group_3772" data-name="Group 3772" transform="translate(22.723 68.782)">
            <path id="Path_1906" data-name="Path 1906" d="M767.887,162.049c-.208-1.209-.473-2.415-.786-3.586l1.814-.485c.327,1.225.6,2.487.822,3.751Z" transform="translate(-731.602 -157.978)" fill="#06aec9"/>
            <path id="Path_1907" data-name="Path 1907" d="M756.964,200.669a15.516,15.516,0,0,1-7.54-2.516l1.038-1.564a13.654,13.654,0,0,0,6.628,2.206Zm7.8-1.532-.83-1.684a18.9,18.9,0,0,0,5.616-4.423l1.4,1.254A20.732,20.732,0,0,1,764.765,199.138Zm-20.566-6.98a15.5,15.5,0,0,1-1.619-6.822c0-.19,0-.381.012-.57l.023-.407,1.872.138-.019.342c-.006.169-.01.334-.01.5a13.619,13.619,0,0,0,1.425,5.991Zm72.642-.429-.009-1.878c2.445-.012,4.963-.111,7.479-.3l.138,1.872C821.89,191.617,819.33,191.718,816.841,191.729Zm-7.615-.246-1.2-.093c-2.308-.193-4.4-.452-6.393-.8l.32-1.85c1.94.336,3.977.589,6.23.777l1.173.088Zm22.788-.854-.253-1.86c2.415-.329,4.9-.74,7.4-1.22l.356,1.843C836.987,189.879,834.463,190.3,832.014,190.629Zm-37.84-1.9a36.363,36.363,0,0,1-6.15-2.725c-.294-.165-.588-.337-.877-.513l.97-1.608c.274.165.549.327.828.484a34.493,34.493,0,0,0,5.834,2.586Zm-18.737-.747-1.629-.935a42.159,42.159,0,0,0,3.1-6.7l1.766.637A44.213,44.213,0,0,1,775.437,187.984Zm71.5-.208-.442-1.824c2.348-.57,4.792-1.218,7.262-1.924l.517,1.805C851.776,186.546,849.309,187.2,846.935,187.776Zm14.589-4.158-.579-1.787q3.579-1.16,7.123-2.422l.628,1.771Q865.13,182.446,861.524,183.618Zm-80.646-2.474a51.958,51.958,0,0,0-5.59-3.677l-.628-.333.86-1.669c.224.114.447.235.669.355a54.374,54.374,0,0,1,5.8,3.808Zm-33.759-2.823-1.313-1.342a16.039,16.039,0,0,1,6.91-3.708l.631,1.771A14.621,14.621,0,0,0,747.118,178.32Zm20.684-3.666a29.853,29.853,0,0,0-6.508-.72l-.762.009-.046-1.876a31.753,31.753,0,0,1,7.725.756Zm12.852-1.106-1.849-.329a43.589,43.589,0,0,0,.666-7.352l1.878.009A45.422,45.422,0,0,1,780.654,173.548Z" transform="translate(-742.581 -154.445)" fill="#06aec9"/>
            <path id="Path_1908" data-name="Path 1908" d="M834.862,175.576l-.668-1.755q1.753-.669,3.5-1.354l.682,1.75Q836.626,174.9,834.862,175.576Z" transform="translate(-701.56 -151.49)" fill="#06aec9"/>
          </g>
          <path id="Path_1909" data-name="Path 1909" d="M876.062,212.3a1.877,1.877,0,0,1-.18-3.745A44.6,44.6,0,0,0,905.275,193.3a1.877,1.877,0,0,1,2.83,2.466,48.318,48.318,0,0,1-31.861,16.523C876.182,212.293,876.122,212.3,876.062,212.3Z" transform="translate(-660.929 -73.67)" fill="#06aec9"/>
          <g id="Group_3776" data-name="Group 3776" transform="translate(61.431 52.701)">
            <g id="Group_3775" data-name="Group 3775">
              <path id="Path_1910" data-name="Path 1910" d="M900.136,221.6,834.727,260.17,769.317,221.6a.381.381,0,0,1,.01-.106c.054-.245,3.664-3.259,9.17-7.733.052-.042.1-.084.149-.127,18.061-14.664,56.081-44.7,56.081-44.7s38.018,30.031,56.081,44.7c5.59,4.537,9.264,7.6,9.318,7.86A.37.37,0,0,1,900.136,221.6Z" transform="translate(-769.317 -136.991)" fill="#7a4c08"/>
              <g id="Group_3773" data-name="Group 3773" transform="translate(10.776)">
                <path id="Path_1911" data-name="Path 1911" d="M858.294,146.871H787.721a10.962,10.962,0,0,0-10.961,10.961v106.7a10.96,10.96,0,0,0,10.961,10.96h88.43a10.959,10.959,0,0,0,10.961-10.96V175.689Z" transform="translate(-776.76 -146.871)" fill="#fff"/>
                <path id="Path_1912" data-name="Path 1912" d="M833.077,164.729a10.96,10.96,0,0,0,10.961,10.96h17.857l-28.818-28.818Z" transform="translate(-751.543 -146.871)" fill="#e6e8e8"/>
                <rect id="Rectangle_2148" data-name="Rectangle 2148" width="32.156" height="32.156" rx="2.697" transform="translate(16.694 18.037)" fill="#06aec9"/>
                <path id="Path_1913" data-name="Path 1913" d="M849.885,187.713H791.463a3.146,3.146,0,0,0-3.146,3.146h0A3.146,3.146,0,0,0,791.463,194h58.422a3.146,3.146,0,0,0,3.146-3.146h0A3.146,3.146,0,0,0,849.885,187.713Z" transform="translate(-771.585 -128.583)" fill="#d9dbdb"/>
                <path id="Path_1914" data-name="Path 1914" d="M849.885,198.537H791.463a3.146,3.146,0,0,0-3.146,3.146h0a3.146,3.146,0,0,0,3.146,3.146h58.422a3.146,3.146,0,0,0,3.146-3.146h0A3.146,3.146,0,0,0,849.885,198.537Z" transform="translate(-771.585 -123.737)" fill="#d9dbdb"/>
                <path id="Path_1915" data-name="Path 1915" d="M823.353,209.037h-31.89a3.146,3.146,0,0,0-3.146,3.146h0a3.146,3.146,0,0,0,3.146,3.146h31.89a3.146,3.146,0,0,0,3.146-3.146h0A3.146,3.146,0,0,0,823.353,209.037Z" transform="translate(-771.585 -119.035)" fill="#d9dbdb"/>
              </g>
              <g id="Group_3774" data-name="Group 3774" transform="translate(0.007 84.605)">
                <path id="Path_1916" data-name="Path 1916" d="M900.141,205.309v62.752a7.991,7.991,0,0,1-7.97,7.97h-114.9a7.973,7.973,0,0,1-7.95-7.97V205.309l65.409,38.566Z" transform="translate(-769.322 -205.309)" fill="#fcb040"/>
                <path id="Path_1917" data-name="Path 1917" d="M897.25,265.455l-42.1-42.1L834.05,235.8l-21.107-12.445-42.1,42.1a7.9,7.9,0,0,0,5.75,2.5h114.9A7.93,7.93,0,0,0,897.25,265.455Z" transform="translate(-768.642 -197.23)" fill="#f58732"/>
              </g>
            </g>
          </g>
          <g id="Group_3778" data-name="Group 3778" transform="translate(170.147 50.967)">
            <g id="Group_3777" data-name="Group 3777">
              <path id="Path_1918" data-name="Path 1918" d="M879.73,145.868a39.46,39.46,0,0,0-35.219,36.241,39.018,39.018,0,0,0,6.893,25.174,9.526,9.526,0,0,1,.908,9.083l-3.105,7.476,12.693-3.291a9.568,9.568,0,0,1,6.214.481,39.3,39.3,0,1,0,11.617-75.164Z" transform="translate(-844.409 -145.673)" fill="#06aec9"/>
            </g>
          </g>
          <path id="Path_1919" data-name="Path 1919" d="M730.678,123.548l8.58,19.687a1.978,1.978,0,0,1-1.029,2.6l-.307.132a1.979,1.979,0,0,1-2.607-1.047l-8.273-19.82a1.978,1.978,0,0,1,1.138-2.623h0A1.977,1.977,0,0,1,730.678,123.548Z" transform="translate(-726.885 -105.146)" fill="#fcb040"/>
        </g>
      </g>
      <g id="Group_3781" data-name="Group 3781" transform="translate(725.261 108.054)">
        <path id="Path_1920" data-name="Path 1920" d="M754.671,218.877a6.307,6.307,0,1,0,6.308,6.308A6.308,6.308,0,0,0,754.671,218.877Zm0,8.86a2.553,2.553,0,1,1,2.552-2.552A2.553,2.553,0,0,1,754.671,227.737Z" transform="translate(-714.916 -55.855)" fill="#d5eafb"/>
        <path id="Path_1921" data-name="Path 1921" d="M871.418,236.507a6.307,6.307,0,1,0,6.308,6.306A6.306,6.306,0,0,0,871.418,236.507Zm0,8.86a2.553,2.553,0,1,1,2.552-2.554A2.554,2.554,0,0,1,871.418,245.367Z" transform="translate(-662.641 -47.961)" fill="#d5eafb"/>
        <path id="Path_1922" data-name="Path 1922" d="M906.6,168.839a4.83,4.83,0,1,0,4.83,4.83A4.829,4.829,0,0,0,906.6,168.839Zm0,6.784a1.954,1.954,0,1,1,1.956-1.954A1.955,1.955,0,0,1,906.6,175.623Z" transform="translate(-646.223 -78.261)" fill="#d5eafb"/>
        <path id="Path_1923" data-name="Path 1923" d="M847.952,115.477a5.106,5.106,0,1,0,5.106,5.106A5.106,5.106,0,0,0,847.952,115.477Zm0,7.174a2.067,2.067,0,1,1,2.066-2.067A2.067,2.067,0,0,1,847.952,122.651Z" transform="translate(-672.61 -102.154)" fill="#d5eafb"/>
        <path id="Path_1924" data-name="Path 1924" d="M735.216,197.656a5.368,5.368,0,1,0,5.368,5.368A5.369,5.369,0,0,0,735.216,197.656Z" transform="translate(-723.208 -65.357)" fill="#d5eafb"/>
        <path id="Path_1925" data-name="Path 1925" d="M883.537,209.931a3.9,3.9,0,1,0,3.9,3.9A3.9,3.9,0,0,0,883.537,209.931Z" transform="translate(-656.138 -59.861)" fill="#d5eafb"/>
        <path id="Path_1926" data-name="Path 1926" d="M794.779,116.586a5.707,5.707,0,1,0,5.707,5.707A5.707,5.707,0,0,0,794.779,116.586Z" transform="translate(-696.688 -101.658)" fill="#d5eafb"/>
        <path id="Path_1927" data-name="Path 1927" d="M815.4,259.374a4.159,4.159,0,1,0,4.158,4.159A4.159,4.159,0,0,0,815.4,259.374Z" transform="translate(-686.76 -37.722)" fill="#d5eafb"/>
        <path id="Path_1928" data-name="Path 1928" d="M871.227,131.79a4.881,4.881,0,1,0,4.882,4.882A4.881,4.881,0,0,0,871.227,131.79Z" transform="translate(-662.087 -94.85)" fill="#d5eafb"/>
        <circle id="Ellipse_245" data-name="Ellipse 245" cx="2.778" cy="2.778" r="2.778" transform="translate(33.473 74.888)" fill="#d5eafb"/>
        <path id="Path_1929" data-name="Path 1929" d="M907.741,152.026a4.74,4.74,0,1,0,4.74,4.741A4.741,4.741,0,0,0,907.741,152.026Z" transform="translate(-645.674 -85.789)" fill="#d5eafb"/>
        <circle id="Ellipse_246" data-name="Ellipse 246" cx="3.024" cy="3.024" r="3.024" transform="translate(6.32 91.32)" fill="#d5eafb"/>
        <path id="Path_1930" data-name="Path 1930" d="M821.756,111.063l1.9-1.9a1.693,1.693,0,1,0-2.395-2.395l-1.9,1.9-1.9-1.9a1.693,1.693,0,1,0-2.395,2.395l1.9,1.9-1.9,1.9a1.693,1.693,0,0,0,2.395,2.395l1.9-1.9,1.9,1.9a1.693,1.693,0,0,0,2.395-2.395Z" transform="translate(-685.269 -106.275)" fill="#d5eafb"/>
        <path id="Path_1931" data-name="Path 1931" d="M732.443,150.713l1.9-1.9a1.693,1.693,0,0,0-2.395-2.395l-1.9,1.9-1.9-1.9a1.693,1.693,0,0,0-2.395,2.395l1.9,1.9-1.9,1.9a1.693,1.693,0,0,0,2.395,2.395l1.9-1.9,1.9,1.9a1.693,1.693,0,1,0,2.395-2.395Z" transform="translate(-725.261 -88.521)" fill="#d5eafb"/>
        <path id="Path_1932" data-name="Path 1932" d="M886.851,230.6l1.608-1.608a1.434,1.434,0,0,0-2.028-2.028l-1.609,1.608-1.608-1.608a1.434,1.434,0,0,0-2.028,2.028l1.608,1.608-1.608,1.608a1.434,1.434,0,0,0,2.028,2.028l1.608-1.608,1.609,1.608a1.434,1.434,0,1,0,2.028-2.028Z" transform="translate(-655.63 -52.42)" fill="#d5eafb"/>
      </g>
    </g>
    <g id="Group_3783" data-name="Group 3783" transform="translate(-76.464 96.824)">
      <path id="Path_1933" data-name="Path 1933" d="M874.16,155.989a11.387,11.387,0,0,0-11.388,11.387v1.9h3.8v-1.9a7.592,7.592,0,0,1,15.183,0v1.9h3.8v-1.9A11.386,11.386,0,0,0,874.16,155.989Z" transform="translate(1.305)" fill="#fff"/>
      <path id="Path_1934" data-name="Path 1934" d="M886.851,169.157H864.076a5.693,5.693,0,0,0-5.694,5.693v15.183a5.694,5.694,0,0,0,5.694,5.695h22.774a5.694,5.694,0,0,0,5.695-5.695V174.85A5.693,5.693,0,0,0,886.851,169.157Zm-9.489,14.671v4.308a1.9,1.9,0,0,1-3.8,0v-4.308a3.8,3.8,0,1,1,3.8,0Z" transform="translate(0 3.913)" fill="#fff"/>
    </g>
  </g>
</svg>
