<svg xmlns="http://www.w3.org/2000/svg" width="31.01" height="30.441" viewBox="0 0 31.01 30.441">
  <g id="send" transform="translate(-9.517 -18.6)">
    <path id="Path_3" data-name="Path 3" d="M11.357,20.432,38.692,33.82,11.357,47.209l2.6-12.174,16.4-1.133v-.165l-16.4-1.133-2.6-12.174m0-1.332a1.329,1.329,0,0,0-1.3,1.61l2.6,12.174a1.337,1.337,0,0,0,.756.937,1.331,1.331,0,0,0-.756.937l-2.6,12.174a1.332,1.332,0,0,0,1.3,1.61,1.351,1.351,0,0,0,.585-.135L39.28,35.017a1.332,1.332,0,0,0,0-2.394L11.942,19.238a1.312,1.312,0,0,0-.585-.138Z" transform="translate(0)" fill="#fff" stroke="#fff" stroke-width="1"/>
  </g>
</svg>
