<svg xmlns="http://www.w3.org/2000/svg" width="39" height="26.813" viewBox="0 0 39 26.813">
  <g id="_18._Fast_Delivery" data-name="18. Fast Delivery" transform="translate(0 -5)">
    <path id="Path_1981" data-name="Path 1981" d="M18,6h7.313v6.252a1.06,1.06,0,0,1-1.06,1.06H19.06A1.06,1.06,0,0,1,18,12.252Z" transform="translate(3.938 0.219)" fill="#06aec9"/>
    <path id="Path_1982" data-name="Path 1982" d="M33.156,31.813h-19.5A3.656,3.656,0,0,1,10,28.156V8.656A3.656,3.656,0,0,1,13.656,5h19.5a3.656,3.656,0,0,1,3.656,3.656v19.5A3.656,3.656,0,0,1,33.156,31.813ZM13.656,7.438a1.219,1.219,0,0,0-1.219,1.219v19.5a1.219,1.219,0,0,0,1.219,1.219h19.5a1.219,1.219,0,0,0,1.219-1.219V8.656a1.219,1.219,0,0,0-1.219-1.219Z" transform="translate(2.188 0)" fill="#42929d"/>
    <path id="Path_1983" data-name="Path 1983" d="M17.656,23.438H15.219a1.219,1.219,0,0,1,0-2.437h2.438a1.219,1.219,0,0,1,0,2.438Z" transform="translate(3.063 3.5)" fill="#42929d"/>
    <path id="Path_1984" data-name="Path 1984" d="M7.656,17.438H5.219a1.219,1.219,0,0,1,0-2.437H7.656a1.219,1.219,0,0,1,0,2.438Z" transform="translate(0.875 2.188)" fill="#06aec9"/>
    <path id="Path_1985" data-name="Path 1985" d="M8.094,13.438H3.219a1.219,1.219,0,0,1,0-2.437H8.094a1.219,1.219,0,0,1,0,2.438Z" transform="translate(0.438 1.313)" fill="#06aec9"/>
    <path id="Path_1986" data-name="Path 1986" d="M8.531,9.438H1.219A1.219,1.219,0,0,1,1.219,7H8.531a1.219,1.219,0,0,1,0,2.438Z" transform="translate(0 0.438)" fill="#06aec9"/>
  </g>
</svg>
