<svg xmlns="http://www.w3.org/2000/svg" width="14.667" height="14.667" viewBox="0 0 14.667 14.667">
    <path id="_3994410_delete_dustbin_garbage_recycle_bin_trash_can_icon" data-name="3994410_delete_dustbin_garbage_recycle bin_trash can_icon" d="M13.75,3.667H11V2.75A2.753,2.753,0,0,0,8.25,0H6.417a2.753,2.753,0,0,0-2.75,2.75v.917H.917a.917.917,0,0,0,0,1.833h.917v8.25a.916.916,0,0,0,.917.917h9.167a.916.916,0,0,0,.917-.917V5.5h.917a.917.917,0,0,0,0-1.833ZM5.5,2.75a.918.918,0,0,1,.917-.917H8.25a.918.918,0,0,1,.917.917v.917H5.5ZM11,12.833H3.667V5.5H11Z" transform="translate(0 0)" fill="#7b9aaf" />
</svg>