<svg xmlns="http://www.w3.org/2000/svg" width="22" height="22" viewBox="0 0 22 22">
  <g id="_9021781_warning_circle_bold_icon" data-name="9021781_warning_circle_bold_icon" transform="translate(0.333 0.333)">
    <rect id="Rectangle_2498" data-name="Rectangle 2498" width="22" height="22" transform="translate(-0.333 -0.333)" fill="none"/>
    <path id="Ellipse_282" data-name="Ellipse 282" d="M-3-12A9.01,9.01,0,0,1,6-3,9.01,9.01,0,0,1-3,6a9.01,9.01,0,0,1-9-9A9.01,9.01,0,0,1-3-12ZM-3,4A7.008,7.008,0,0,0,4-3a7.008,7.008,0,0,0-7-7,7.008,7.008,0,0,0-7,7A7.008,7.008,0,0,0-3,4Z" transform="translate(13.667 13.667)" fill="#fa2e2c"/>
    <path id="Line_630" data-name="Line 630" d="M-11-5.667a1,1,0,0,1-1-1V-11a1,1,0,0,1,1-1,1,1,0,0,1,1,1v4.333A1,1,0,0,1-11-5.667Z" transform="translate(21.667 17.667)" fill="#fa2e2c"/>
    <circle id="Ellipse_283" data-name="Ellipse 283" cx="1" cy="1" r="1" transform="translate(9.667 13.667)" fill="#fa2e2c"/>
  </g>
</svg>
