<svg xmlns="http://www.w3.org/2000/svg" width="21.381" height="20.1" viewBox="0 0 21.381 20.1">
  <path id="Union_30" data-name="Union 30" d="M10.931,20.066l0,0h0a2.369,2.369,0,0,1,0-4.67l.005,0a2.847,2.847,0,0,1,.4-.033,2.36,2.36,0,0,1,2.1,1.279h2.382a1.454,1.454,0,0,0,1.116-.519,2.358,2.358,0,0,1-1.563-2.232V8.77a2.368,2.368,0,0,1,1.815-2.3,5.277,5.277,0,0,0-5.209-4.289H9.412A5.283,5.283,0,0,0,4.2,6.465a2.372,2.372,0,0,1,1.821,2.3v5.119a2.371,2.371,0,0,1-2.37,2.367A3.655,3.655,0,0,1,0,12.609V10.049a3.675,3.675,0,0,1,1.94-3.23A7.492,7.492,0,0,1,9.4,0h2.582a7.487,7.487,0,0,1,7.455,6.818,3.674,3.674,0,0,1,1.942,3.23v2.561a3.667,3.667,0,0,1-2,3.258,3.657,3.657,0,0,1-3.562,2.953H13.43a2.36,2.36,0,0,1-2.1,1.28A2.847,2.847,0,0,1,10.931,20.066Zm.207-2.336a.194.194,0,0,0,.192.191.192.192,0,0,0,.192-.191.19.19,0,0,0-.192-.192A.192.192,0,0,0,11.138,17.731Zm6.4-8.961v5.119a.186.186,0,0,0,.192.189A1.471,1.471,0,0,0,19.2,12.609V10.049a1.473,1.473,0,0,0-1.471-1.471A.192.192,0,0,0,17.541,8.77ZM2.182,10.049v2.561a1.462,1.462,0,0,0,.432,1.043,1.442,1.442,0,0,0,1.039.426.188.188,0,0,0,.192-.189V8.77a.2.2,0,0,0-.192-.192A1.473,1.473,0,0,0,2.182,10.049Z" fill="#7b9aaf"/>
</svg>
