<svg xmlns="http://www.w3.org/2000/svg" width="18.239" height="19.667" viewBox="0 0 18.239 19.667">
  <g id="_7787577_setting_gear_settings_options_preferences_icon" data-name="7787577_setting_gear_settings_options_preferences_icon" transform="translate(0)">
    <path id="Path_508" data-name="Path 508" d="M69.5,65a3.8,3.8,0,1,0,2.711,1.113A3.824,3.824,0,0,0,69.5,65Zm0,5.463a1.639,1.639,0,1,1,1.639-1.639A1.609,1.609,0,0,1,69.5,70.462Z" transform="translate(-60.31 -58.99)" fill="#7b9aaf"/>
    <path id="Path_509" data-name="Path 509" d="M33.264,20.707a.72.72,0,0,1,0-1.256A2.923,2.923,0,0,0,34.3,15.463l-.382-.656a2.871,2.871,0,0,0-3.933-1.038.651.651,0,0,1-.983-.6V13a3,3,0,0,0-3-3h-.546a3.031,3.031,0,0,0-3,3v.109a.768.768,0,0,1-1.147.656,2.955,2.955,0,0,0-4.043,1.093l-.328.6a2.935,2.935,0,0,0,1.038,3.988.72.72,0,0,1,0,1.256A2.923,2.923,0,0,0,16.93,24.7l.382.6a2.955,2.955,0,0,0,4.043,1.093l.164-.109a.644.644,0,0,1,.983.546,2.821,2.821,0,0,0,2.841,2.841h.929a2.8,2.8,0,0,0,2.786-2.786.62.62,0,0,1,.929-.546l.109.055a2.871,2.871,0,0,0,3.933-1.038l.382-.656A2.958,2.958,0,0,0,33.264,20.707Zm-1.093,1.912a.784.784,0,0,1,.273.983l-.382.656a.7.7,0,0,1-.929.273l-.109-.055a2.8,2.8,0,0,0-4.206,2.4.606.606,0,0,1-.6.6h-.929a.632.632,0,0,1-.656-.656,2.841,2.841,0,0,0-4.261-2.458l-.164.109A.744.744,0,0,1,19.17,24.2l-.328-.6a.729.729,0,0,1,.273-.983,2.919,2.919,0,0,0,0-5.026.784.784,0,0,1-.273-.983l.328-.656a.733.733,0,0,1,1.038-.273,2.944,2.944,0,0,0,4.425-2.568V13a.84.84,0,0,1,.819-.819H26a.84.84,0,0,1,.819.819v.164a2.9,2.9,0,0,0,4.316,2.513.7.7,0,0,1,.929.273l.382.656a.729.729,0,0,1-.273.983A2.919,2.919,0,0,0,32.172,22.619Z" transform="translate(-16.532 -10)" fill="#7b9aaf"/>
  </g>
</svg>
