<svg xmlns="http://www.w3.org/2000/svg" width="20" height="20" viewBox="0 0 20 20">
  <g id="_icons" transform="translate(-2 -2)">
    <path id="Path_2023" data-name="Path 2023" d="M12,5A3.608,3.608,0,0,0,8.3,8.6a3.7,3.7,0,0,0,7.4,0A3.608,3.608,0,0,0,12,5Zm0,5.3a1.605,1.605,0,0,1-1.7-1.6A1.685,1.685,0,0,1,12,7a1.605,1.605,0,0,1,1.7,1.6A1.685,1.685,0,0,1,12,10.3Z" fill="#7b9aaf"/>
    <path id="Path_2024" data-name="Path 2024" d="M12,2a10,10,0,0,0,0,20,9.7,9.7,0,0,0,7.3-3.2A9.975,9.975,0,0,0,12,2Zm-.8,18h-.3a.9.9,0,0,1-.5-.1.367.367,0,0,1-.3-.1c-.2,0-.3-.1-.5-.1-.1,0-.2-.1-.3-.1a.758.758,0,0,1-.4-.2c-.1,0-.2-.1-.3-.1-.1-.1-.3-.1-.4-.2s-.2-.2-.3-.2a.52.52,0,0,0-.4-.2c-.1-.1-.2-.1-.3-.2l-.3-.3c-.1-.1-.2-.1-.3-.2l-.1-.1v-.1A3.7,3.7,0,0,1,10,15h4a3.7,3.7,0,0,1,3.5,2.8h0l-.1.1c-.1.1-.2.2-.3.2l-.3.3c-.1.1-.2.1-.3.2a.52.52,0,0,1-.4.2c-.1.1-.2.1-.3.2s-.3.1-.4.2c-.1,0-.2.1-.3.1-.1.1-.3.1-.4.2-.1,0-.2.1-.3.1-.2,0-.3.1-.5.1-.1,0-.2.1-.3.1-.2,0-.3.1-.5.1H12C11.7,19.9,11.5,20,11.2,20Zm7.7-3.9A5.635,5.635,0,0,0,14,13H10a5.408,5.408,0,0,0-4.9,3.1A8.388,8.388,0,0,1,4,12a8,8,0,0,1,16,0A8.388,8.388,0,0,1,18.9,16.1Z" fill="#7b9aaf"/>
  </g>
</svg>
