<svg xmlns="http://www.w3.org/2000/svg" width="17" height="17" viewBox="0 0 17 17">
  <path id="_1608617_check_circle_icon" data-name="1608617_check_circle_icon" d="M142.211,134.707a.689.689,0,0,0-.2-.509l-1.007-1a.695.695,0,0,0-1,0l-4.516,4.5-2.5-2.5a.695.695,0,0,0-1,0l-1.007,1a.689.689,0,0,0-.2.509.676.676,0,0,0,.2.5l4.007,4.007a.681.681,0,0,0,.5.21.693.693,0,0,0,.509-.21l6.01-6.01A.676.676,0,0,0,142.211,134.707ZM145,136.5a8.315,8.315,0,0,1-1.14,4.267,8.462,8.462,0,0,1-3.093,3.093,8.554,8.554,0,0,1-8.533,0,8.462,8.462,0,0,1-3.093-3.093,8.554,8.554,0,0,1,0-8.533,8.462,8.462,0,0,1,3.093-3.093,8.554,8.554,0,0,1,8.533,0,8.462,8.462,0,0,1,3.093,3.093A8.315,8.315,0,0,1,145,136.5Z" transform="translate(-128 -128)" fill="#06aec9"/>
</svg>
